<svg width="51" height="70" viewBox="0 0 51 70" fill="none" xmlns="http://www.w3.org/2000/svg">
<g clip-path="url(#clip0_134_3367)">
<path d="M13.278 70C20.1766 70 25.7755 64.7733 25.7755 58.3333V46.6666H13.278C6.37937 46.6666 0.780487 51.8933 0.780487 58.3333C0.780487 64.7733 6.37937 70 13.278 70Z" fill="#0ACF83"/>
<path d="M0.780487 35C0.780487 28.56 6.37937 23.3334 13.278 23.3334H25.7755V46.6667H13.278C6.37937 46.6667 0.780487 41.44 0.780487 35Z" fill="#A259FF"/>
<path d="M0.780487 11.6667C0.780487 5.22667 6.37937 0 13.278 0H25.7755V23.3333H13.278C6.37937 23.3333 0.780487 18.1067 0.780487 11.6667Z" fill="#F24E1E"/>
<path d="M25.7755 0H38.273C45.1717 0 50.7705 5.22667 50.7705 11.6667C50.7705 18.1067 45.1717 23.3333 38.273 23.3333H25.7755V0Z" fill="#FF7262"/>
<path d="M50.7705 35C50.7705 41.44 45.1717 46.6667 38.273 46.6667C31.3744 46.6667 25.7755 41.44 25.7755 35C25.7755 28.56 31.3744 23.3334 38.273 23.3334C45.1717 23.3334 50.7705 28.56 50.7705 35Z" fill="#1ABCFE"/>
</g>
<defs>
<clipPath id="clip0_134_3367">
<rect width="50" height="70" fill="white" transform="translate(0.775543)"/>
</clipPath>
</defs>
</svg>
