<svg width="51" height="50" viewBox="0 0 51 50" fill="none" xmlns="http://www.w3.org/2000/svg">
<path d="M50.7473 11.3113C50.7659 11.378 50.7754 11.4467 50.7755 11.5157V22.2481C50.7756 22.3859 50.7381 22.5212 50.667 22.6404C50.596 22.7596 50.4938 22.8584 50.3707 22.927L41.0976 28.1132V38.3926C41.0976 38.6724 40.9445 38.9306 40.6948 39.0715L21.3378 49.8958C21.2935 49.9202 21.2452 49.9359 21.1969 49.9525C21.1787 49.9584 21.1616 49.9691 21.1425 49.974C21.0072 50.0087 20.8649 50.0087 20.7296 49.974C20.7075 49.9682 20.6873 49.9564 20.6662 49.9486C20.6219 49.933 20.5756 49.9193 20.5333 49.8958L1.18034 39.0715C1.0574 39.0029 0.955247 38.904 0.88418 38.7848C0.813112 38.6656 0.775641 38.5304 0.775543 38.3926V6.19554C0.775543 6.12511 0.785613 6.05664 0.803738 5.99012C0.80978 5.96762 0.823878 5.94708 0.831933 5.92459C0.847038 5.8835 0.861136 5.84144 0.883289 5.80329C0.898393 5.77786 0.920547 5.75732 0.938672 5.73384C0.961832 5.70254 0.982979 5.67026 1.01017 5.64288C1.03333 5.62038 1.06354 5.60375 1.08972 5.58419C1.11892 5.56071 1.1451 5.53528 1.17833 5.51669L10.8563 0.104537C10.9788 0.0360469 11.1177 0 11.2591 0C11.4005 0 11.5393 0.0360469 11.6619 0.104537L21.3388 5.51669H21.3409C21.3731 5.53626 21.4003 5.56071 21.4295 5.58321C21.4557 5.60277 21.4849 5.62038 21.508 5.6419C21.5362 5.67026 21.5563 5.70254 21.5805 5.73384C21.5976 5.75732 21.6208 5.77786 21.6349 5.80329C21.6581 5.84242 21.6711 5.8835 21.6873 5.92459C21.6953 5.94708 21.7094 5.96762 21.7154 5.9911C21.734 6.05776 21.7435 6.12649 21.7436 6.19554V26.3055L29.8074 21.7952V11.5148C29.8074 11.4463 29.8175 11.3768 29.8356 11.3113C29.8427 11.2878 29.8558 11.2673 29.8638 11.2448C29.8799 11.2037 29.894 11.1617 29.9162 11.1235C29.9313 11.0981 29.9535 11.0775 29.9706 11.0541C29.9947 11.0228 30.0149 10.9905 30.0431 10.9631C30.0662 10.9406 30.0954 10.924 30.1216 10.9044C30.1518 10.8809 30.178 10.8555 30.2102 10.8369L39.8892 5.42475C40.0117 5.35616 40.1506 5.32006 40.292 5.32006C40.4334 5.32006 40.5723 5.35616 40.6948 5.42475L50.3717 10.8369C50.406 10.8565 50.4322 10.8809 50.4624 10.9034C50.4876 10.923 50.5168 10.9406 50.5399 10.9621C50.5681 10.9905 50.5882 11.0228 50.6124 11.0541C50.6305 11.0775 50.6527 11.0981 50.6668 11.1235C50.69 11.1617 50.703 11.2037 50.7192 11.2448C50.7282 11.2673 50.7413 11.2878 50.7473 11.3113ZM49.1624 21.7952V12.8705L45.7759 14.7642L41.0976 17.3808V26.3055L49.1634 21.7952H49.1624ZM39.4854 37.9397V29.0091L34.8836 31.5621L21.7426 38.8475V47.8622L39.4854 37.9397ZM2.38871 7.55029V37.9397L20.1295 47.8612V38.8485L10.8613 33.7532L10.8583 33.7513L10.8543 33.7493C10.8231 33.7317 10.7969 33.7063 10.7677 33.6847C10.7425 33.6652 10.7133 33.6495 10.6912 33.628L10.6891 33.6251C10.663 33.6006 10.6448 33.5703 10.6227 33.5429C10.6025 33.5165 10.5784 33.494 10.5623 33.4666L10.5613 33.4637C10.5431 33.4343 10.5321 33.3991 10.519 33.3659C10.5059 33.3365 10.4888 33.3091 10.4807 33.2778C10.4706 33.2407 10.4686 33.2006 10.4646 33.1624C10.4606 33.1331 10.4525 33.1037 10.4525 33.0744V12.0606L5.77514 9.44303L2.38871 7.55029ZM11.2601 1.6872L3.1973 6.19554L11.2581 10.7039L19.3199 6.19456L11.2581 1.6872H11.2601ZM15.4531 29.823L20.1305 27.2074V7.55029L16.744 9.444L12.0657 12.0606V31.7177L15.4531 29.823ZM40.292 7.00741L32.2302 11.5157L40.292 16.0241L48.3528 11.5148L40.292 7.00741ZM39.4854 17.3808L34.807 14.7642L31.4206 12.8705V21.7952L36.098 24.4108L39.4854 26.3055V17.3808ZM20.935 37.4927L32.7599 30.9351L38.6708 27.6583L30.615 23.1529L21.3398 28.3401L12.8864 33.0675L20.935 37.4927Z" fill="#FF2D20"/>
</svg>
