<svg width="65" height="64" viewBox="0 0 65 64" fill="none" xmlns="http://www.w3.org/2000/svg">
<path fill-rule="evenodd" clip-rule="evenodd" d="M59.1759 49.0764C55.695 48.9794 52.9946 49.3362 50.7313 50.2883C50.0796 50.55 49.0338 50.55 48.948 51.3703C49.2962 51.7144 49.3382 52.2777 49.6435 52.7547C50.1655 53.6205 51.0806 54.7869 51.9069 55.3919L54.6921 57.3823C56.3896 58.4197 58.3047 59.0256 59.9583 60.064C60.9163 60.67 61.8733 61.4485 62.8313 62.0981C63.3191 62.4442 63.6147 63.0075 64.2245 63.2227V63.0918C63.9201 62.704 63.8323 62.1417 63.5289 61.7073L62.2216 60.4537C60.9602 58.7668 59.3924 57.295 57.695 56.0851C56.3018 55.133 53.2561 53.8358 52.6903 52.236L52.6044 52.1391C53.5605 52.0421 54.6921 51.7057 55.6072 51.4459C57.0882 51.0581 58.4364 51.1434 59.9583 50.7546L62.0489 50.1487V49.7609C61.2655 48.9823 60.6997 47.944 59.8734 47.2091C57.654 45.3059 55.215 43.4454 52.6903 41.8883C51.341 41.0235 49.5997 40.4602 48.1636 39.7263C47.6397 39.4664 46.7705 39.3365 46.4661 38.9041C45.6808 37.954 45.2467 36.6984 44.6808 35.5728L41.1122 28.0464C40.3288 26.3594 39.8488 24.6725 38.8927 23.1154C34.409 15.7616 29.5331 11.3066 22.0466 6.93693C20.4369 6.02849 18.5218 5.63777 16.4858 5.1627L13.2215 4.98819C12.524 4.6857 11.8284 3.86354 11.2187 3.47379C8.7378 1.91673 2.33902 -1.45722 0.509824 2.98903C-0.66574 5.80065 2.25122 8.56864 3.24142 9.99675C3.98286 10.9915 4.93892 12.1161 5.4628 13.2408C5.75547 13.9757 5.85304 14.7552 6.15839 15.5337C6.85397 17.4369 7.50761 19.5572 8.42172 21.3315C8.9095 22.2399 9.42168 23.193 10.0314 24.0142C10.3797 24.4989 10.9894 24.7064 11.1192 25.4849C10.5094 26.3507 10.4675 27.647 10.1192 28.7299C8.55147 33.6183 9.1612 39.6739 11.3806 43.2728C12.0782 44.3538 13.722 46.734 15.9522 45.8246C17.9111 45.0461 17.4741 42.5806 18.0399 40.4175C18.1716 39.8988 18.0838 39.5527 18.3443 39.2056V39.3026L20.1296 42.8927C21.4788 45.0121 23.8299 47.2188 25.7879 48.6905C26.8317 49.469 27.659 50.8108 28.9643 51.2859V51.155H28.8785C28.617 50.7672 28.2249 50.5927 27.8766 50.2902C27.0932 49.5117 26.223 48.5596 25.6133 47.6948C23.786 45.2729 22.1763 42.5902 20.7393 39.8223C20.0418 38.4814 19.432 37.0106 18.8681 35.6698C18.6047 35.1501 18.6047 34.3706 18.1706 34.1127C17.517 35.0629 16.5609 35.887 16.08 37.0543C15.2527 38.9138 15.1668 41.2067 14.8624 43.5859C14.6868 43.6296 14.7649 43.5859 14.6868 43.6829C13.2957 43.3377 12.8157 41.9087 12.2938 40.6987C10.9885 37.6273 10.7699 32.6962 11.9016 29.1488C12.206 28.2403 13.5132 25.3851 12.9913 24.5202C12.7279 23.6981 11.8596 23.223 11.3796 22.5734C10.8138 21.7513 10.206 20.7139 9.81385 19.8054C8.76999 17.3816 8.24806 14.7009 7.11542 12.278C6.59154 11.1534 5.67841 9.98512 4.93795 8.94773C4.11066 7.77945 3.1985 6.95729 2.54487 5.57378C2.32731 5.08902 2.02293 4.31922 2.37121 3.79955C2.45706 3.45343 2.63267 3.31479 2.979 3.23722C3.54483 2.75246 5.15647 3.36714 5.7223 3.62504C7.332 4.27462 8.68121 4.8796 10.0304 5.78708C10.6402 6.21948 11.2938 7.04164 12.0772 7.25882H12.9923C14.3854 7.56131 15.9512 7.35577 17.2555 7.74358C19.5628 8.48042 21.6515 9.56047 23.5245 10.7297C29.2258 14.3199 33.9281 19.4244 37.1045 25.5247C37.6264 26.5194 37.844 27.4278 38.324 28.4662C39.2391 30.5866 40.3707 32.7486 41.2829 34.8263C42.198 36.8594 43.0682 38.9371 44.3735 40.6241C45.0271 41.5325 47.6378 42.0076 48.8124 42.4836C49.6836 42.8714 51.0318 43.2204 51.8171 43.6955C53.2961 44.6039 54.776 45.6423 56.1682 46.637C56.8638 47.1548 59.0412 48.2368 59.171 49.0996L59.1759 49.0764ZM14.7873 11.4859C14.186 11.4807 13.5864 11.5533 13.004 11.7022V11.7991H13.0898C13.4381 12.4913 14.0478 12.9674 14.483 13.5733L15.4849 15.6501L15.5707 15.5531C16.1804 15.1207 16.4858 14.4285 16.4858 13.3911C16.2243 13.0886 16.1814 12.7851 15.9639 12.4826C15.7024 12.0502 15.1366 11.833 14.7873 11.4879V11.4859Z" fill="#00678C"/>
</svg>
