<svg width="61" height="60" viewBox="0 0 61 60" fill="none" xmlns="http://www.w3.org/2000/svg">
<path d="M28.8107 0.0161462C28.6817 0.0278747 28.2711 0.0689244 27.9016 0.0982456C19.3796 0.866461 11.3972 5.46403 6.34153 12.5304C3.52628 16.4595 1.72569 20.9163 1.04534 25.637C0.804869 27.2849 0.775543 27.7716 0.775543 30.0059C0.775543 32.2402 0.804869 32.7269 1.04534 34.3747C2.67584 45.6399 10.6934 55.1048 21.5673 58.6116C23.5145 59.2391 25.5673 59.6672 27.9016 59.9252C28.8107 60.0249 32.7404 60.0249 33.6494 59.9252C37.6788 59.4796 41.0923 58.4826 44.4588 56.7644C44.975 56.5005 45.0747 56.4301 45.0043 56.3715C44.9574 56.3363 42.7579 53.3866 40.1187 49.8211L35.321 43.3412L29.3093 34.4451C26.0014 29.5543 23.2799 25.5549 23.2565 25.5549C23.233 25.5491 23.2096 29.5016 23.1978 34.3278C23.1802 42.7782 23.1744 43.1183 23.0688 43.3177C22.9163 43.605 22.799 43.7223 22.5527 43.8513C22.365 43.9452 22.2008 43.9628 21.3151 43.9628H20.3005L20.0307 43.7927C19.8547 43.6813 19.7257 43.5347 19.6377 43.3646L19.5145 43.1007L19.5263 31.3429L19.5439 19.5793L19.7257 19.3505C19.8195 19.2274 20.0189 19.0691 20.1597 18.9928C20.4002 18.8755 20.494 18.8638 21.5087 18.8638C22.7052 18.8638 22.9046 18.9107 23.2154 19.2509C23.3034 19.3447 26.5585 24.2472 30.453 30.1525C34.3474 36.0578 39.6729 44.1211 42.2887 48.0795L47.0395 55.2749L47.2799 55.1166C49.409 53.7326 51.6612 51.7622 53.4442 49.7097C57.2389 45.3526 59.6846 40.0396 60.5057 34.3747C60.7462 32.7269 60.7755 32.2402 60.7755 30.0059C60.7755 27.7716 60.7462 27.2849 60.5057 25.637C58.8753 14.3718 50.8577 4.90692 39.9838 1.40011C38.0659 0.778498 36.0248 0.350408 33.7374 0.0923813C33.1744 0.0337389 29.2975 -0.0307677 28.8107 0.0161462ZM41.0923 18.1601C41.3738 18.3008 41.6025 18.5706 41.6846 18.8521C41.7316 19.0046 41.7433 22.2651 41.7316 29.613L41.714 40.1569L39.8547 37.3069L37.9896 34.4568V26.7923C37.9896 21.837 38.0131 19.0515 38.0483 18.9166C38.1421 18.5882 38.3474 18.3302 38.6289 18.1777C38.8694 18.0546 38.9574 18.0428 39.8782 18.0428C40.7462 18.0428 40.8987 18.0546 41.0923 18.1601Z" fill="white"/>
</svg>
