<svg width="63" height="38" viewBox="0 0 63 38" fill="none" xmlns="http://www.w3.org/2000/svg">
<path d="M31.5053 0.5C23.3124 0.5 18.1877 4.61153 16.1385 12.8346C19.2141 8.72305 22.7992 7.17889 26.8975 8.20583C29.233 8.79427 30.9028 10.4958 32.7549 12.3811C35.7672 15.4469 39.2556 19 46.8721 19C55.0649 19 60.1859 14.8885 62.2351 6.66542C59.1632 10.7769 55.5781 12.3174 51.4798 11.2904C49.1443 10.7057 47.4708 9.00041 45.6225 7.11892C42.6101 4.04933 39.1217 0.5 31.5053 0.5ZM16.1385 19C7.94567 19 2.82466 23.1115 0.775513 31.3346C3.84738 27.2231 7.43246 25.6826 11.5308 26.7096C13.87 27.2943 15.5398 28.9996 17.3881 30.8811C20.4005 33.9507 23.8889 37.5 31.5053 37.5C39.7019 37.5 44.8229 33.3885 46.8721 25.1654C43.7965 29.2769 40.2114 30.8211 36.1168 29.7942C33.7776 29.2057 32.1078 27.5042 30.2557 25.6189C27.2434 22.5531 23.755 19 16.1385 19Z" fill="#06B6D4"/>
</svg>
