<svg width="51" height="50" viewBox="0 0 51 50" fill="none" xmlns="http://www.w3.org/2000/svg">
<g clip-path="url(#clip0_134_3383)">
<path d="M9.07866 4.03008e-06H41.3703C42.5334 -0.00112026 43.6852 0.233004 44.76 0.688979C45.8347 1.14495 46.8112 1.81383 47.6336 2.65732C48.456 3.50081 49.1082 4.50236 49.5527 5.60465C49.9973 6.70694 50.2256 7.88832 50.2245 9.0812V40.9188C50.2256 42.1117 49.9973 43.2931 49.5527 44.3954C49.1082 45.4977 48.456 46.4992 47.6336 47.3427C46.8112 48.1862 45.8347 48.8551 44.76 49.311C43.6852 49.767 42.5334 50.0011 41.3703 50H9.07866C7.9156 50.0011 6.76375 49.767 5.68902 49.311C4.61429 48.8551 3.63778 48.1862 2.81537 47.3427C1.99297 46.4992 1.34082 45.4977 0.896242 44.3954C0.451667 43.2931 0.223395 42.1117 0.224491 40.9188V9.0812C0.223395 7.88832 0.451667 6.70694 0.896242 5.60465C1.34082 4.50236 1.99297 3.50081 2.81537 2.65732C3.63778 1.81383 4.61429 1.14495 5.68902 0.688979C6.76375 0.233004 7.9156 -0.00112026 9.07866 4.03008e-06Z" fill="#00005B"/>
<path d="M12.0995 35.0641V13.0769C12.0995 12.9273 12.162 12.8418 12.3078 12.8418C12.662 12.8418 12.9953 12.8418 13.4745 12.8205C13.9537 12.7991 14.4953 12.7991 15.0578 12.7777C15.6203 12.7564 16.2245 12.7564 16.8703 12.735C17.5162 12.7136 18.1412 12.7136 18.7662 12.7136C20.4745 12.7136 21.8912 12.9273 23.0578 13.376C24.1036 13.7403 25.0573 14.3388 25.8495 15.1282C26.5208 15.8189 27.0395 16.6497 27.3703 17.564C27.6857 18.4545 27.8478 19.3944 27.8495 20.3418C27.8495 22.1794 27.4328 23.6965 26.5995 24.8931C25.7623 26.0881 24.5934 26.9965 23.2453 27.4999C21.8287 28.0341 20.2662 28.2264 18.5578 28.2264C18.0578 28.2264 17.7245 28.2264 17.5162 28.2051C17.3078 28.1837 17.0162 28.1837 16.6203 28.1837V35.0427C16.625 35.0778 16.6227 35.1136 16.6136 35.1478C16.6045 35.1821 16.5888 35.2141 16.5675 35.242C16.5461 35.2699 16.5195 35.2931 16.4892 35.3103C16.4589 35.3274 16.4256 35.3381 16.3912 35.3418H12.3495C12.1828 35.3418 12.0995 35.2564 12.0995 35.0641ZM16.6412 16.9658V24.1452C16.9328 24.1666 17.2037 24.188 17.4537 24.188H18.5578C19.3711 24.189 20.1795 24.0592 20.9537 23.8034C21.6178 23.603 22.2112 23.2097 22.662 22.6709C23.0995 22.1367 23.3078 21.4102 23.3078 20.47C23.3274 19.8023 23.1612 19.1427 22.8287 18.5683C22.4813 18.0135 21.9704 17.5869 21.3703 17.3504C20.5882 17.0362 19.7514 16.8907 18.912 16.923C18.3703 16.923 17.8912 16.923 17.4953 16.9444C17.2105 16.9253 16.9247 16.9324 16.6412 16.9658ZM30.7662 18.2051H34.412C34.5107 18.2075 34.6062 18.2419 34.6848 18.3033C34.7633 18.3647 34.821 18.45 34.8495 18.547C34.9131 18.7189 34.9551 18.8984 34.9745 19.0811C35.0162 19.2948 35.0578 19.5299 35.0787 19.7435C35.0995 19.9572 35.1203 20.235 35.1203 20.5128C35.7459 19.7638 36.5018 19.1406 37.3495 18.6752C38.3179 18.1234 39.4084 17.8365 40.5162 17.8418C40.5504 17.8371 40.5853 17.8394 40.6187 17.8487C40.6521 17.858 40.6833 17.8741 40.7105 17.896C40.7377 17.918 40.7603 17.9453 40.777 17.9763C40.7938 18.0074 40.8042 18.0416 40.8078 18.0769V22.329C40.8078 22.4999 40.7037 22.564 40.4745 22.564C39.7187 22.5387 38.9629 22.6105 38.2245 22.7777C37.6227 22.9052 37.036 23.0986 36.4745 23.3546C36.0714 23.5411 35.7098 23.8101 35.412 24.1452V35.0427C35.412 35.2564 35.3287 35.3418 35.1412 35.3418H31.037C30.9986 35.3485 30.9592 35.347 30.9213 35.3376C30.8835 35.3282 30.8479 35.3109 30.8167 35.287C30.7855 35.263 30.7594 35.2327 30.74 35.1981C30.7206 35.1635 30.7082 35.1251 30.7037 35.0854V23.1623C30.7037 22.6495 30.7037 22.1153 30.6828 21.5598C30.662 21.0042 30.662 20.4487 30.6412 19.8931C30.6412 19.4017 30.5995 18.9316 30.5578 18.4401C30.5523 18.4149 30.5517 18.3887 30.556 18.3632C30.5604 18.3377 30.5696 18.3134 30.5831 18.2915C30.5967 18.2697 30.6143 18.2508 30.635 18.236C30.6557 18.2211 30.679 18.2106 30.7037 18.2051C30.7037 18.1837 30.7453 18.1837 30.7662 18.2051Z" fill="#9999FF"/>
</g>
<defs>
<clipPath id="clip0_134_3383">
<rect width="50" height="50" fill="white" transform="translate(0.224487)"/>
</clipPath>
</defs>
</svg>
