<svg width="63" height="48" viewBox="0 0 63 48" fill="none" xmlns="http://www.w3.org/2000/svg">
<path d="M0.473324 0.426872C0.280552 0.660954 0.0877802 0.97765 0.0464718 1.14288C0.00516354 1.30812 -0.0086059 8.59215 0.00516354 17.322L0.0464718 33.2119L0.555941 33.6801L1.07918 34.1482H31.1654C57.6027 34.1482 61.3205 34.1207 61.6647 33.9417C62.5459 33.4873 62.4909 34.7265 62.4909 17.0741C62.4909 2.40967 62.4771 0.991417 62.2706 0.688492C62.1329 0.49572 61.9401 0.261639 61.8299 0.165253C61.6509 0.0413284 55.3308 1.90735e-05 31.2205 1.90735e-05H0.83133L0.473324 0.426872ZM60.5631 16.1791V30.1551H31.3031H2.04304V16.1791V2.20313H31.3031H60.5631V16.1791ZM34.0983 31.835C34.3186 32.0553 34.3048 32.2893 34.0432 32.551C33.8642 32.73 33.4236 32.7713 31.3031 32.7713C29.9124 32.7713 28.6869 32.73 28.563 32.6887C28.3014 32.5923 28.26 31.8625 28.5217 31.7661C28.6043 31.7248 29.8711 31.6835 31.3169 31.6835C33.1757 31.6697 33.9744 31.711 34.0983 31.835Z" fill="white"/>
<path d="M32.8865 5.50777C31.3857 5.90709 29.9812 6.65064 28.8796 7.68335C27.723 8.75736 26.9795 9.9553 26.4149 11.6765C26.0569 12.8193 26.0018 13.1636 26.0018 14.5681C26.0018 18.5474 27.8469 21.8383 30.9588 23.3667C32.6249 24.1929 33.6852 24.4132 35.7093 24.3444C37.1964 24.2893 37.4718 24.2342 38.4356 23.8349C40.088 23.1327 41.5613 21.6318 42.1258 20.0621C42.4701 19.112 42.5665 19.4838 42.4701 21.3013C42.415 22.2789 42.3462 23.2428 42.3462 23.4769C42.3186 23.89 42.3324 23.89 43.0071 23.89H43.6956L43.668 23.2703C43.668 22.9261 43.5992 20.9984 43.5441 18.9605L43.4477 15.2841H44.3565C45.2515 15.2841 45.279 15.2703 45.279 14.9398V14.5956H40.322C36.3289 14.5956 35.365 14.6369 35.365 14.7746C35.365 14.9398 36.563 16.661 36.6731 16.661C36.7007 16.661 37.1826 16.4407 37.7472 16.1653C38.8625 15.6421 40.4322 15.2978 41.7541 15.2841H42.5527L42.4563 16.1929C42.2222 18.3547 41.4236 20.2411 40.2257 21.4528C39.1103 22.5681 38.532 22.7884 36.5355 22.7884C35.0346 22.7884 34.8143 22.7609 34.1258 22.4304C32.68 21.7419 31.2893 19.828 30.7523 17.7901C30.229 15.7247 30.2841 12.4889 30.89 10.3959C31.3444 8.85375 31.8125 7.9725 32.6387 7.14634C34.2497 5.52155 36.921 5.52155 38.2566 7.13257C38.8625 7.86235 39.4683 9.18421 39.7437 10.3959C39.8677 10.9605 40.0467 11.4149 40.1155 11.3873C40.1981 11.3598 41.0105 11.1257 41.9468 10.8779C43.1448 10.5474 43.6267 10.3546 43.6267 10.2032C43.6267 9.81761 42.4976 8.26166 41.5888 7.42173C40.6112 6.49917 39.3031 5.79693 37.9124 5.43893C36.7282 5.136 34.2084 5.17731 32.8865 5.50777Z" fill="white"/>
<path d="M49.5476 5.45271C48.088 5.85202 46.9176 6.85719 46.5045 8.08267C46.2567 8.82622 46.3944 10.4235 46.7799 11.1946C47.2205 12.1033 48.6939 13.5216 50.6216 14.8848C55.4271 18.2721 55.9779 18.7264 56.5975 19.6765C57.4099 20.9709 56.9418 22.637 55.5511 23.3667C55.0003 23.6559 53.4856 23.6834 52.7145 23.4356C50.9521 22.8435 49.2997 20.8607 48.6526 18.5199C48.2808 17.1567 48.1706 16.9502 47.909 17.0466C47.372 17.2669 45.2791 18.4786 45.2791 18.5612C45.2791 18.9468 46.7111 20.9984 47.6061 21.8796C49.341 23.6284 51.1311 24.3719 53.6096 24.3719C56.3084 24.3719 58.0846 23.3943 59.0072 21.4115C59.3239 20.723 59.379 20.4063 59.379 19.4838C59.379 18.5474 59.3101 18.2445 58.9521 17.4597C58.1948 15.8349 56.8316 14.6232 52.4392 11.704C51.2688 10.9192 49.9744 9.95532 49.5889 9.556C48.8729 8.83999 48.8591 8.81245 48.8591 8.01383C48.8591 7.0362 49.162 6.56804 50.0157 6.18249C50.718 5.86579 52.0261 5.83825 52.8936 6.14118C54.119 6.55427 55.2757 8.0689 55.8815 10.0517C56.033 10.5474 56.1844 10.7953 56.3084 10.7677C56.8867 10.6576 58.9108 9.70747 58.9108 9.556C58.9108 9.30815 57.7404 7.91744 56.8041 7.06373C55.9366 6.27888 54.9314 5.7281 53.8023 5.43894C52.8522 5.17732 50.5252 5.19109 49.5476 5.45271Z" fill="white"/>
<path d="M8.98279 5.67302C8.8864 5.82448 10.1945 7.5732 10.401 7.5732C10.5112 7.5732 10.9518 7.3942 11.3924 7.17389C12.3976 6.66442 13.6506 6.33395 14.5732 6.33395H15.2892L15.2066 14.6232C15.1653 19.1946 15.1102 23.1464 15.0964 23.4081L15.0551 23.89H17.2582C19.3925 23.89 19.4613 23.8762 19.4063 23.6146C19.3787 23.4631 19.3236 19.5113 19.2961 14.8297L19.2273 6.33395H19.9708C20.8934 6.33395 21.8848 6.59557 23.0552 7.14635C23.5646 7.38043 24.0328 7.5732 24.1292 7.5732C24.2944 7.55943 25.451 6.00349 25.451 5.78318C25.451 5.63171 9.07918 5.52156 8.98279 5.67302Z" fill="white"/>
<path d="M3.80549 6.98112C3.91565 8.50952 3.94319 20.4063 3.83303 22.513L3.76418 23.89H5.96729H8.1704L8.10156 21.7557C7.9914 18.5474 8.01894 9.69369 8.1291 7.53189L8.23925 5.64548H5.96729H3.70911L3.80549 6.98112Z" fill="white"/>
<path d="M27.7918 37.5768V40.0415L17.5198 42.0794L7.24784 44.1173L6.50429 45.2188C5.74697 46.3479 5.60928 46.8023 5.93974 47.0639C6.06367 47.1741 9.46472 46.7197 18.4286 45.3703C25.2032 44.3514 30.9726 43.5114 31.2342 43.5114C31.4958 43.5114 37.2239 44.3514 43.9709 45.3703C55.0416 47.0364 56.2533 47.1879 56.5424 47.0089C56.7077 46.8987 56.8454 46.7335 56.8454 46.6371C56.8454 46.5407 56.4874 45.9349 56.0605 45.2877L55.2619 44.1311L45.4856 42.1758C40.1155 41.1156 35.5027 40.193 35.2686 40.1517L34.8143 40.0553V37.5906V35.1121H33.8504H32.8865V36.5579C32.8865 38.0037 32.8865 38.0037 32.4321 38.4994C31.8538 39.1328 31.1103 39.2567 30.4356 38.8298C29.7884 38.4305 29.5819 37.8247 29.5819 36.3513V35.1121H28.6869H27.7918V37.5768Z" fill="white"/>
</svg>
