<svg width="1440" height="227" viewBox="0 0 1440 227" fill="none" xmlns="http://www.w3.org/2000/svg">
<path d="M0 74.6086C2.69082 104.829 39.1203 163.968 163.312 158.759C318.551 152.247 315.446 104.161 404.243 101.657C493.04 99.1524 506.701 239.904 663.182 224.877C819.664 209.85 845.123 149.242 817.801 122.193C810.015 114.486 709.133 28.0254 840.155 14.0004C971.177 -0.0246313 1016.54 62.8365 1061.22 104.662C1095.99 137.22 1207.14 224.877 1295.32 206.344C1365.86 191.517 1421.16 112.343 1440 74.6086" stroke="#E0E1DD" stroke-dasharray="2 2"/>
<path d="M848.5 23.25V20.75L849.75 19.5H843.5V0.75H868.5V19.5H862.25L863.5 20.75V23.25H848.5Z" fill="#E0E1DD"/>
<path d="M386 87.75C386 86.7554 386.395 85.8016 387.098 85.0983C387.802 84.3951 388.755 84 389.75 84H401C401.995 84 402.948 84.3951 403.652 85.0983C404.355 85.8016 404.75 86.7554 404.75 87.75V110.25C404.75 111.245 404.355 112.198 403.652 112.902C402.948 113.605 401.995 114 401 114H389.75C388.755 114 387.802 113.605 387.098 112.902C386.395 112.198 386 111.245 386 110.25V87.75ZM397.25 108.375C397.25 107.878 397.052 107.401 396.701 107.049C396.349 106.698 395.872 106.5 395.375 106.5C394.878 106.5 394.401 106.698 394.049 107.049C393.698 107.401 393.5 107.878 393.5 108.375C393.5 108.872 393.698 109.349 394.049 109.701C394.401 110.052 394.878 110.25 395.375 110.25C395.872 110.25 396.349 110.052 396.701 109.701C397.052 109.349 397.25 108.872 397.25 108.375Z" fill="#E0E1DD"/>
<path d="M76.8438 142C76.073 142 75.3337 142.316 74.7887 142.879C74.2437 143.441 73.9375 144.204 73.9375 145V162H101.062V145C101.062 144.204 100.756 143.441 100.211 142.879C99.6663 142.316 98.927 142 98.1562 142H76.8438ZM72 163H103C103 163.796 102.694 164.559 102.149 165.121C101.604 165.684 100.865 166 100.094 166H74.9062C74.1355 166 73.3962 165.684 72.8512 165.121C72.3062 164.559 72 163.796 72 163Z" fill="#E0E1DD"/>
<path d="M1318.75 181.75C1318.75 180.755 1319.15 179.802 1319.85 179.098C1320.55 178.395 1321.51 178 1322.5 178H1337.5C1338.49 178 1339.45 178.395 1340.15 179.098C1340.85 179.802 1341.25 180.755 1341.25 181.75V204.25C1341.25 205.245 1340.85 206.198 1340.15 206.902C1339.45 207.605 1338.49 208 1337.5 208H1322.5C1321.51 208 1320.55 207.605 1319.85 206.902C1319.15 206.198 1318.75 205.245 1318.75 204.25V181.75ZM1331.88 202.375C1331.88 201.878 1331.68 201.401 1331.33 201.049C1330.97 200.698 1330.5 200.5 1330 200.5C1329.5 200.5 1329.03 200.698 1328.67 201.049C1328.32 201.401 1328.12 201.878 1328.12 202.375C1328.12 202.872 1328.32 203.349 1328.67 203.701C1329.03 204.052 1329.5 204.25 1330 204.25C1330.5 204.25 1330.97 204.052 1331.33 203.701C1331.68 203.349 1331.88 202.872 1331.88 202.375Z" fill="#E0E1DD"/>
</svg>
