<svg width="394" height="293" viewBox="0 0 394 293" fill="none" xmlns="http://www.w3.org/2000/svg">
<path d="M393.109 257.472H0.0983019C0.0440112 257.472 0 257.516 0 257.57C0 257.625 0.0440041 257.669 0.0982947 257.669H393.109C393.163 257.669 393.207 257.625 393.207 257.57C393.207 257.516 393.163 257.472 393.109 257.472Z" fill="#EBEBEB"/>
<path d="M67.2031 264.959H41.3537C41.2994 264.959 41.2554 265.003 41.2554 265.057C41.2554 265.111 41.2994 265.155 41.3537 265.155H67.2031C67.2574 265.155 67.3014 265.111 67.3014 265.057C67.3014 265.003 67.2574 264.959 67.2031 264.959Z" fill="#EBEBEB"/>
<path d="M171.253 262.828H134.685C134.631 262.828 134.587 262.872 134.587 262.926C134.587 262.98 134.631 263.024 134.685 263.024H171.253C171.308 263.024 171.352 262.98 171.352 262.926C171.352 262.872 171.308 262.828 171.253 262.828Z" fill="#EBEBEB"/>
<path d="M103.701 271.038H88.8058C88.7515 271.038 88.7075 271.082 88.7075 271.136C88.7075 271.19 88.7515 271.234 88.8058 271.234H103.701C103.755 271.234 103.799 271.19 103.799 271.136C103.799 271.082 103.755 271.038 103.701 271.038Z" fill="#EBEBEB"/>
<path d="M269.28 267.625H245.719C245.665 267.625 245.621 267.669 245.621 267.723C245.621 267.777 245.665 267.821 245.719 267.821H269.28C269.335 267.821 269.379 267.777 269.379 267.723C269.379 267.669 269.335 267.625 269.28 267.625Z" fill="#EBEBEB"/>
<path d="M291.473 267.625H276.476C276.422 267.625 276.378 267.669 276.378 267.723C276.378 267.777 276.422 267.821 276.476 267.821H291.473C291.527 267.821 291.571 267.777 291.571 267.723C291.571 267.669 291.527 267.625 291.473 267.625Z" fill="#EBEBEB"/>
<path d="M353.718 270.943H307.862C307.808 270.943 307.764 270.987 307.764 271.042C307.764 271.096 307.808 271.14 307.862 271.14H353.718C353.772 271.14 353.816 271.096 353.816 271.042C353.816 270.987 353.772 270.943 353.718 270.943Z" fill="#EBEBEB"/>
<path d="M186.38 222.398H34.5314C33.3418 222.396 32.2017 221.922 31.3613 221.08C30.5208 220.238 30.0488 219.097 30.0488 217.908V4.45111C30.0592 3.26836 30.5358 2.13746 31.3751 1.30405C32.2144 0.470636 33.3486 0.00202611 34.5314 0H186.38C187.571 0 188.713 0.473097 189.555 1.31522C190.398 2.15733 190.871 3.29949 190.871 4.49043V217.908C190.871 219.099 190.398 220.241 189.555 221.083C188.713 221.925 187.571 222.398 186.38 222.398ZM34.5314 0.157284C33.394 0.159367 32.3038 0.612668 31.5003 1.41769C30.6967 2.22271 30.2454 3.31368 30.2454 4.45111V217.908C30.2454 219.045 30.6967 220.136 31.5003 220.941C32.3038 221.746 33.394 222.199 34.5314 222.201H186.38C187.518 222.199 188.609 221.746 189.414 220.942C190.219 220.137 190.672 219.046 190.674 217.908V4.45111C190.672 3.31295 190.219 2.22201 189.414 1.41721C188.609 0.612413 187.518 0.159362 186.38 0.157284H34.5314Z" fill="#EBEBEB"/>
<path d="M356.49 222.398H204.633C203.443 222.396 202.302 221.922 201.46 221.081C200.618 220.239 200.145 219.098 200.143 217.908V4.45111C200.155 3.26764 200.633 2.13675 201.474 1.30356C202.314 0.470361 203.449 0.00200401 204.633 0H356.49C357.671 0.00409289 358.803 0.473618 359.641 1.30681C360.479 2.14 360.954 3.26972 360.964 4.45111V217.908C360.964 219.096 360.493 220.236 359.655 221.077C358.816 221.919 357.678 222.394 356.49 222.398ZM204.633 0.157284C203.495 0.159362 202.404 0.612413 201.599 1.41721C200.794 2.22201 200.341 3.31295 200.339 4.45111V217.908C200.341 219.046 200.794 220.137 201.599 220.942C202.404 221.746 203.495 222.199 204.633 222.201H356.49C357.628 222.199 358.719 221.746 359.524 220.942C360.328 220.137 360.781 219.046 360.783 217.908V4.45111C360.781 3.31295 360.328 2.22201 359.524 1.41721C358.719 0.612413 357.628 0.159362 356.49 0.157284H204.633Z" fill="#EBEBEB"/>
<path d="M80.3923 149.592L247.504 149.592C253.027 149.592 257.504 145.115 257.504 139.592V42.5025C257.504 36.9797 253.027 32.5025 247.504 32.5025L80.3923 32.5025C74.8694 32.5025 70.3923 36.9797 70.3923 42.5025V139.592C70.3923 145.115 74.8694 149.592 80.3923 149.592Z" fill="#F0F0F0"/>
<path d="M253.839 134.087V48.0074C253.839 42.4846 249.362 38.0074 243.839 38.0074L84.0488 38.0074C78.5259 38.0074 74.0488 42.4846 74.0488 48.0074V134.087C74.0488 139.61 78.5259 144.087 84.0488 144.087H243.839C249.362 144.087 253.839 139.61 253.839 134.087Z" fill="#FAFAFA"/>
<path d="M222.207 144.087C226.368 144.087 229.523 140.336 228.81 136.237L212.691 43.558C212.133 40.3496 209.349 38.0074 206.092 38.0074V38.0074C201.934 38.0074 198.781 41.7563 199.493 45.853L215.605 138.533C216.163 141.743 218.949 144.087 222.207 144.087V144.087Z" fill="white"/>
<path d="M209.872 144.087C211.731 144.087 213.141 142.411 212.823 140.579L195.423 40.4891C195.173 39.0546 193.928 38.0074 192.472 38.0074V38.0074C190.613 38.0074 189.203 39.6834 189.522 41.5149L206.922 141.605C207.171 143.04 208.416 144.087 209.872 144.087V144.087Z" fill="white"/>
<path d="M175.712 144.087C179.87 144.087 183.024 140.338 182.311 136.242L166.199 43.5583C165.641 40.3498 162.856 38.0074 159.6 38.0074V38.0074C155.442 38.0074 152.288 41.7562 153.001 45.8527L169.113 138.536C169.671 141.745 172.456 144.087 175.712 144.087V144.087Z" fill="white"/>
<path d="M145.831 144.087C147.692 144.087 149.104 142.409 148.785 140.575L131.378 40.489C131.128 39.0546 129.883 38.0074 128.427 38.0074V38.0074C126.568 38.0074 125.159 39.6835 125.477 41.515L142.877 141.602C143.126 143.038 144.373 144.087 145.831 144.087V144.087Z" fill="white"/>
<path d="M206.599 143.623V38.4714C206.599 38.2151 206.391 38.0074 206.135 38.0074C205.878 38.0074 205.671 38.2151 205.671 38.4714V143.623C205.671 143.879 205.878 144.087 206.135 144.087C206.391 144.087 206.599 143.879 206.599 143.623Z" fill="#E0E0E0"/>
<path d="M253.839 143.631V38.4793C253.839 38.223 253.631 38.0153 253.375 38.0153C253.119 38.0153 252.911 38.223 252.911 38.4793V143.631C252.911 143.887 253.119 144.095 253.375 144.095C253.631 144.095 253.839 143.887 253.839 143.631Z" fill="#E0E0E0"/>
<path d="M210.264 142.255V39.8398C210.264 38.8278 209.443 38.0074 208.431 38.0074C207.419 38.0074 206.599 38.8278 206.599 39.8398V142.255C206.599 143.267 207.419 144.087 208.431 144.087C209.443 144.087 210.264 143.267 210.264 142.255Z" fill="#F0F0F0"/>
<path d="M161.215 143.623V38.4714C161.215 38.2151 161.007 38.0074 160.751 38.0074C160.495 38.0074 160.287 38.2151 160.287 38.4714V143.623C160.287 143.879 160.495 144.087 160.751 144.087C161.007 144.087 161.215 143.879 161.215 143.623Z" fill="#E0E0E0"/>
<path d="M164.872 142.255V39.8398C164.872 38.8278 164.052 38.0074 163.04 38.0074C162.028 38.0074 161.207 38.8278 161.207 39.8398V142.255C161.207 143.267 162.028 144.087 163.04 144.087C164.052 144.087 164.872 143.267 164.872 142.255Z" fill="#F0F0F0"/>
<path d="M115.8 143.623V38.4714C115.8 38.2151 115.592 38.0074 115.336 38.0074C115.08 38.0074 114.872 38.2151 114.872 38.4714V143.623C114.872 143.879 115.08 144.087 115.336 144.087C115.592 144.087 115.8 143.879 115.8 143.623Z" fill="#E0E0E0"/>
<path d="M119.464 142.262V39.8476C119.464 38.8357 118.643 38.0153 117.632 38.0153C116.62 38.0153 115.799 38.8357 115.799 39.8476V142.262C115.799 143.274 116.62 144.095 117.632 144.095C118.643 144.095 119.464 143.274 119.464 142.262Z" fill="#F0F0F0"/>
<path d="M70.3843 149.128L70.3843 32.9665C70.3843 32.7102 70.1765 32.5025 69.9203 32.5025C69.664 32.5025 69.4563 32.7102 69.4563 32.9665V149.128C69.4563 149.384 69.664 149.592 69.9203 149.592C70.1765 149.592 70.3843 149.384 70.3843 149.128Z" fill="#E0E0E0"/>
<path d="M51.3767 24.4654H265.808C266.132 24.4654 266.443 24.3372 266.673 24.1088C266.903 23.8805 267.033 23.5704 267.035 23.2464C267.035 22.9211 266.906 22.609 266.676 22.3789C266.446 22.1489 266.134 22.0196 265.808 22.0196H51.3767C51.0527 22.0217 50.7426 22.1519 50.5143 22.3817C50.2859 22.6116 50.1577 22.9224 50.1577 23.2464C50.1598 23.5691 50.2889 23.8779 50.517 24.1061C50.7452 24.3342 51.054 24.4633 51.3767 24.4654Z" fill="#E0E0E0"/>
<g opacity="0.6">
<path d="M191.449 233.306H252.812C258.334 233.306 262.812 228.828 262.812 223.306V29.6604C262.812 24.1375 258.334 19.6604 252.812 19.6604H191.449C185.926 19.6604 181.449 24.1375 181.449 29.6604L181.449 223.306C181.449 228.828 185.926 233.306 191.449 233.306Z" fill="#F5F5F5"/>
<path d="M230.952 231.643C230.936 233.521 232.454 235.051 234.332 235.051V235.051C236.21 235.051 237.727 233.52 237.711 231.642L235.844 22.9316C235.836 22.087 235.149 21.4062 234.305 21.4062V21.4062C233.46 21.4062 232.773 22.0872 232.766 22.932L230.952 231.643Z" fill="#E6E6E6"/>
<path d="M245.974 233.404C245.97 234.313 246.705 235.051 247.614 235.051V235.051C248.523 235.051 249.259 234.313 249.255 233.404L248.337 22.1415C248.335 21.7349 248.005 21.4062 247.599 21.4062V21.4062C247.192 21.4062 246.862 21.7349 246.86 22.1416L245.974 233.404Z" fill="#E6E6E6"/>
<path d="M211.159 233.408C211.155 234.315 211.889 235.051 212.796 235.051V235.051C213.702 235.051 214.436 234.314 214.432 233.408L213.523 22.1415C213.521 21.7349 213.191 21.4062 212.784 21.4062V21.4062C212.378 21.4062 212.047 21.7349 212.046 22.1415L211.159 233.408Z" fill="#E6E6E6"/>
<path d="M194.408 233.408C194.404 234.315 195.138 235.051 196.045 235.051V235.051C196.952 235.051 197.685 234.314 197.682 233.408L196.772 22.1415C196.77 21.7349 196.44 21.4062 196.033 21.4062V21.4062C195.627 21.4062 195.297 21.7349 195.295 22.1416L194.408 233.408Z" fill="#E6E6E6"/>
</g>
<g opacity="0.6">
<path d="M65.5756 233.306H86.2568C91.7797 233.306 96.2568 228.828 96.2568 223.306L96.2568 29.6604C96.2568 24.1375 91.7797 19.6604 86.2568 19.6604H65.5756C60.0528 19.6604 55.5756 24.1375 55.5756 29.6604L55.5756 223.306C55.5756 228.828 60.0527 233.306 65.5756 233.306Z" fill="#F5F5F5"/>
<path d="M80.3238 233.349C80.3197 234.288 81.0798 235.051 82.0189 235.051V235.051C82.958 235.051 83.7182 234.288 83.714 233.349L82.7734 22.169C82.7715 21.7472 82.4291 21.4062 82.0072 21.4062V21.4062C81.5854 21.4062 81.2429 21.7472 81.2411 22.1691L80.3238 233.349Z" fill="#E6E6E6"/>
<path d="M87.8362 234.23C87.8352 234.683 88.2027 235.051 88.6563 235.051V235.051C89.1099 235.051 89.4773 234.683 89.4763 234.23L89.0227 21.7758C89.0223 21.5716 88.8566 21.4062 88.6523 21.4062V21.4062C88.4481 21.4062 88.2824 21.5716 88.282 21.7758L87.8362 234.23Z" fill="#E6E6E6"/>
<path d="M70.4329 234.23C70.4319 234.683 70.7994 235.051 71.2529 235.051V235.051C71.7065 235.051 72.074 234.683 72.073 234.23L71.6116 21.7719C71.6111 21.5698 71.4472 21.4062 71.2451 21.4062V21.4062C71.043 21.4062 70.8791 21.5698 70.8786 21.7719L70.4329 234.23Z" fill="#E6E6E6"/>
<path d="M62.0574 234.23C62.0564 234.683 62.4239 235.051 62.8774 235.051V235.051C63.331 235.051 63.6985 234.683 63.6975 234.23L63.2361 21.7758C63.2356 21.5716 63.0699 21.4062 62.8657 21.4062V21.4062C62.6614 21.4062 62.4957 21.5716 62.4953 21.7759L62.0574 234.23Z" fill="#E6E6E6"/>
</g>
<path d="M327.946 52.6898H293.975C288.452 52.6898 283.975 57.1669 283.975 62.6898V110.054C283.975 115.577 288.452 120.054 293.975 120.054H327.946C333.469 120.054 337.946 115.577 337.946 110.054V62.6898C337.946 57.1669 333.469 52.6898 327.946 52.6898Z" fill="#E6E6E6"/>
<path d="M330.321 52.6898H294.784C289.261 52.6898 284.784 57.1669 284.784 62.6898V110.054C284.784 115.577 289.261 120.054 294.784 120.054H330.321C335.844 120.054 340.321 115.577 340.321 110.054V62.6898C340.321 57.1669 335.844 52.6898 330.321 52.6898Z" fill="#F5F5F5"/>
<path d="M336.066 105.273V67.4712C336.066 61.9483 331.589 57.4712 326.066 57.4712H299.047C293.524 57.4712 289.047 61.9483 289.047 67.4712V105.273C289.047 110.796 293.524 115.273 299.047 115.273H326.066C331.589 115.273 336.066 110.796 336.066 105.273Z" fill="#FAFAFA"/>
<path d="M336.066 115.052V57.6914C336.066 57.5698 335.968 57.4712 335.846 57.4712C335.725 57.4712 335.626 57.5698 335.626 57.6914V115.052C335.626 115.174 335.725 115.273 335.846 115.273C335.968 115.273 336.066 115.174 336.066 115.052Z" fill="#E6E6E6"/>
<path d="M328.109 82.5738C330.762 79.9203 330.762 75.6182 328.109 72.9647C325.455 70.3113 321.153 70.3113 318.5 72.9647C315.846 75.6182 315.846 79.9203 318.5 82.5738C321.153 85.2272 325.455 85.2273 328.109 82.5738Z" fill="#F0F0F0"/>
<path d="M322.216 97.7254C327.609 92.3324 327.609 83.5888 322.216 78.1959C316.823 72.803 308.08 72.8029 302.687 78.1959C297.294 83.5888 297.294 92.3325 302.687 97.7254C308.08 103.118 316.823 103.118 322.216 97.7254Z" fill="white"/>
<path d="M308.859 79.3198C309.721 75.6676 307.459 72.0081 303.807 71.1461C300.155 70.2841 296.495 72.546 295.633 76.1982C294.771 79.8505 297.033 83.51 300.685 84.372C304.337 85.234 307.997 82.9721 308.859 79.3198Z" fill="#F0F0F0"/>
<path d="M282.37 248.735V180.915C282.37 178.878 280.718 177.226 278.681 177.226C276.644 177.226 274.993 178.878 274.993 180.915V248.735C274.993 250.772 276.644 252.423 278.681 252.423C280.718 252.423 282.37 250.772 282.37 248.735Z" fill="#F0F0F0"/>
<path d="M349.451 172.728H275.449C274.207 172.728 273.2 173.735 273.2 174.977C273.2 176.219 274.207 177.226 275.449 177.226H349.451C350.693 177.226 351.7 176.219 351.7 174.977C351.7 173.735 350.693 172.728 349.451 172.728Z" fill="#F0F0F0"/>
<path d="M344.371 252.423H280.522C279.128 252.423 277.998 253.554 277.998 254.948C277.998 256.342 279.128 257.472 280.522 257.472H344.371C345.766 257.472 346.896 256.342 346.896 254.948C346.896 253.554 345.766 252.423 344.371 252.423Z" fill="#F0F0F0"/>
<path d="M339.907 177.226H292.37C286.847 177.226 282.37 181.704 282.37 187.226V242.423C282.37 247.946 286.847 252.423 292.37 252.423H339.907C345.43 252.423 349.907 247.946 349.907 242.423V187.226C349.907 181.704 345.43 177.226 339.907 177.226Z" fill="#FAFAFA"/>
<path d="M298.52 208.675H333.75C339.273 208.675 343.75 204.198 343.75 198.675V195.602C343.75 190.079 339.273 185.602 333.75 185.602H298.52C292.997 185.602 288.52 190.079 288.52 195.602V198.675C288.52 204.198 292.997 208.675 298.52 208.675Z" fill="#F0F0F0"/>
<path d="M298.52 242.609H333.75C339.273 242.609 343.75 238.132 343.75 232.609V229.536C343.75 224.013 339.273 219.536 333.75 219.536H298.52C292.997 219.536 288.52 224.013 288.52 229.536V232.609C288.52 238.132 292.997 242.609 298.52 242.609Z" fill="#F0F0F0"/>
<path d="M322.43 184.241H309.839C309.049 184.241 308.408 184.882 308.408 185.673V186.396C308.408 187.186 309.049 187.827 309.839 187.827H322.43C323.22 187.827 323.861 187.186 323.861 186.396V185.673C323.861 184.882 323.22 184.241 322.43 184.241Z" fill="#FAFAFA"/>
<path d="M322.43 218.183H309.839C309.049 218.183 308.408 218.824 308.408 219.614V220.338C308.408 221.128 309.049 221.769 309.839 221.769H322.43C323.22 221.769 323.861 221.128 323.861 220.338V219.614C323.861 218.824 323.22 218.183 322.43 218.183Z" fill="#FAFAFA"/>
<path d="M150.654 257.245C159.897 255.745 166.173 247.035 164.673 237.792C163.173 228.549 154.463 222.272 145.22 223.773C135.977 225.273 129.701 233.982 131.201 243.226C132.701 252.469 141.411 258.745 150.654 257.245Z" fill="#EBEBEB"/>
<path d="M125.282 257.195C136.819 255.322 144.653 244.452 142.781 232.915C140.908 221.379 130.037 213.544 118.501 215.417C106.964 217.29 99.1299 228.16 101.003 239.697C102.875 251.234 113.746 259.068 125.282 257.195Z" fill="#F5F5F5"/>
<path d="M196.603 292.987C280.815 292.987 349.081 289.001 349.081 284.084C349.081 279.168 280.815 275.182 196.603 275.182C112.392 275.182 44.1255 279.168 44.1255 284.084C44.1255 289.001 112.392 292.987 196.603 292.987Z" fill="#F5F5F5"/>
<path d="M99.5679 112.096C94.3697 112.096 91.924 106.866 91.8218 106.646C91.7328 106.401 91.739 106.132 91.8394 105.891C91.9397 105.651 92.1267 105.457 92.3633 105.348C92.6 105.239 92.8689 105.223 93.1167 105.303V105.303C93.5985 105.459 93.8008 106.028 94.0669 106.458C94.8211 107.679 96.7332 110.111 99.7252 110.027C99.9852 110.042 100.23 110.154 100.412 110.341C100.593 110.528 100.698 110.776 100.705 111.036C100.711 111.296 100.62 111.55 100.449 111.746C100.278 111.942 100.039 112.067 99.7803 112.096H99.5679Z" fill="#407BFF"/>
<path d="M167.506 39.4702C167.054 39.4722 166.602 39.4433 166.154 39.3837C166.02 39.3635 165.891 39.3171 165.774 39.2472C165.658 39.1772 165.557 39.085 165.476 38.9758C165.395 38.8666 165.337 38.7426 165.304 38.6109C165.271 38.4791 165.265 38.3422 165.285 38.208C165.305 38.0737 165.351 37.9447 165.421 37.8284C165.491 37.7121 165.584 37.6107 165.693 37.53C165.802 37.4493 165.926 37.3909 166.058 37.3581V37.3581C166.32 37.2929 166.593 37.3573 166.862 37.3743C168.056 37.4494 171.599 37.428 173.318 34.6337C173.389 34.5181 173.482 34.4175 173.591 34.3377C173.701 34.2579 173.825 34.2005 173.957 34.1687C174.089 34.1369 174.226 34.1314 174.36 34.1525C174.493 34.1736 174.622 34.2209 174.738 34.2916C174.853 34.3624 174.954 34.4552 175.034 34.5648C175.113 34.6744 175.171 34.7987 175.203 34.9305C175.234 35.0623 175.24 35.1991 175.219 35.333C175.198 35.467 175.15 35.5954 175.08 35.7111C173.011 38.9826 169.433 39.4702 167.506 39.4702Z" fill="#407BFF"/>
<path opacity="0.6" d="M167.506 39.4702C167.054 39.4722 166.602 39.4433 166.154 39.3837C166.02 39.3635 165.891 39.3171 165.774 39.2472C165.658 39.1772 165.557 39.085 165.476 38.9758C165.395 38.8666 165.337 38.7426 165.304 38.6109C165.271 38.4791 165.265 38.3422 165.285 38.208C165.305 38.0737 165.351 37.9447 165.421 37.8284C165.491 37.7121 165.584 37.6107 165.693 37.53C165.802 37.4493 165.926 37.3909 166.058 37.3581V37.3581C166.32 37.2929 166.593 37.3573 166.862 37.3743C168.056 37.4494 171.599 37.428 173.318 34.6337C173.389 34.5181 173.482 34.4175 173.591 34.3377C173.701 34.2579 173.825 34.2005 173.957 34.1687C174.089 34.1369 174.226 34.1314 174.36 34.1525C174.493 34.1736 174.622 34.2209 174.738 34.2916C174.853 34.3624 174.954 34.4552 175.034 34.5648C175.113 34.6744 175.171 34.7987 175.203 34.9305C175.234 35.0623 175.24 35.1991 175.219 35.333C175.198 35.467 175.15 35.5954 175.08 35.7111C173.011 38.9826 169.433 39.4702 167.506 39.4702Z" fill="white"/>
<path d="M50.8022 78.8538C48.8069 78.7859 46.8693 78.1681 45.2029 77.0686C45.0853 76.9933 44.9843 76.8949 44.906 76.7793C44.8276 76.6638 44.7736 76.5335 44.7472 76.3964C44.7207 76.2593 44.7224 76.1182 44.7522 75.9818C44.7819 75.8454 44.839 75.7165 44.9201 75.6028C45.0012 75.4892 45.1046 75.3932 45.2239 75.3207C45.3433 75.2482 45.4761 75.2008 45.6143 75.1812C45.7526 75.1616 45.8933 75.1704 46.0281 75.2069V75.2069C46.289 75.2776 46.5214 75.4698 46.7576 75.6012C47.8109 76.1872 50.9882 77.7009 53.7434 75.9441C53.8578 75.8608 53.9881 75.8019 54.1262 75.7708C54.2643 75.7398 54.4073 75.7373 54.5464 75.7636C54.6854 75.7898 54.8177 75.8442 54.935 75.9234C55.0523 76.0027 55.1521 76.105 55.2284 76.2243C55.3046 76.3435 55.3557 76.4771 55.3784 76.6168C55.4012 76.7565 55.3951 76.8993 55.3606 77.0366C55.3262 77.1739 55.264 77.3026 55.1779 77.415C55.0918 77.5273 54.9836 77.6209 54.8601 77.6899C53.6486 78.4624 52.2389 78.8667 50.8022 78.8538Z" fill="#407BFF"/>
<path opacity="0.6" d="M50.8022 78.8538C48.8069 78.7859 46.8693 78.1681 45.2029 77.0686C45.0853 76.9933 44.9843 76.8949 44.906 76.7793C44.8276 76.6638 44.7736 76.5335 44.7472 76.3964C44.7207 76.2593 44.7224 76.1182 44.7522 75.9818C44.7819 75.8454 44.839 75.7165 44.9201 75.6028C45.0012 75.4892 45.1046 75.3932 45.2239 75.3207C45.3433 75.2482 45.4761 75.2008 45.6143 75.1812C45.7526 75.1616 45.8933 75.1704 46.0281 75.2069V75.2069C46.289 75.2776 46.5214 75.4698 46.7576 75.6012C47.8109 76.1872 50.9882 77.7009 53.7434 75.9441C53.8578 75.8608 53.9881 75.8019 54.1262 75.7708C54.2643 75.7398 54.4073 75.7373 54.5464 75.7636C54.6854 75.7898 54.8177 75.8442 54.935 75.9234C55.0523 76.0027 55.1521 76.105 55.2284 76.2243C55.3046 76.3435 55.3557 76.4771 55.3784 76.6168C55.4012 76.7565 55.3951 76.8993 55.3606 77.0366C55.3262 77.1739 55.264 77.3026 55.1779 77.415C55.0918 77.5273 54.9836 77.6209 54.8601 77.6899C53.6486 78.4624 52.2389 78.8667 50.8022 78.8538Z" fill="white"/>
<path d="M320.566 51.2742C318.574 51.2205 316.635 50.6222 314.959 49.5441C314.733 49.3887 314.579 49.1502 314.53 48.8811C314.48 48.6119 314.54 48.3342 314.695 48.1089C314.851 47.8837 315.089 47.7294 315.358 47.68V47.68C315.877 47.5847 316.368 47.9993 316.839 48.2367C318.136 48.89 320.985 49.983 323.483 48.396C323.597 48.3232 323.725 48.2735 323.858 48.2499C323.991 48.2263 324.128 48.2292 324.26 48.2584C324.392 48.2877 324.518 48.3426 324.628 48.4202C324.739 48.4978 324.834 48.5964 324.907 48.7105C324.98 48.8246 325.029 48.952 325.053 49.0853C325.076 49.2186 325.073 49.3552 325.044 49.4874C325.015 49.6196 324.96 49.7447 324.883 49.8556C324.805 49.9666 324.706 50.0611 324.592 50.1339C323.389 50.8964 321.99 51.2926 320.566 51.2742Z" fill="#407BFF"/>
<path opacity="0.6" d="M320.566 51.2742C318.574 51.2205 316.635 50.6222 314.959 49.5441C314.733 49.3887 314.579 49.1502 314.53 48.8811C314.48 48.6119 314.54 48.3342 314.695 48.1089C314.851 47.8837 315.089 47.7294 315.358 47.68V47.68C315.877 47.5847 316.368 47.9993 316.839 48.2367C318.136 48.89 320.985 49.983 323.483 48.396C323.597 48.3232 323.725 48.2735 323.858 48.2499C323.991 48.2263 324.128 48.2292 324.26 48.2584C324.392 48.2877 324.518 48.3426 324.628 48.4202C324.739 48.4978 324.834 48.5964 324.907 48.7105C324.98 48.8246 325.029 48.952 325.053 49.0853C325.076 49.2186 325.073 49.3552 325.044 49.4874C325.015 49.6196 324.96 49.7447 324.883 49.8556C324.805 49.9666 324.706 50.0611 324.592 50.1339C323.389 50.8964 321.99 51.2926 320.566 51.2742Z" fill="white"/>
<path d="M194.094 132.503C189.274 132.503 186.647 127.832 186.529 127.619C186.397 127.38 186.365 127.097 186.441 126.834C186.517 126.57 186.694 126.348 186.934 126.216C187.174 126.083 187.457 126.051 187.72 126.127V126.127C188.231 126.275 188.461 126.873 188.774 127.303C189.626 128.472 191.687 130.703 194.629 130.403C194.892 130.394 195.149 130.485 195.347 130.658C195.545 130.831 195.671 131.073 195.698 131.334C195.725 131.596 195.651 131.858 195.492 132.068C195.333 132.277 195.101 132.419 194.841 132.464C194.606 132.487 194.346 132.503 194.094 132.503Z" fill="#407BFF"/>
<path opacity="0.6" d="M194.094 132.503C189.274 132.503 186.647 127.832 186.529 127.619C186.397 127.38 186.365 127.097 186.441 126.834C186.517 126.57 186.694 126.348 186.934 126.216C187.174 126.083 187.457 126.051 187.72 126.127V126.127C188.231 126.275 188.461 126.873 188.774 127.303C189.626 128.472 191.687 130.703 194.629 130.403C194.892 130.394 195.149 130.485 195.347 130.658C195.545 130.831 195.671 131.073 195.698 131.334C195.725 131.596 195.651 131.858 195.492 132.068C195.333 132.277 195.101 132.419 194.841 132.464C194.606 132.487 194.346 132.503 194.094 132.503Z" fill="white"/>
<path d="M62.1265 153.508C61.876 153.506 61.635 153.413 61.4483 153.246C61.2616 153.079 61.1422 152.85 61.1123 152.601C61.0825 152.352 61.1442 152.101 61.286 151.895V151.895C61.5654 151.488 62.1259 151.425 62.5867 151.249C63.9143 150.74 66.697 149.321 67.1753 146.344C67.197 146.21 67.2448 146.082 67.316 145.967C67.3872 145.851 67.4804 145.751 67.5903 145.672C67.7002 145.593 67.8247 145.536 67.9565 145.505C68.0884 145.474 68.2251 145.469 68.3588 145.491C68.4926 145.512 68.6207 145.56 68.736 145.631C68.8512 145.703 68.9513 145.796 69.0306 145.906C69.1098 146.016 69.1666 146.14 69.1978 146.272C69.2289 146.404 69.2338 146.54 69.2121 146.674C68.3706 151.951 62.6219 153.422 62.3781 153.485C62.2952 153.5 62.2109 153.508 62.1265 153.508Z" fill="#407BFF"/>
<path opacity="0.6" d="M62.1265 153.508C61.876 153.506 61.635 153.413 61.4483 153.246C61.2616 153.079 61.1422 152.85 61.1123 152.601C61.0825 152.352 61.1442 152.101 61.286 151.895V151.895C61.5654 151.488 62.1259 151.425 62.5867 151.249C63.9143 150.74 66.697 149.321 67.1753 146.344C67.197 146.21 67.2448 146.082 67.316 145.967C67.3872 145.851 67.4804 145.751 67.5903 145.672C67.7002 145.593 67.8247 145.536 67.9565 145.505C68.0884 145.474 68.2251 145.469 68.3588 145.491C68.4926 145.512 68.6207 145.56 68.736 145.631C68.8512 145.703 68.9513 145.796 69.0306 145.906C69.1098 146.016 69.1666 146.14 69.1978 146.272C69.2289 146.404 69.2338 146.54 69.2121 146.674C68.3706 151.951 62.6219 153.422 62.3781 153.485C62.2952 153.5 62.2109 153.508 62.1265 153.508Z" fill="black"/>
<path d="M291.76 81.8265C291.502 81.8353 291.251 81.7474 291.056 81.5802C290.86 81.4131 290.734 81.1787 290.702 80.9232C290.671 80.6677 290.736 80.4096 290.885 80.1999V80.1999C291.179 79.7862 291.758 79.7347 292.232 79.5526C293.567 79.0394 296.325 77.6249 296.801 74.6622C296.814 74.5204 296.856 74.3829 296.924 74.258C296.992 74.1331 297.086 74.0237 297.198 73.9364C297.311 73.8492 297.44 73.786 297.578 73.7508C297.716 73.7156 297.859 73.7092 298 73.7319C298.141 73.7546 298.275 73.8059 298.395 73.8827C298.515 73.9596 298.617 74.0602 298.697 74.1785C298.776 74.2967 298.83 74.43 298.856 74.57C298.881 74.7101 298.878 74.8539 298.845 74.9925C297.996 80.2694 292.247 81.7399 292.004 81.795C291.924 81.817 291.842 81.8276 291.76 81.8265Z" fill="#407BFF"/>
<path opacity="0.6" d="M291.76 81.8265C291.502 81.8353 291.251 81.7474 291.056 81.5802C290.86 81.4131 290.734 81.1787 290.702 80.9232C290.671 80.6677 290.736 80.4096 290.885 80.1999V80.1999C291.179 79.7862 291.758 79.7347 292.232 79.5526C293.567 79.0394 296.325 77.6249 296.801 74.6622C296.814 74.5204 296.856 74.3829 296.924 74.258C296.992 74.1331 297.086 74.0237 297.198 73.9364C297.311 73.8492 297.44 73.786 297.578 73.7508C297.716 73.7156 297.859 73.7092 298 73.7319C298.141 73.7546 298.275 73.8059 298.395 73.8827C298.515 73.9596 298.617 74.0602 298.697 74.1785C298.776 74.2967 298.83 74.43 298.856 74.57C298.881 74.7101 298.878 74.8539 298.845 74.9925C297.996 80.2694 292.247 81.7399 292.004 81.795C291.924 81.817 291.842 81.8276 291.76 81.8265Z" fill="black"/>
<path d="M334.021 121.049C334.017 121.041 334.009 121.037 334 121.037H333.866C333.849 121.037 333.836 121.036 333.819 121.033C333.36 120.946 327.73 119.818 326.551 114.746C326.519 114.612 326.515 114.474 326.538 114.339C326.561 114.204 326.61 114.075 326.683 113.959C326.756 113.844 326.852 113.744 326.964 113.666C327.076 113.587 327.203 113.532 327.337 113.503C327.47 113.473 327.608 113.469 327.743 113.493C327.877 113.516 328.006 113.565 328.122 113.638C328.237 113.712 328.337 113.807 328.416 113.918C328.494 114.03 328.55 114.156 328.58 114.29C329.26 117.213 332.121 118.416 333.483 118.827C333.962 118.971 334.531 119.005 334.828 119.407V119.407C334.979 119.61 335.05 119.862 335.027 120.114C335.005 120.367 334.891 120.602 334.708 120.776C334.527 120.947 334.292 121.048 334.044 121.06C334.035 121.061 334.026 121.056 334.021 121.049V121.049Z" fill="#407BFF"/>
<path d="M315.58 158.95C313.779 158.978 312.028 158.362 310.641 157.212C310.526 157.13 310.428 157.024 310.356 156.902C310.283 156.78 310.236 156.644 310.218 156.503C310.2 156.362 310.212 156.219 310.252 156.083C310.292 155.947 310.36 155.82 310.451 155.711C310.543 155.603 310.656 155.514 310.783 155.451C310.91 155.388 311.049 155.352 311.191 155.345C311.333 155.338 311.475 155.361 311.608 155.411C311.74 155.462 311.861 155.54 311.962 155.639C315.006 158.172 319.276 156.048 319.323 156.025C319.567 155.9 319.851 155.876 320.112 155.961C320.373 156.045 320.59 156.229 320.715 156.473C320.84 156.717 320.863 157.001 320.779 157.262C320.695 157.523 320.511 157.74 320.267 157.865C318.802 158.562 317.202 158.932 315.58 158.95Z" fill="#407BFF"/>
<path d="M267.381 29.8838C267.201 29.8851 267.025 29.839 266.87 29.7501C266.657 29.6321 261.522 26.6595 262.151 21.3512C262.182 21.079 262.32 20.8304 262.535 20.66C262.75 20.4897 263.023 20.4116 263.295 20.4429C263.567 20.4741 263.816 20.6123 263.986 20.8269C264.157 21.0414 264.235 21.3149 264.204 21.5871C263.755 25.5192 267.876 27.9335 267.915 27.957C268.116 28.0702 268.272 28.2471 268.36 28.4596C268.448 28.672 268.463 28.9078 268.401 29.1295C268.34 29.3511 268.206 29.5457 268.021 29.6824C267.836 29.8191 267.611 29.89 267.381 29.8838Z" fill="#407BFF"/>
<path d="M62.0115 34.0546C61.9785 34.0683 61.9433 34.0766 61.9075 34.0762C61.7904 34.075 61.6743 34.0538 61.564 34.0135C61.4369 33.967 61.3201 33.8958 61.2204 33.8042C61.1208 33.7125 61.0401 33.6022 60.9831 33.4794C60.9261 33.3565 60.8938 33.2237 60.8881 33.0884C60.8824 32.9531 60.9035 32.818 60.95 32.6909C60.9965 32.5637 61.0676 32.447 61.1593 32.3473C61.2509 32.2476 61.3613 32.1669 61.4841 32.1099C61.6069 32.0529 61.7398 32.0206 61.8751 32.0149C64.8303 31.7549 66.4529 29.1405 67.0767 27.8375C67.3028 27.3653 67.426 26.7635 67.8966 26.5341V26.5341C68.1366 26.417 68.4128 26.3978 68.6667 26.4804C68.9207 26.563 69.1326 26.741 69.2579 26.9769C69.3832 27.2128 69.4119 27.488 69.3381 27.7447C69.2676 27.9878 67.3915 33.577 62.1047 34.032C62.0729 34.0347 62.0409 34.0423 62.0115 34.0546V34.0546Z" fill="#407BFF"/>
<path d="M140.543 62.0991C139.143 63.9598 137.396 65.7466 136.272 67.7863C134.686 70.6668 133.689 75.5773 134.241 81.7871C135.044 90.7994 116.374 84.4767 113.834 94.5742C109.249 112.851 139.99 123.837 153.092 112.851C161.2 106.056 168.82 83.6588 167.703 71.4379C166.597 59.2698 149.037 50.8103 140.543 62.0991Z" fill="#263238"/>
<path d="M168.511 89.5535C168.331 88.8249 168.759 88.0916 169.472 87.8583V87.8583L170.825 87.4021C171.729 87.0876 172.626 86.7415 173.514 86.3719C175.285 85.6451 177.013 84.818 178.689 83.8947C181.974 82.1419 184.931 79.8322 187.426 77.0686C189.652 74.4263 191.248 70.8245 192.499 67.1284C193.136 65.2724 193.67 63.3614 194.126 61.419C194.461 59.9944 194.783 58.5445 195.061 57.1188C195.232 56.2423 196.02 55.6173 196.911 55.6719V55.6719C197.835 55.7285 198.558 56.4933 198.533 57.418C198.432 61.1182 197.979 64.8017 197.178 68.4181C196.71 70.5457 196.076 72.6334 195.282 74.6622C194.46 76.8037 193.357 78.8267 192.003 80.6783C189.233 84.2298 185.798 87.2081 181.89 89.4468C180.007 90.56 178.052 91.5478 176.039 92.4037C175.032 92.8284 174.018 93.1901 172.98 93.5755C172.469 93.7564 171.95 93.9294 171.407 94.0867V94.0867C170.488 94.3529 169.555 93.7987 169.326 92.87L168.511 89.5535Z" fill="#7F3E3B"/>
<path d="M197.284 57.1715C198.06 56.9725 198.671 56.374 198.886 55.6018L198.97 55.3012C199.41 53.7181 198.144 52.1783 196.506 52.3045V52.3045C195.379 52.3913 194.46 53.2739 194.626 54.3918C194.721 55.0359 194.909 55.7617 195.266 56.4396C195.641 57.1521 196.504 57.3714 197.284 57.1715V57.1715Z" fill="#7F3E3B"/>
<path d="M200.163 50.0258C200.404 48.328 198.838 46.9323 197.179 47.3659V47.3659C196.343 47.5845 195.688 48.2361 195.466 49.0716L195.439 49.1756C195.013 50.7778 196.297 52.3207 197.949 52.1933V52.1933C199.075 52.1066 199.989 51.2496 200.147 50.1322L200.163 50.0258Z" fill="#7F3E3B"/>
<path d="M162.182 89.4783C163.095 88.6476 164.531 87.8893 165.974 87.265C168.798 86.042 171.985 87.2774 173.69 89.8403V89.8403C175.87 93.1165 175.016 97.6673 171.346 99.0886C169.558 99.7811 167.774 100.186 166.578 99.7488C163.15 98.5535 159.902 91.5465 162.182 89.4783Z" fill="#407BFF"/>
<path d="M142.647 232.85C141.121 233.937 140.888 236.114 142.15 237.5V237.5C143.215 238.669 144.986 238.859 146.274 237.941L153.312 232.928C154.838 231.841 155.071 229.664 153.81 228.278V228.278C152.745 227.108 150.974 226.919 149.685 227.836L142.647 232.85Z" fill="#7F3E3B"/>
<path d="M117.888 250.306C116.813 251.883 117.378 254.045 119.087 254.894V254.894C120.493 255.592 122.199 255.146 123.083 253.849L127.867 246.834C128.941 245.257 128.376 243.095 126.667 242.246V242.246C125.261 241.548 123.556 241.994 122.671 243.291L117.888 250.306Z" fill="#7F3E3B"/>
<path d="M122.445 255.412L118.056 249.789C117.983 249.691 117.876 249.623 117.755 249.599C117.635 249.574 117.51 249.594 117.404 249.655L112.457 252.486C112.335 252.561 112.23 252.661 112.149 252.779C112.068 252.898 112.013 253.032 111.988 253.173C111.962 253.314 111.967 253.459 112.002 253.599C112.037 253.738 112.101 253.868 112.19 253.98C113.763 255.915 114.604 256.772 116.539 259.249C117.718 260.767 120.125 264.306 121.76 266.406C123.396 268.506 125.567 267.004 125.071 265.981C122.854 261.396 122.712 258.675 122.791 256.489C122.807 256.1 122.684 255.719 122.445 255.412Z" fill="#263238"/>
<path d="M145.283 239.636L142.389 232.684C142.338 232.56 142.247 232.456 142.13 232.389C142.013 232.322 141.877 232.296 141.744 232.315L135.61 233.101C135.464 233.117 135.324 233.167 135.201 233.247C135.078 233.327 134.976 233.436 134.903 233.563C134.83 233.69 134.788 233.833 134.781 233.98C134.774 234.127 134.802 234.273 134.863 234.407C135.917 236.821 136.554 237.945 137.828 241.005C138.614 242.884 140.439 247.823 141.516 250.442C142.593 253.06 145.361 252.439 145.157 251.291C144.237 246.148 144.551 242.829 145.314 240.808C145.387 240.62 145.421 240.42 145.416 240.219C145.41 240.018 145.365 239.82 145.283 239.636Z" fill="#263238"/>
<path opacity="0.2" d="M153.802 228.279C155.064 229.664 154.831 231.84 153.305 232.928L151.954 233.891C150.758 234.743 149.131 234.648 148.042 233.663V233.663C146.563 232.324 146.701 229.96 148.326 228.802L149.677 227.838C150.965 226.92 152.737 227.109 153.802 228.279V228.279Z" fill="black"/>
<path opacity="0.2" d="M122.671 243.287C123.556 241.992 125.26 241.547 126.665 242.245V242.245C128.375 243.094 128.94 245.258 127.864 246.835L127.129 247.911C126.243 249.208 124.536 249.653 123.13 248.953V248.953C121.421 248.102 120.858 245.938 121.935 244.362L122.671 243.287Z" fill="black"/>
<path d="M164.078 89.0933C168.125 89.6917 170.573 92.9392 170.227 97.0152C169.87 101.213 169.271 108.023 168.266 119.071C167.822 123.954 163.898 127.816 159.007 128.158L152.173 128.637C146.501 129.034 141.769 124.626 141.577 118.944C141.407 113.922 140.947 108.238 139.438 99.9574C138.43 94.4287 141.91 88.9281 147.519 88.5731C147.785 88.5562 148.051 88.5408 148.318 88.5267C152.215 88.2668 156.126 88.2878 160.02 88.5896C161.365 88.718 162.758 88.8982 164.078 89.0933Z" fill="#407BFF"/>
<path d="M140.683 93.166C139.917 94.81 137.963 95.5281 136.37 94.663C135.565 94.2262 134.776 93.777 133.974 93.316C132.236 92.3172 130.592 91.2477 128.956 90.1153C125.627 87.8549 122.532 85.2679 119.716 82.3927L118.678 81.2681L118.411 80.985C118.257 80.8088 118.113 80.6251 117.978 80.4345C117.735 80.0877 117.524 79.7191 117.349 79.3335C116.828 78.1046 116.561 76.7833 116.563 75.4486C116.58 73.3242 116.865 71.2104 117.412 69.1573C118.273 65.8421 119.423 62.6098 120.848 59.4972C121.233 58.6568 122.21 58.2778 123.071 58.6118V58.6118C123.916 58.9388 124.379 59.8463 124.162 60.7252C123.842 62.0245 123.536 63.344 123.255 64.6433C122.862 66.4599 122.531 68.2923 122.311 70.0853C122.056 71.7713 121.987 73.4802 122.107 75.1813C122.144 75.7416 122.281 76.2906 122.511 76.8024C122.534 76.8536 122.551 76.921 122.59 76.9614V76.9614C122.628 77.0008 122.67 77.0251 122.71 77.0626L122.893 77.2338L123.86 78.1539C126.56 80.5987 129.453 82.821 132.511 84.7991C134.045 85.8136 135.657 86.7416 137.229 87.6774C137.875 88.0617 138.541 88.438 139.208 88.802C140.766 89.6528 141.432 91.5568 140.683 93.166V93.166Z" fill="#7F3E3B"/>
<path d="M147.484 91.3499C146.27 89.6584 144.569 88.6815 142.996 88.1174C140.489 87.2184 137.943 88.6635 136.452 90.8696V90.8696C133.947 94.574 134.849 99.8539 139.086 101.283C140.547 101.775 141.939 102.005 142.931 101.652C146.422 100.409 149.285 93.8507 147.484 91.3499Z" fill="#407BFF"/>
<path d="M161.35 89.662C160.63 88.7751 159.436 88.5865 158.294 88.5803L150.288 88.5373C148.987 88.5303 147.39 88.7726 147.242 90.0645C147.069 91.5692 148.306 93.9128 153.216 96.2287C155.779 97.4378 159.009 97.2889 160.89 95.1696C162.962 92.8361 162.301 90.8349 161.35 89.662Z" fill="white"/>
<path d="M155.427 80.4154C153.481 78.7412 150.312 80.5093 150.164 83.072C150.091 84.3327 149.9 85.5308 149.535 86.5417C149.044 87.9042 148.604 89.3977 149.433 90.585C149.923 91.2857 150.617 92.1473 151.595 93.1412C154.627 96.2223 162.032 93.4806 160.479 89.4466V89.4466C159.78 87.6314 158.753 88.6221 157.387 87.2373C156.328 86.1641 156.169 84.6952 156.372 83.1594C156.507 82.1384 156.208 81.0871 155.427 80.4154V80.4154Z" fill="#7F3E3B"/>
<path d="M173.798 112.756H173.672C173.258 112.722 172.873 112.525 172.604 112.208C172.334 111.891 172.201 111.48 172.233 111.065C172.516 107.558 169.874 104.908 166.838 101.833C163.355 98.3176 159.399 94.3304 159.242 88.1256C159.231 87.7085 159.387 87.3043 159.675 87.002C159.962 86.6996 160.358 86.5239 160.775 86.5135C161.192 86.503 161.597 86.6588 161.899 86.9463C162.201 87.2339 162.377 87.6299 162.387 88.047C162.513 93.0014 165.848 96.3673 169.072 99.623C172.296 102.879 175.764 106.37 175.363 111.317C175.33 111.709 175.15 112.075 174.861 112.341C174.571 112.607 174.192 112.756 173.798 112.756Z" fill="#263238"/>
<path d="M150.811 120.715C150.684 120.714 150.557 120.698 150.434 120.667C150.029 120.567 149.681 120.31 149.466 119.953C149.25 119.597 149.186 119.169 149.285 118.764C150.803 112.599 148.814 107.755 146.706 102.659C144.819 98.0816 142.868 93.3474 143.812 87.8111C143.893 87.4102 144.128 87.0568 144.466 86.8259C144.803 86.595 145.218 86.5048 145.621 86.5744C146.024 86.6439 146.384 86.8679 146.625 87.1986C146.866 87.5293 146.968 87.9408 146.91 88.3458C146.124 92.9857 147.815 97.1065 149.608 101.463C151.715 106.567 154.098 112.355 152.337 119.551C152.246 119.886 152.048 120.182 151.772 120.392C151.496 120.603 151.158 120.716 150.811 120.715Z" fill="#263238"/>
<path opacity="0.2" d="M155.831 80.7252C155.443 80.3991 154.937 80.2478 154.434 80.307L154.314 80.3211C153.101 80.4636 152.238 81.6262 152.815 82.7021C152.866 82.7967 152.919 82.8902 152.974 82.9825C153.319 83.5028 153.9 83.8602 154.583 84.0818C155.517 84.3845 156.332 83.5499 156.496 82.5825V82.5825C156.609 81.9092 156.405 81.2062 155.882 80.7672L155.831 80.7252Z" fill="black"/>
<path d="M142.585 71.5637C144.889 77.4304 145.73 79.9627 149.749 82.0545C155.789 85.2002 162.489 81.103 161.986 74.6701C161.537 68.8742 157.849 60.2551 151.22 59.7675C149.76 59.6537 148.295 59.9148 146.964 60.526C145.633 61.1373 144.481 62.0783 143.616 63.26C142.751 64.4416 142.202 65.8247 142.022 67.2779C141.841 68.7312 142.035 70.2064 142.585 71.5637Z" fill="#7F3E3B"/>
<path d="M148.9 58.9182C153.375 61.6706 149.545 77.8629 141.972 77.0057C134.399 76.1485 142.287 54.8524 148.9 58.9182Z" fill="#263238"/>
<path d="M148.735 58.9811C146.417 60.521 146.78 62.8441 150.921 63.3975C155.634 64.0273 157.404 58.7031 152.701 58.005C151.475 57.8229 150.133 58.0507 148.735 58.9811Z" fill="#263238"/>
<path d="M143.403 77.2652C143.9 78.3766 144.815 79.247 145.95 79.6874C147.468 80.2536 148.357 78.901 148.058 77.4304C147.783 76.0856 146.666 74.1589 145.093 74.2375C144.75 74.2607 144.417 74.3694 144.126 74.5536C143.835 74.7379 143.595 74.9919 143.427 75.2927C143.259 75.5935 143.168 75.9315 143.164 76.2759C143.16 76.6204 143.242 76.9605 143.403 77.2652Z" fill="#7F3E3B"/>
<path d="M160.282 128.07C164.512 127.774 168.379 130.421 169.561 134.493C173.441 147.861 181.538 177.183 182.378 191.822C183.264 207.332 165.702 225.074 157.623 232.377C155.436 234.354 152.121 234.096 150.136 231.917V231.917C148.003 229.577 148.213 225.923 150.466 223.7C157.259 216.997 169.604 203.03 167.169 192.105C164.05 178.158 156.641 154.065 152.192 139.993C150.404 134.34 154.367 128.484 160.282 128.07V128.07Z" fill="#263238"/>
<path opacity="0.2" d="M158.927 142.27C157.786 138.705 155.377 140.545 154.211 144.026C153.969 144.751 153.981 145.43 154.206 146.16V146.16C155.582 150.625 160.756 150.047 159.774 145.478C159.539 144.382 159.258 143.308 158.927 142.27Z" fill="black"/>
<path d="M145.954 225.583C144.999 226.498 144.97 228.016 145.891 228.965L152.447 235.73C153.157 236.462 154.269 236.628 155.162 236.135V236.135C156.443 235.427 156.723 233.707 155.733 232.629L149.359 225.692C148.455 224.709 146.919 224.659 145.954 225.583V225.583Z" fill="#407BFF"/>
<path d="M149.013 128.851C155.149 128.427 160.203 133.574 159.605 139.695C158.163 154.469 155.502 180.009 152.84 196.612C150.284 212.513 135.85 236.496 130.246 245.353C128.978 247.356 126.436 248.06 124.287 247.061V247.061C121.946 245.971 120.878 243.231 121.852 240.839C125.791 231.155 135.123 207.549 136.899 196.981C143.241 159.351 136.573 145.086 139.712 134.04C140.595 130.935 143.694 129.218 146.914 128.995L149.013 128.851Z" fill="#263238"/>
<path d="M120.157 243.359C119.801 244.41 120.28 245.562 121.276 246.051L126.856 248.789C127.804 249.254 128.947 249.001 129.609 248.179V248.179C130.527 247.04 130.136 245.343 128.814 244.719L123.192 242.069C121.998 241.506 120.58 242.109 120.157 243.359V243.359Z" fill="#407BFF"/>
<path d="M141.287 127.887L140.289 130.246C140.21 130.427 140.43 130.6 140.729 130.576L167.703 128.689C167.931 128.689 168.12 128.547 168.12 128.398L168.191 126.039C168.191 125.881 167.986 125.763 167.734 125.779L141.688 127.604C141.601 127.607 141.517 127.635 141.446 127.685C141.374 127.736 141.319 127.806 141.287 127.887Z" fill="white"/>
<path d="M144.984 130.545L144.292 130.592C144.15 130.592 144.04 130.537 144.04 130.45L144.158 127.439C144.158 127.352 144.284 127.265 144.418 127.258L145.117 127.21C145.259 127.21 145.369 127.265 145.361 127.352L145.243 130.364C145.243 130.466 145.125 130.545 144.984 130.545Z" fill="#263238"/>
<path d="M165.76 129.098L165.061 129.145C164.919 129.145 164.809 129.09 164.817 129.003L164.935 125.991C164.935 125.905 165.053 125.826 165.194 125.811L165.886 125.763C166.028 125.763 166.138 125.818 166.138 125.905L166.02 128.925C166.012 129.011 165.934 129.09 165.76 129.098Z" fill="#263238"/>
<path d="M155.372 129.829L154.672 129.876C154.539 129.876 154.429 129.821 154.429 129.735L154.547 126.715C154.547 126.629 154.665 126.55 154.806 126.542L155.506 126.495C155.64 126.495 155.75 126.55 155.75 126.636L155.632 129.648C155.632 129.758 155.514 129.813 155.372 129.829Z" fill="#263238"/>
<path d="M152.062 69.3618C151.847 69.4333 151.704 69.6473 151.655 69.9256C151.585 70.3175 152.022 70.5377 152.401 70.4164V70.4164C152.782 70.2945 153.009 69.86 152.728 69.5752C152.523 69.3675 152.278 69.2716 152.062 69.3618Z" fill="#263238"/>
<path d="M158.069 67.4587C157.844 67.5324 157.696 67.7599 157.651 68.0528C157.592 68.4331 158.012 68.6444 158.379 68.5258V68.5258C158.767 68.4001 158.98 67.9449 158.681 67.6666C158.479 67.4782 158.257 67.3931 158.069 67.4587Z" fill="#263238"/>
<path d="M158.44 67.6158C158.189 67.6995 158.141 67.3654 158.361 67.2179V67.2179C158.629 67.0379 158.915 67.2852 158.664 67.4894C158.597 67.5439 158.523 67.5882 158.44 67.6158Z" fill="#263238"/>
<path d="M157.464 72.8319C157.264 72.21 158.229 71.6245 158.746 72.0232V72.0232C159.009 72.2256 159.075 72.6097 158.813 72.8131C158.721 72.8851 158.622 72.9498 158.518 73.0064C158.372 73.0862 158.218 73.1488 158.059 73.1934C157.798 73.2664 157.548 73.0894 157.464 72.8319V72.8319Z" fill="#630F0F"/>
<path d="M156.536 75.7317C156.572 75.7214 156.608 75.7048 156.626 75.6715C156.632 75.6617 156.636 75.6513 156.639 75.6404C156.647 75.6111 156.647 75.58 156.638 75.5509C156.625 75.5134 156.598 75.4824 156.563 75.4647C156.528 75.447 156.487 75.444 156.449 75.4565C155.848 75.6648 155.206 75.7292 154.575 75.6445C153.963 75.5624 153.379 75.3426 152.865 75.0019C152.832 74.9802 152.804 74.9513 152.767 74.9361V74.9361C152.749 74.9285 152.729 74.9246 152.71 74.9246C152.69 74.9246 152.67 74.9285 152.652 74.9361C152.634 74.9437 152.617 74.9549 152.604 74.9689C152.589 74.9822 152.576 74.9985 152.568 75.0168C152.56 75.0351 152.556 75.055 152.556 75.0751C152.556 75.0952 152.56 75.115 152.568 75.1333C152.576 75.1516 152.589 75.168 152.604 75.1813C153.166 75.584 153.817 75.8444 154.502 75.9403C155.187 76.0361 155.885 75.9646 156.536 75.7317V75.7317Z" fill="#263238"/>
<path d="M150.072 69.0079C150.112 68.9747 150.142 68.9311 150.159 68.8821C150.267 68.5161 150.462 68.1817 150.728 67.9078C150.993 67.6338 151.322 67.4285 151.684 67.3092C151.722 67.2999 151.758 67.2832 151.79 67.26C151.822 67.2368 151.849 67.2076 151.869 67.174C151.89 67.1404 151.903 67.1031 151.909 67.0642C151.915 67.0254 151.914 66.9857 151.904 66.9475C151.895 66.9093 151.878 66.8733 151.855 66.8415C151.832 66.8098 151.803 66.7829 151.769 66.7625C151.736 66.742 151.698 66.7284 151.659 66.7224C151.621 66.7163 151.581 66.718 151.543 66.7273C151.087 66.8709 150.672 67.1214 150.333 67.4579C149.993 67.7944 149.74 68.2073 149.592 68.6619C149.567 68.737 149.573 68.8189 149.609 68.8896C149.644 68.9604 149.706 69.0142 149.781 69.0393C149.828 69.0611 149.88 69.0697 149.931 69.0641C149.982 69.0586 150.031 69.0392 150.072 69.0079Z" fill="#263238"/>
<path d="M159.469 65.142C159.485 65.1302 159.503 65.1193 159.517 65.1046V65.1046C159.529 65.0922 159.538 65.0772 159.547 65.0629C159.565 65.0373 159.578 65.0091 159.587 64.9792C159.599 64.941 159.602 64.901 159.598 64.8614C159.593 64.8219 159.581 64.7836 159.562 64.7488C159.542 64.7141 159.516 64.6835 159.485 64.659C159.117 64.3547 158.682 64.1424 158.215 64.0398C157.749 63.9372 157.265 63.9473 156.803 64.0692C156.765 64.0816 156.73 64.1015 156.7 64.1277C156.669 64.154 156.645 64.186 156.627 64.2219C156.61 64.2579 156.599 64.297 156.597 64.3369C156.595 64.3769 156.601 64.4169 156.614 64.4546C156.641 64.5284 156.695 64.5891 156.765 64.6242C156.836 64.6593 156.917 64.6661 156.992 64.6433C157.358 64.5492 157.741 64.5445 158.109 64.6293C158.477 64.7142 158.819 64.8862 159.107 65.1309C159.162 65.1752 159.231 65.1988 159.301 65.1974C159.362 65.1961 159.42 65.1767 159.469 65.142Z" fill="#263238"/>
<path d="M127.989 60.3416C127.798 60.3411 127.611 60.2895 127.447 60.1922L103.524 45.4548C103.314 45.3003 103.17 45.0726 103.121 44.817C103.071 44.5613 103.119 44.2963 103.256 44.0745C103.392 43.8528 103.607 43.6905 103.858 43.6198C104.109 43.5492 104.377 43.5754 104.609 43.6932L128.532 58.4306C128.725 58.5476 128.874 58.7247 128.956 58.9347C129.039 59.1446 129.05 59.3758 128.989 59.5929C128.927 59.8099 128.796 60.0006 128.615 60.1359C128.435 60.2712 128.215 60.3434 127.989 60.3416Z" fill="#407BFF"/>
<path d="M108.942 47.0827C110.287 47.0276 111.671 46.9647 111.852 45.7536C112.033 44.5425 110.735 44.0785 109.493 43.6224L109.342 43.5662C109.229 43.5243 109.153 43.4151 109.117 43.3008V43.3008C109.087 43.2068 109.108 43.106 109.174 43.0325L109.343 42.8439C110.224 41.8687 111.144 40.8621 110.429 39.9027C109.713 38.9433 108.486 39.5095 107.283 40.0678L107.246 40.0853C107.04 40.1816 106.796 40.1648 106.599 40.0521V40.0521C106.489 39.9892 106.599 39.8005 106.599 39.6904C106.536 38.3534 106.473 36.9694 105.27 36.7885C104.066 36.6076 103.595 37.9052 103.138 39.1477C103.118 39.2008 103.098 39.2581 103.076 39.3174C103.038 39.4236 102.948 39.5018 102.838 39.5286V39.5286C102.726 39.556 102.607 39.5264 102.521 39.4495L102.36 39.305C101.385 38.4164 100.378 37.5041 99.4187 38.2119C98.4593 38.9197 99.0255 40.1543 99.5839 41.3575L99.6818 41.5668C99.7283 41.6661 99.7174 41.782 99.6599 41.8753V41.8753C99.6006 41.9714 99.4978 42.0339 99.3849 42.0339H99.2064C97.8695 42.0968 96.4775 42.1597 96.2967 43.3708C96.1158 44.5819 97.4212 45.0458 98.6559 45.502L98.8048 45.5574C98.9186 45.5997 98.9953 45.7103 99.0325 45.8259V45.8259C99.0623 45.9188 99.0427 46.0186 98.9785 46.0922C98.919 46.1605 98.8605 46.2253 98.8053 46.2805C97.9245 47.2557 97.0123 48.2544 97.7201 49.2217C98.4279 50.189 99.6625 49.607 100.866 49.0565L101.083 48.9569C101.183 48.9111 101.299 48.9181 101.393 48.9758V48.9758C101.491 49.0358 101.55 49.142 101.55 49.2564C101.55 49.3183 101.55 49.3782 101.55 49.434C101.613 50.7709 101.676 52.155 102.879 52.3359C104.057 52.5131 104.542 51.2718 104.99 50.0532C105.009 50.0025 105.016 49.9482 105.032 49.8968C105.041 49.8699 105.052 49.8418 105.065 49.8128C105.111 49.7067 105.208 49.6271 105.32 49.5994V49.5994C105.426 49.5732 105.54 49.5967 105.621 49.6698L105.797 49.8272C106.764 50.708 107.77 51.6281 108.738 50.9204C109.705 50.2126 109.123 48.9779 108.565 47.7747C108.537 47.7143 108.504 47.643 108.47 47.5671C108.424 47.4659 108.434 47.3492 108.492 47.2548V47.2548C108.552 47.157 108.657 47.0953 108.772 47.0902L108.942 47.0827Z" fill="#407BFF"/>
<path opacity="0.7" d="M108.942 47.0827C110.287 47.0276 111.671 46.9647 111.852 45.7536C112.033 44.5425 110.735 44.0785 109.493 43.6224L109.342 43.5662C109.229 43.5243 109.153 43.4151 109.117 43.3008V43.3008C109.087 43.2068 109.108 43.106 109.174 43.0325L109.343 42.8439C110.224 41.8687 111.144 40.8621 110.429 39.9027C109.713 38.9433 108.486 39.5095 107.283 40.0678L107.246 40.0853C107.04 40.1816 106.796 40.1648 106.599 40.0521V40.0521C106.489 39.9892 106.599 39.8005 106.599 39.6904C106.536 38.3534 106.473 36.9694 105.27 36.7885C104.066 36.6076 103.595 37.9052 103.138 39.1477C103.118 39.2008 103.098 39.2581 103.076 39.3174C103.038 39.4236 102.948 39.5018 102.838 39.5286V39.5286C102.726 39.556 102.607 39.5264 102.521 39.4495L102.36 39.305C101.385 38.4164 100.378 37.5041 99.4187 38.2119C98.4593 38.9197 99.0255 40.1543 99.5839 41.3575L99.6818 41.5668C99.7283 41.6661 99.7174 41.782 99.6599 41.8753V41.8753C99.6006 41.9714 99.4978 42.0339 99.3849 42.0339H99.2064C97.8695 42.0968 96.4775 42.1597 96.2967 43.3708C96.1158 44.5819 97.4212 45.0458 98.6559 45.502L98.8048 45.5574C98.9186 45.5997 98.9953 45.7103 99.0325 45.8259V45.8259C99.0623 45.9188 99.0427 46.0186 98.9785 46.0922C98.919 46.1605 98.8605 46.2253 98.8053 46.2805C97.9245 47.2557 97.0123 48.2544 97.7201 49.2217C98.4279 50.189 99.6625 49.607 100.866 49.0565L101.083 48.9569C101.183 48.9111 101.299 48.9181 101.393 48.9758V48.9758C101.491 49.0358 101.55 49.142 101.55 49.2564C101.55 49.3183 101.55 49.3782 101.55 49.434C101.613 50.7709 101.676 52.155 102.879 52.3359C104.057 52.5131 104.542 51.2718 104.99 50.0532C105.009 50.0025 105.016 49.9482 105.032 49.8968C105.041 49.8699 105.052 49.8418 105.065 49.8128C105.111 49.7067 105.208 49.6271 105.32 49.5994V49.5994C105.426 49.5732 105.54 49.5967 105.621 49.6698L105.797 49.8272C106.764 50.708 107.77 51.6281 108.738 50.9204C109.705 50.2126 109.123 48.9779 108.565 47.7747C108.537 47.7143 108.504 47.643 108.47 47.5671C108.424 47.4659 108.434 47.3492 108.492 47.2548V47.2548C108.552 47.157 108.657 47.0953 108.772 47.0902L108.942 47.0827Z" fill="white"/>
<path d="M122.059 61.0101C121.314 60.7537 120.772 60.1063 120.651 59.3278L120.614 59.0912C120.298 57.0739 122.384 55.5369 124.218 56.4356L124.409 56.5294C125.507 57.0674 126.142 58.3389 125.452 59.348C125.236 59.6632 124.988 59.9568 124.71 60.2236C124.387 60.5911 123.967 60.86 123.498 60.9991C123.029 61.1382 122.53 61.142 122.059 61.0101V61.0101Z" fill="#7F3E3B"/>
<path d="M122.165 52.3309C122.912 51.6927 124.015 51.7004 124.754 52.3488L126.044 53.482C126.487 53.8709 126.704 54.457 126.621 55.0405V55.0405C126.453 56.2114 125.195 56.8804 124.131 56.364L122.585 55.6142C121.302 54.9915 121.08 53.2568 122.165 52.3309V52.3309Z" fill="#7F3E3B"/>
<path d="M124.506 258.424C124.572 258.376 124.635 258.323 124.694 258.266C124.762 258.205 124.811 258.127 124.838 258.039C124.864 257.952 124.866 257.859 124.844 257.771C124.669 257.042 122.791 256.313 122.323 256.167C122.268 256.149 122.212 256.122 122.155 256.136V256.136C122.127 256.143 122.102 256.16 122.083 256.182C122.067 256.207 122.059 256.236 122.059 256.265V256.265C122.059 256.323 122.095 256.374 122.12 256.427C122.484 257.218 123.171 258.428 123.939 258.557C124.138 258.587 124.341 258.539 124.506 258.424ZM123.963 258.266C123.153 258.119 124.004 257.024 124.481 257.695C124.517 257.745 124.541 257.794 124.553 257.842C124.56 257.881 124.557 257.921 124.543 257.959V257.959C124.515 258.033 124.452 258.089 124.391 258.139C124.348 258.175 124.299 258.205 124.246 258.227C124.157 258.264 124.059 258.278 123.963 258.266V258.266Z" fill="#407BFF"/>
<path d="M124.739 256.389C124.851 256.348 124.966 256.3 125.04 256.206V256.206C125.116 256.113 125.158 255.996 125.158 255.876C125.158 255.871 125.158 255.867 125.158 255.862C125.152 255.633 124.996 255.425 124.807 255.295V255.295C124.711 255.23 124.603 255.187 124.489 255.168C123.585 255.003 122.13 256.12 122.075 256.167C122.055 256.184 122.039 256.206 122.029 256.23C122.02 256.255 122.016 256.282 122.02 256.308C122.024 256.333 122.034 256.357 122.049 256.377V256.377C122.079 256.418 122.13 256.435 122.179 256.45C123.016 256.713 123.917 256.691 124.739 256.389ZM122.545 256.207C122.546 256.206 122.547 256.206 122.548 256.205C123.03 255.812 123.612 255.564 124.226 255.487C124.369 255.469 124.524 255.461 124.644 255.543V255.543C124.704 255.584 124.753 255.639 124.788 255.703C124.89 255.868 124.843 255.954 124.788 256.009C124.511 256.34 123.273 256.408 122.549 256.241C122.532 256.238 122.529 256.215 122.545 256.207V256.207Z" fill="#407BFF"/>
<path d="M145.424 243.199C145.583 243.691 145.894 244.12 146.312 244.426C146.43 244.495 146.561 244.537 146.697 244.55C146.833 244.562 146.971 244.544 147.099 244.496C147.175 244.475 147.244 244.433 147.298 244.374C147.353 244.316 147.39 244.244 147.405 244.166C147.563 243.414 145.687 241.605 145.157 241.084C145.114 241.041 145.068 240.994 145.007 240.994V240.994C144.976 240.994 144.946 241.003 144.92 241.02C144.893 241.035 144.871 241.059 144.858 241.087C144.845 241.115 144.842 241.147 144.85 241.178C144.966 241.87 145.158 242.548 145.424 243.199ZM147.059 243.789C147.104 243.879 147.123 243.979 147.114 244.08C147.114 244.119 147.114 244.158 147.004 244.19C146.912 244.225 146.814 244.239 146.716 244.231C146.618 244.223 146.523 244.192 146.438 244.142V244.142C145.654 243.68 146.592 243.008 147.059 243.789V243.789Z" fill="#407BFF"/>
<path d="M144.865 241.21C144.874 241.225 144.879 241.243 144.879 241.26V241.26C144.88 241.273 144.886 241.284 144.895 241.293C145.552 241.947 147.457 242.984 148.074 242.625C148.208 242.546 148.349 242.373 148.239 241.996C147.838 240.549 145.093 241.005 144.96 241.028C144.932 241.032 144.906 241.043 144.885 241.062C144.871 241.074 144.86 241.089 144.851 241.106C144.843 241.122 144.841 241.139 144.844 241.157C144.848 241.176 144.855 241.194 144.865 241.21ZM147.948 241.98L147.959 242.006C147.978 242.051 147.987 242.133 147.987 242.182V242.182C147.987 242.316 147.911 242.407 147.777 242.402C147.682 242.398 147.569 242.378 147.442 242.344C146.62 242.124 146.963 241.098 147.647 241.605C147.78 241.703 147.884 241.826 147.948 241.98Z" fill="#407BFF"/>
<path d="M152.47 69.5182C152.219 69.6023 152.17 69.2682 152.389 69.1199V69.1199C152.658 68.938 152.945 69.1853 152.694 69.3909C152.627 69.4459 152.553 69.4905 152.47 69.5182Z" fill="#263238"/>
<path d="M254.319 272.084C254.528 273.881 253.125 275.459 251.316 275.462V275.462C249.778 275.464 248.483 274.312 248.305 272.785L247.367 264.73C247.157 262.933 248.561 261.355 250.37 261.353V261.353C251.908 261.351 253.203 262.502 253.381 264.03L254.319 272.084Z" fill="#FFC3BD"/>
<path d="M304.671 246.969C306.004 248.195 305.971 250.308 304.601 251.492V251.492C303.436 252.498 301.702 252.47 300.57 251.428L294.602 245.937C293.272 244.712 293.304 242.602 294.671 241.419V241.419C295.835 240.412 297.569 240.438 298.702 241.48L304.671 246.969Z" fill="#FFC3BD"/>
<path d="M301.661 253.1L307.276 248.24C307.367 248.164 307.483 248.122 307.602 248.122C307.721 248.122 307.837 248.164 307.928 248.24L312.206 251.653C312.311 251.741 312.395 251.85 312.452 251.974C312.509 252.097 312.539 252.232 312.539 252.368C312.539 252.505 312.509 252.639 312.452 252.763C312.395 252.887 312.311 252.996 312.206 253.084C310.374 254.617 308.966 255.648 306.702 257.614C305.302 258.825 301.197 262.631 299.262 264.306C297.327 265.981 295.495 264.212 296.116 263.347C299.026 259.478 300.835 256.049 301.118 254.012C301.188 253.654 301.38 253.332 301.661 253.1Z" fill="#263238"/>
<path d="M248.656 274.758H255.317C255.438 274.758 255.555 274.8 255.649 274.875C255.744 274.951 255.809 275.056 255.836 275.174L257.047 280.593C257.077 280.723 257.077 280.859 257.046 280.989C257.016 281.12 256.957 281.242 256.873 281.346C256.789 281.451 256.683 281.535 256.562 281.592C256.441 281.65 256.308 281.679 256.174 281.678C253.768 281.639 250.3 281.505 247.28 281.505C243.757 281.505 241.689 281.599 237.552 281.607C235.051 281.607 234.351 279.083 235.397 278.855C240.163 277.801 243.073 277.793 247.193 275.245C247.626 274.95 248.133 274.781 248.656 274.758Z" fill="#263238"/>
<path d="M230.169 96.8593C229.438 98.7473 227.306 99.7098 225.465 98.8681V98.8681C224.364 98.3647 223.302 97.8693 222.233 97.3424C220.099 96.2939 218.002 95.1247 215.942 93.835C213.868 92.5643 211.875 91.167 209.973 89.6513C209.493 89.2581 209.005 88.8649 208.534 88.4638L207.134 87.1819C206.67 86.7573 206.229 86.2697 205.781 85.8136C205.553 85.5619 205.356 85.381 205.097 85.0822C204.837 84.7834 204.586 84.4924 204.358 84.1936C203.498 83.0566 202.767 81.8275 202.179 80.5289C201.633 79.343 201.168 78.1213 200.787 76.872C200.065 74.5132 199.538 72.0985 199.215 69.6528C198.697 65.7259 198.529 61.7625 198.71 57.8089C198.772 56.475 199.889 55.4501 201.224 55.4501V55.4501C202.496 55.4501 203.572 56.3823 203.765 57.639C203.987 59.0849 204.228 60.5501 204.515 61.9773C204.947 64.1321 205.404 66.2869 205.962 68.363C206.49 70.391 207.157 72.3801 207.959 74.3162C208.625 76.028 209.562 77.6213 210.735 79.0347L211.121 79.4279C211.239 79.5537 211.475 79.7425 211.648 79.8997C212.025 80.2222 212.371 80.5603 212.772 80.867C213.559 81.4962 214.345 82.1174 215.226 82.7151C216.925 83.8947 218.718 85.0193 220.589 86.0731C222.461 87.1269 224.372 88.1256 226.314 89.0693C227.29 89.549 228.273 90.0209 229.256 90.4613V90.4613C230.867 91.1833 231.644 93.048 231.007 94.6949L230.169 96.8593Z" fill="#FFC3BD"/>
<path d="M229.822 105.466C227.584 104.075 225.425 102.56 223.356 100.931C221.238 99.2624 220.341 96.514 220.859 93.8679V93.8679C221.717 89.4824 226.14 86.7918 230.516 87.6968C232.404 88.0872 234.302 88.4295 236.208 88.7233C243.875 89.7142 235.288 108.722 229.822 105.466Z" fill="#263238"/>
<path d="M201.492 57.3576C202.775 56.8465 203.644 55.6381 203.721 54.2599L203.753 53.6784C203.885 51.3055 201.598 49.537 199.335 50.2629V50.2629C198.24 50.614 197.374 51.5004 197.325 52.649C197.263 54.1015 197.518 56.0777 199.087 57.2376C199.775 57.746 200.698 57.6743 201.492 57.3576V57.3576Z" fill="#FFC3BD"/>
<path d="M203.704 47.0196C203.47 45.7646 202.139 45.0445 200.96 45.5354L198.998 46.3526C198.339 46.6273 197.887 47.2459 197.826 47.9577V47.9577C197.708 49.3213 199.017 50.3648 200.32 49.9467L202.344 49.2977C203.306 48.9891 203.889 48.013 203.704 47.0196V47.0196Z" fill="#FFC3BD"/>
<path opacity="0.2" d="M250.375 261.353C248.567 261.355 247.164 262.932 247.371 264.728L247.513 265.948C247.689 267.477 248.985 268.63 250.524 268.628V268.628C252.332 268.626 253.735 267.049 253.528 265.252L253.387 264.032C253.21 262.504 251.914 261.351 250.375 261.353V261.353Z" fill="black"/>
<path opacity="0.2" d="M298.709 241.479C297.576 240.438 295.843 240.411 294.679 241.416V241.416C293.308 242.6 293.276 244.714 294.61 245.939L295.512 246.768C296.645 247.808 298.378 247.834 299.542 246.827V246.827C300.91 245.644 300.942 243.533 299.61 242.309L298.709 241.479Z" fill="black"/>
<path d="M259.643 88.4717C259.657 88.0401 259.585 87.61 259.431 87.2064C259.278 86.8027 259.046 86.4334 258.749 86.1198C258.452 85.8062 258.096 85.5544 257.702 85.379C257.307 85.2036 256.882 85.1081 256.45 85.0979C239.055 84.7755 227.738 89.6513 226.96 89.9658C226.669 90.083 226.413 90.2723 226.217 90.5159C226.02 90.7595 225.889 91.0493 225.835 91.3578C225.18 95.3037 223.434 110.655 230.583 134.746C231.941 139.321 236.519 142.066 241.242 141.39L255.959 139.283C261.228 138.529 264.646 133.833 263.627 128.608C261.764 119.057 259.152 104.005 259.643 88.4717Z" fill="#263238"/>
<path d="M236.627 87.029C234.636 87.4711 232.736 88.6437 232.331 90.6424C232.027 92.1419 232.106 93.9069 232.878 95.6883C234.429 99.2688 240.843 97.691 243.528 94.8597V94.8597C247.975 90.1712 242.935 85.6283 236.627 87.029V87.029Z" fill="white"/>
<path d="M232.118 90.1624C231.701 90.1624 231.301 89.9967 231.006 89.7018C230.711 89.4068 230.545 89.0067 230.545 88.5896C230.545 87.292 231.669 86.1753 232.621 85.4439C235.814 83.0847 242.058 81.2838 249.922 83.5566C250.309 83.6841 250.631 83.9565 250.821 84.3164C251.01 84.6764 251.053 85.096 250.94 85.4869C250.827 85.8779 250.567 86.2098 250.214 86.413C249.862 86.6162 249.444 86.6747 249.049 86.5764C241.592 84.4226 236.473 86.5314 234.522 87.9614C233.906 88.413 233.75 89.2609 233.178 89.7672V89.7672C232.886 90.0259 232.508 90.1667 232.118 90.1624Z" fill="#407BFF"/>
<path d="M239.104 77.1582C241.113 74.88 245.118 76.4426 245.706 79.4228C245.887 80.3384 246.118 81.2177 246.41 82.0229C247.207 84.2171 247.659 87.1185 245.959 88.7182C244.206 90.368 241.935 91.7974 238.732 92.3723C235.587 92.9306 234.509 91.7667 234.375 90.2961C234.331 89.5867 234.488 88.8792 234.827 88.2547C235.167 87.6302 235.675 87.114 236.294 86.7651C238.979 85.2081 239.113 82.9013 238.447 80.5245C238.119 79.3517 238.298 78.0716 239.104 77.1582V77.1582Z" fill="#FFC3BD"/>
<path d="M231.639 126.243C231.461 126.242 231.286 126.21 231.12 126.149C230.727 126.01 230.405 125.721 230.225 125.345C230.045 124.969 230.022 124.537 230.16 124.143C230.379 123.593 230.48 123.003 230.459 122.412C230.437 121.82 230.292 121.24 230.034 120.707L229.869 120.259C229.601 119.73 229.245 119.252 228.815 118.843C227.895 118.105 227.259 117.071 227.014 115.918C226.769 114.764 226.93 113.561 227.471 112.512V112.512C227.854 111.623 227.738 110.585 227.24 109.755C227.193 109.677 227.144 109.6 227.093 109.524C226.581 108.792 226.234 107.96 226.073 107.086C225.987 106.619 225.989 106.138 226.079 105.671C226.258 104.748 226.647 103.876 227.219 103.123C227.226 103.113 227.233 103.104 227.24 103.095C227.756 102.4 227.936 101.466 227.597 100.669V100.669C227.218 99.7752 227.125 98.7866 227.329 97.8378C227.648 96.768 228.305 95.8301 229.201 95.164V95.164C229.703 94.7845 230.016 94.1597 229.906 93.5401C229.893 93.4647 229.875 93.3899 229.854 93.316C229.614 92.4051 229.741 91.4369 230.207 90.6186C230.758 89.7535 230.703 89.5333 230.656 89.3524C230.576 89.0766 230.542 88.7899 230.553 88.5031C230.553 88.086 230.719 87.6859 231.014 87.3909C231.309 87.096 231.709 86.9303 232.126 86.9303C232.543 86.9303 232.943 87.096 233.238 87.3909C233.533 87.6859 233.699 88.086 233.699 88.5031V88.5031C233.699 88.5344 233.703 88.5656 233.71 88.596C233.901 89.3897 233.954 90.3263 233.19 91.7572C233.02 92.0757 232.917 92.4341 232.983 92.7891V92.7891C233.221 93.654 233.185 94.5709 232.883 95.4152C232.58 96.2595 232.025 96.9901 231.293 97.5076C231.198 97.5902 231.112 97.6668 231.032 97.7391C230.5 98.2255 230.3 99.0025 230.608 99.6545V99.6545C230.943 100.496 231.075 101.403 230.994 102.305C230.82 103.208 230.443 104.06 229.893 104.798C229.88 104.814 229.867 104.831 229.854 104.848C229.177 105.731 229.198 106.993 229.838 107.904V107.904C230.403 108.749 230.786 109.702 230.962 110.704C231.006 111.65 230.842 112.595 230.483 113.472C230.476 113.486 230.47 113.499 230.464 113.513C229.984 114.594 230.302 115.898 231.175 116.696V116.696C231.903 117.408 232.48 118.258 232.873 119.197L233.015 119.606C233.789 121.364 233.837 123.357 233.149 125.15C233.046 125.469 232.845 125.748 232.573 125.944C232.301 126.141 231.974 126.246 231.639 126.243Z" fill="#407BFF"/>
<path d="M257.205 90.5611C258.39 89.2645 260.433 89.146 261.648 90.4141V90.4141C262.372 91.169 263.08 91.9004 263.78 92.6554C265.179 94.1653 266.501 95.7539 267.775 97.3739C270.429 100.732 272.651 104.409 274.388 108.321C274.826 109.367 275.21 110.435 275.536 111.521C275.702 112.072 275.843 112.646 275.977 113.228L276.024 113.44L276.095 113.81C276.142 114.054 276.166 114.313 276.189 114.596C276.227 115.121 276.211 115.648 276.142 116.169C276.026 117.109 275.741 118.02 275.301 118.859C274.933 119.557 274.487 120.211 273.972 120.809C273.119 121.782 272.138 122.634 271.054 123.341C269.205 124.552 267.213 125.529 265.124 126.251C264.133 126.613 263.135 126.919 262.128 127.179C261.864 127.247 261.603 127.314 261.341 127.379C260.035 127.703 258.746 126.918 258.329 125.639V125.639C257.927 124.404 258.46 123.067 259.584 122.417C259.744 122.324 259.903 122.231 260.06 122.138C260.854 121.666 261.633 121.171 262.419 120.675C263.881 119.751 265.258 118.699 266.532 117.53C267.021 117.059 267.451 116.531 267.814 115.957C268.003 115.648 268.051 115.41 268.037 115.323C268.029 115.272 267.976 115.332 267.987 115.383V115.383L267.94 115.241C267.822 114.879 267.712 114.51 267.554 114.132C267.263 113.365 266.93 112.614 266.556 111.883C265.766 110.33 264.867 108.835 263.866 107.409C262.867 105.93 261.766 104.483 260.602 103.067C259.439 101.652 258.243 100.26 256.977 98.8838C256.356 98.1996 255.719 97.5311 255.074 96.8705V96.8705C254.031 95.8017 253.983 94.0873 254.991 92.9847L257.205 90.5611Z" fill="#FFC3BD"/>
<path d="M257.323 85.2316C259.069 85.4905 261.303 87.7725 263.124 90.0275C265.289 92.7079 265.096 96.4878 263.036 99.2494V99.2494C260.04 103.266 253.874 103.871 251.677 99.3676C251.478 98.9605 251.305 98.5538 251.165 98.1524C248.507 90.3826 250.34 84.2093 257.323 85.2316Z" fill="#263238"/>
<path d="M252.581 115.776C252.308 115.773 252.04 115.699 251.804 115.561C251.569 115.423 251.373 115.226 251.236 114.99C250.696 113.932 250.461 112.744 250.56 111.561V111.561C250.643 110.592 250.211 109.637 249.473 109.003C249.404 108.944 249.334 108.887 249.262 108.832C248.357 108.158 247.653 107.25 247.226 106.205C246.934 105.057 246.986 103.848 247.375 102.729V102.729C247.658 101.886 247.493 100.947 246.98 100.219C246.908 100.118 246.833 100.018 246.754 99.9218C245.943 99.0891 245.469 97.9867 245.421 96.8258C245.373 95.6649 245.755 94.5272 246.494 93.6305V93.6305C246.916 92.9972 247.018 92.1971 246.8 91.468C246.739 91.2648 246.666 91.0651 246.581 90.8702C246.131 89.9427 245.978 88.8996 246.14 87.8818C246.434 86.4342 247.164 85.1114 248.232 84.0913L248.334 83.9891C248.628 83.7103 249.018 83.5554 249.422 83.5567C249.827 83.558 250.216 83.7153 250.508 83.9959C250.8 84.2765 250.972 84.6589 250.989 85.0633C251.006 85.4678 250.866 85.8633 250.599 86.1675L250.418 86.3483C250.068 86.6859 249.781 87.0786 249.566 87.5082C249.208 88.2228 249.24 89.0669 249.538 89.8085V89.8085C249.95 90.7612 250.156 91.7903 250.143 92.8284C250.021 93.6895 249.701 94.5106 249.207 95.2269C249.176 95.2702 249.145 95.3142 249.115 95.3588C248.548 96.2085 248.683 97.3553 249.341 98.1367V98.1367C249.977 98.9259 250.44 99.8394 250.701 100.818C250.822 101.731 250.733 102.658 250.442 103.531C250.435 103.551 250.428 103.57 250.422 103.589C250.06 104.645 250.475 105.837 251.37 106.504V106.504C252.17 107.133 252.831 107.92 253.312 108.816C253.653 109.7 253.792 110.648 253.721 111.592C253.693 111.884 253.697 112.177 253.73 112.467C253.804 113.102 254.214 113.685 254.167 114.323C254.16 114.412 254.146 114.502 254.124 114.591C254.022 114.995 253.764 115.342 253.407 115.556C253.157 115.704 252.871 115.78 252.581 115.776Z" fill="#407BFF"/>
<path opacity="0.2" d="M242.632 76.0306C242.616 74.9298 241.303 74.6611 240.575 75.4871L238.415 77.9391C238.037 78.3678 237.947 78.9741 238.139 79.5122V79.5122C238.424 80.3079 239.271 80.7879 239.963 80.3036C241.395 79.3021 242.692 77.5424 242.632 76.0306V76.0306Z" fill="black"/>
<path d="M233.552 57.198C233.183 57.2974 232.862 57.537 232.701 57.8841C231.791 59.8465 231.806 62.1556 231.971 63.7224C232.096 64.9079 232.828 66.0543 234.019 66.1073V66.1073V66.1073C235.147 66.1576 235.762 64.9815 235.693 63.855L235.364 58.5005C235.308 57.591 234.432 56.9613 233.552 57.198V57.198Z" fill="#263238"/>
<path d="M248.287 65.9409C246.8 71.8075 246.226 75.3149 242.656 77.7921C237.285 81.5197 230.474 77.4146 230.183 71.2256C229.916 65.6499 232.393 56.9993 238.653 55.741C240.03 55.4558 241.457 55.5276 242.799 55.9497C244.14 56.3717 245.351 57.13 246.317 58.1523C247.282 59.1746 247.97 60.427 248.315 61.7903C248.66 63.1535 248.65 64.5824 248.287 65.9409Z" fill="#FFC3BD"/>
<path d="M231.159 72.767V72.767C231.018 72.767 230.877 72.7522 230.739 72.723L217.617 69.9437C216.892 69.7904 216.258 69.3555 215.854 68.7346C215.449 68.1137 215.309 67.3577 215.462 66.6329C215.615 65.9081 216.05 65.2739 216.671 64.8698C217.292 64.4657 218.048 64.3249 218.773 64.4781C218.905 64.5061 219.03 64.5599 219.141 64.6364C219.252 64.713 219.346 64.8107 219.419 64.924C219.493 65.0373 219.543 65.1639 219.566 65.2966C219.59 65.4293 219.588 65.5654 219.559 65.6971C219.501 65.9624 219.34 66.1939 219.111 66.3412C218.883 66.4885 218.606 66.5396 218.34 66.4835C218.246 66.4608 218.149 66.4581 218.054 66.4757C217.959 66.4934 217.869 66.5308 217.79 66.5857C217.71 66.6374 217.641 66.7042 217.587 66.7825C217.533 66.8608 217.495 66.9489 217.475 67.0419C217.44 67.2317 217.477 67.4276 217.577 67.5923C217.686 67.7491 217.848 67.8609 218.033 67.9069L231.363 70.7301C231.611 70.7841 231.83 70.9275 231.979 71.1329C232.127 71.3384 232.195 71.5914 232.169 71.8436C232.142 72.0958 232.024 72.3294 231.836 72.4998C231.648 72.6702 231.404 72.7653 231.151 72.767H231.159Z" fill="#407BFF"/>
<path d="M231.103 73.0029L230.673 72.9106C230.021 72.7705 229.606 72.1274 229.747 71.4752V71.4752C229.888 70.8245 230.529 70.4109 231.18 70.5509L231.575 70.6358C231.893 70.7037 232.171 70.8951 232.348 71.1679C232.525 71.4407 232.587 71.7726 232.519 72.0906C232.441 72.3926 232.252 72.6541 231.989 72.8231C231.727 72.9921 231.411 73.0563 231.103 73.0029Z" fill="white"/>
<path d="M242.762 66.3567C243.378 63.7721 244.832 60.5177 242.318 59.6566C241.188 59.2693 239.578 59.116 237.347 59.2878V59.2878C232.393 59.6617 235.733 54.1709 240.679 53.7011C241.092 53.6618 241.538 53.6307 242.019 53.6099C247.856 53.3569 250.275 55.126 251.363 58.0788C251.843 59.3816 252.393 60.6743 252.878 61.9752C254.141 65.3653 251.883 67.4492 250.239 68.4612C249.3 69.039 248.324 69.5769 247.494 70.3022L247.221 70.5408C246.305 71.3413 245.154 72.0522 243.995 71.6813V71.6813V71.6813C242.846 71.3137 242.37 70.0367 242.425 68.8321C242.458 68.1111 242.55 67.2451 242.762 66.3567Z" fill="#263238"/>
<path d="M237.127 52.501L236.946 52.5954C236.778 52.685 236.636 52.8174 236.535 52.9792C236.435 53.1409 236.378 53.3264 236.372 53.517C236.365 53.7075 236.409 53.8964 236.499 54.0646C236.589 54.2327 236.721 54.3743 236.883 54.4749L253.304 64.6275C253.458 64.7222 253.634 64.7767 253.815 64.7861C253.996 64.7955 254.176 64.7595 254.339 64.6813C254.503 64.6031 254.644 64.4853 254.75 64.3385C254.856 64.1918 254.924 64.0208 254.947 63.8411C255.024 63.334 254.95 62.8155 254.735 62.3499C254.52 61.8844 254.172 61.4923 253.736 61.2224L239.738 52.5718C239.347 52.3333 238.9 52.2013 238.442 52.1889C237.984 52.1765 237.531 52.2841 237.127 52.501Z" fill="#407BFF"/>
<path d="M246.226 57.8464C242.84 55.4972 241.96 50.8402 244.284 47.4365V47.4365C244.404 47.2612 244.587 47.1384 244.794 47.0931C245.002 47.0478 245.219 47.0834 245.401 47.1927L256.993 54.1368C257.094 54.1961 257.182 54.2763 257.25 54.3722C257.318 54.4681 257.365 54.5774 257.387 54.6928C257.409 54.8082 257.407 54.927 257.379 55.0413C257.352 55.1557 257.301 55.2628 257.229 55.3557L256.579 56.2141C254.134 59.4438 249.555 60.1554 246.226 57.8464V57.8464Z" fill="#407BFF"/>
<path d="M241.375 54.481C240.643 53.9735 240.416 52.9934 240.851 52.2161V52.2161C241.342 51.3383 242.475 51.0627 243.314 51.6173L252.926 57.9707C253.866 58.5923 254.041 59.901 253.297 60.7478V60.7478C252.674 61.4574 251.618 61.5867 250.842 61.0483L241.375 54.481Z" fill="#407BFF"/>
<path opacity="0.6" d="M241.375 54.481C240.643 53.9735 240.416 52.9934 240.851 52.2161V52.2161C241.342 51.3383 242.475 51.0627 243.314 51.6173L252.926 57.9707C253.866 58.5923 254.041 59.901 253.297 60.7478V60.7478C252.674 61.4574 251.618 61.5867 250.842 61.0483L241.375 54.481Z" fill="white"/>
<path d="M249.034 73.1366C247.884 73.9214 246.473 74.2262 245.102 73.9859C243.317 73.6399 243.317 71.8311 244.551 70.5493C245.66 69.3932 247.933 68.19 249.364 69.1888C250.795 70.1875 250.457 72.1536 249.034 73.1366Z" fill="#FFC3BD"/>
<path d="M244.569 262.865C245.131 265.421 247.396 267.232 250.013 267.232V267.232C253.195 267.232 255.732 264.586 255.574 261.408C255.02 250.296 253.685 225.91 252.006 211.679C251.33 205.938 252.061 198.074 252.132 189.29C252.226 178.225 252.737 166.169 253.241 156.709C253.333 154.99 253.423 153.354 253.508 151.823C253.86 145.495 248.339 140.405 242.065 141.3L241.362 141.4C236.585 142.082 232.98 146.073 232.844 150.896C232.409 166.394 231.838 199.357 234.304 213.126C236.982 228.049 242.373 252.871 244.569 262.865Z" fill="#407BFF"/>
<path opacity="0.2" d="M248.333 159.726C247.874 165.136 252.829 164.774 253.103 159.352C253.132 158.782 253.161 158.22 253.19 157.667C253.223 157.032 253.033 156.407 252.652 155.898V155.898C251.462 154.306 249.148 154.566 248.767 156.517C248.573 157.512 248.43 158.588 248.333 159.726Z" fill="black"/>
<path d="M254.183 139.54C248.301 140.381 244.448 146.121 245.946 151.871C250.138 167.964 258.073 197.693 262.513 209.627C267.654 223.445 283.198 239.024 290.532 245.851C292.681 247.852 296.01 247.646 297.985 245.473V245.473C299.638 243.653 299.868 240.95 298.571 238.861C294.499 232.302 285.58 217.569 278.334 203.015C277.92 202.184 277.632 201.308 277.466 200.395C274.235 182.633 269.733 159.744 267.24 147.192C266.206 141.991 261.287 138.524 256.037 139.275L254.183 139.54Z" fill="#407BFF"/>
<path d="M292.335 249.735C293.091 250.15 294.025 250.052 294.678 249.488L302.04 243.127C302.868 242.411 302.958 241.159 302.241 240.332V240.332C301.534 239.518 300.306 239.419 299.478 240.109L292.006 246.341C290.89 247.273 291.061 249.035 292.335 249.735V249.735Z" fill="#263238"/>
<path d="M243.755 266.075C244.043 266.908 244.829 267.467 245.71 267.466L254.535 267.454C255.64 267.453 256.535 266.555 256.533 265.45V265.45C256.53 264.357 255.652 263.468 254.559 263.453L245.736 263.332C244.303 263.312 243.285 264.721 243.755 266.075V266.075Z" fill="#263238"/>
<path d="M239.228 64.7927C239.005 64.7259 238.76 64.8179 238.555 65.0172C238.264 65.3 238.495 65.7423 238.881 65.8661V65.8661C239.268 65.9899 239.713 65.7643 239.642 65.3646C239.591 65.0819 239.446 64.864 239.228 64.7927Z" fill="#263238"/>
<path d="M233.192 63.6609C233.128 63.6391 233.058 63.6336 232.992 63.6463C232.794 63.6839 232.609 63.8287 232.48 64.0448C232.28 64.3832 232.612 64.7338 233.005 64.7591V64.7591C233.424 64.7861 233.813 64.4384 233.622 64.0648C233.519 63.8649 233.37 63.7209 233.192 63.6609Z" fill="#263238"/>
<path d="M234.461 69.4066C234.618 68.5758 233.289 67.9867 232.69 68.5825V68.5825C232.384 68.8866 232.363 69.3938 232.736 69.6107C232.865 69.6857 233 69.7506 233.139 69.8047C233.34 69.8822 233.548 69.9367 233.759 69.9673C234.105 70.0176 234.397 69.7503 234.461 69.4066V69.4066Z" fill="#ED847E"/>
<path d="M241.225 64.1636C241.274 64.1753 241.325 64.1753 241.374 64.1636C241.447 64.1401 241.507 64.089 241.543 64.0213C241.578 63.9537 241.585 63.8748 241.563 63.8018C241.441 63.3604 241.214 62.9548 240.902 62.6195C240.59 62.2841 240.202 62.0288 239.77 61.8751C239.734 61.8632 239.696 61.8589 239.658 61.8624C239.62 61.866 239.583 61.8774 239.55 61.8959C239.517 61.9143 239.488 61.9395 239.465 61.9698C239.442 62 239.425 62.0347 239.416 62.0717C239.405 62.1079 239.402 62.1458 239.406 62.1833C239.41 62.2208 239.422 62.2571 239.44 62.29C239.458 62.323 239.483 62.352 239.513 62.3752C239.542 62.3985 239.576 62.4157 239.613 62.4256C239.955 62.5571 240.26 62.7685 240.503 63.0421C240.716 63.281 240.876 63.5613 240.974 63.8647C241.002 63.9528 241.027 64.0487 241.1 64.1055V64.1055C241.136 64.1341 241.179 64.154 241.225 64.1636Z" fill="#263238"/>
<path d="M231.277 62.8109C231.324 62.8189 231.372 62.8152 231.417 62.8001C231.463 62.785 231.504 62.759 231.536 62.7244C231.773 62.4514 232.071 62.2379 232.406 62.1013C232.741 61.9647 233.103 61.9088 233.463 61.938C233.539 61.9493 233.617 61.93 233.679 61.8843C233.74 61.8386 233.782 61.7703 233.793 61.6942C233.805 61.6202 233.786 61.5447 233.742 61.4843C233.698 61.4239 233.631 61.3834 233.557 61.3718C233.101 61.3267 232.641 61.3918 232.216 61.5615C231.79 61.7312 231.412 62.0005 231.112 62.347C231.084 62.3734 231.062 62.4051 231.047 62.4403C231.032 62.4754 231.024 62.5132 231.024 62.5514C231.024 62.5896 231.032 62.6274 231.047 62.6626V62.6626C231.077 62.7325 231.142 62.7839 231.216 62.802C231.236 62.8069 231.256 62.8099 231.277 62.8109Z" fill="#263238"/>
<path d="M300.796 255.254C301.196 254.889 301.555 254.48 301.865 254.036C301.881 254.012 301.889 253.985 301.889 253.957V253.957C301.889 253.901 301.858 253.844 301.809 253.819C301.808 253.818 301.808 253.818 301.807 253.818V253.818C301.756 253.792 301.696 253.807 301.639 253.813C301.158 253.863 299.21 254.229 298.94 254.893C298.908 254.971 298.896 255.057 298.907 255.141C298.918 255.225 298.951 255.305 299.003 255.372C299.077 255.494 299.181 255.594 299.305 255.664C299.429 255.734 299.568 255.772 299.71 255.773C300.121 255.731 300.505 255.548 300.796 255.254ZM299.345 254.864C299.91 254.321 300.502 255.483 299.718 255.483V255.483C299.622 255.48 299.528 255.453 299.445 255.403C299.362 255.354 299.294 255.283 299.246 255.199C299.228 255.171 299.218 255.139 299.218 255.105V255.105C299.218 255.039 299.253 254.976 299.292 254.923C299.307 254.903 299.325 254.884 299.345 254.864Z" fill="#407BFF"/>
<path d="M301.842 254.067C301.862 254.047 301.879 254.023 301.889 253.996C301.9 253.973 301.907 253.947 301.907 253.921V253.921C301.907 253.87 301.871 253.829 301.835 253.792C301.585 253.537 300.536 252.511 299.734 252.518C299.624 252.518 299.516 252.541 299.416 252.586C299.315 252.631 299.226 252.696 299.152 252.777C299.069 252.85 299.012 252.948 298.992 253.057C298.972 253.165 298.99 253.278 299.042 253.375C299.358 253.976 301.048 254.23 301.767 254.106C301.796 254.102 301.821 254.087 301.842 254.067V254.067ZM299.372 252.935C299.464 252.856 299.582 252.814 299.702 252.817V252.817C300.472 252.817 300.104 253.832 299.453 253.422C299.439 253.413 299.425 253.403 299.412 253.394C299.29 253.309 299.203 253.138 299.293 253.019C299.302 253.007 299.313 252.995 299.325 252.982L299.372 252.935Z" fill="#407BFF"/>
<path d="M248.049 275.607C248.055 275.607 248.062 275.606 248.068 275.603C248.089 275.594 248.108 275.58 248.123 275.562C248.14 275.541 248.15 275.515 248.153 275.489C248.16 275.46 248.156 275.429 248.143 275.402C248.131 275.375 248.109 275.353 248.082 275.34C247.799 275.198 245.353 273.955 244.614 274.372C244.543 274.409 244.483 274.465 244.441 274.532C244.398 274.6 244.374 274.678 244.37 274.758C244.354 274.888 244.371 275.02 244.419 275.143C244.467 275.265 244.545 275.373 244.646 275.457C245.313 276.046 247.053 275.804 248.037 275.608C248.041 275.607 248.045 275.607 248.049 275.607V275.607ZM244.786 274.603C244.797 274.601 244.808 274.598 244.819 274.595C244.846 274.587 244.875 274.581 244.907 274.577C245.746 274.472 245.458 275.792 244.834 275.222V275.222C244.768 275.165 244.718 275.093 244.688 275.012C244.668 274.96 244.658 274.905 244.656 274.851C244.654 274.788 244.654 274.722 244.687 274.669V274.669C244.698 274.651 244.713 274.636 244.73 274.624C244.746 274.612 244.766 274.606 244.786 274.603V274.603Z" fill="#407BFF"/>
<path d="M248.044 275.615C248.054 275.61 248.065 275.607 248.077 275.607V275.607C248.091 275.607 248.105 275.602 248.115 275.592C248.127 275.579 248.138 275.564 248.146 275.547C248.157 275.524 248.162 275.499 248.161 275.473C248.161 275.41 247.981 273.767 247.21 273.114C247.102 273.022 246.977 272.953 246.842 272.911C246.706 272.87 246.564 272.855 246.423 272.87C246.022 272.87 245.912 273.114 245.889 273.271C245.78 273.953 247.189 275.237 247.938 275.614C247.961 275.625 247.986 275.632 248.012 275.627C248.023 275.624 248.033 275.62 248.044 275.615ZM246.165 273.253C246.22 273.171 246.34 273.177 246.439 273.177V273.177C246.544 273.165 246.65 273.176 246.751 273.208C246.851 273.241 246.943 273.294 247.021 273.366V273.366C247.576 274.018 246.783 274.552 246.312 273.836C246.183 273.639 246.112 273.464 246.133 273.342C246.14 273.314 246.144 273.282 246.165 273.253Z" fill="#407BFF"/>
<path d="M259.545 123.975C258.811 123.429 257.86 123.269 256.988 123.545L256.85 123.588C254.875 124.213 254.269 126.711 255.737 128.172V128.172C256.538 128.969 257.753 129.209 258.708 128.606C259.908 127.849 261.279 126.689 260.999 125.462C260.898 125.02 260.526 124.705 260.162 124.434L259.545 123.975Z" fill="#FFC3BD"/>
<path d="M251.029 128.136C250.498 129.274 250.909 130.629 251.983 131.28L252.567 131.635C253.553 132.232 254.826 132.037 255.587 131.171V131.171C256.417 130.227 256.369 128.8 255.478 127.914L254.994 127.432C253.785 126.23 251.75 126.591 251.029 128.136V128.136Z" fill="#FFC3BD"/>
</svg>
