<svg width="61" height="60" viewBox="0 0 61 60" fill="none" xmlns="http://www.w3.org/2000/svg">
<g id="Icon">
<rect id="Rectangle 87" x="0.0703125" width="60" height="60" rx="10" fill="white"/>
<path id="Clipboard" d="M41.6667 15.5H34.7C34 13.47 32.1667 12 30 12C27.8333 12 26 13.47 25.3 15.5H18.3333C17.4493 15.5 16.6014 15.8687 15.9763 16.5251C15.3512 17.1815 15 18.0717 15 19V43.5C15 44.4283 15.3512 45.3185 15.9763 45.9749C16.6014 46.6313 17.4493 47 18.3333 47H41.6667C42.5507 47 43.3986 46.6313 44.0237 45.9749C44.6488 45.3185 45 44.4283 45 43.5V19C45 18.0717 44.6488 17.1815 44.0237 16.5251C43.3986 15.8687 42.5507 15.5 41.6667 15.5ZM30 15.5C30.442 15.5 30.8659 15.6844 31.1785 16.0126C31.4911 16.3408 31.6667 16.7859 31.6667 17.25C31.6667 17.7141 31.4911 18.1592 31.1785 18.4874C30.8659 18.8156 30.442 19 30 19C29.558 19 29.134 18.8156 28.8215 18.4874C28.5089 18.1592 28.3333 17.7141 28.3333 17.25C28.3333 16.7859 28.5089 16.3408 28.8215 16.0126C29.134 15.6844 29.558 15.5 30 15.5ZM21.6667 22.5H38.3333V19H41.6667V43.5H18.3333V19H21.6667V22.5ZM22.5 33.875L25 31.25L28.3333 34.75L35.8333 26.875L38.3333 29.5L28.3333 40L22.5 33.875Z" fill="#415A77"/>
</g>
</svg>
