<svg width="60" height="60" viewBox="0 0 60 60" fill="none" xmlns="http://www.w3.org/2000/svg">
<g id="Icon">
<rect id="Rectangle 87" width="60" height="60" rx="10" fill="white"/>
<g id="Vector">
<path d="M24.5455 28.6364C26.3537 28.6364 28.088 27.918 29.3666 26.6394C30.6453 25.3607 31.3636 23.6265 31.3636 21.8182C31.3636 20.0099 30.6453 18.2757 29.3666 16.997C28.088 15.7183 26.3537 15 24.5455 15C22.7372 15 21.0029 15.7183 19.7243 16.997C18.4456 18.2757 17.7273 20.0099 17.7273 21.8182C17.7273 23.6265 18.4456 25.3607 19.7243 26.6394C21.0029 27.918 22.7372 28.6364 24.5455 28.6364ZM33.6041 35.04C33.1633 33.6688 32.4066 32.4203 31.395 31.395C29.6891 29.6727 27.2905 28.6364 24.5455 28.6364C19.0909 28.6364 15 32.7273 15 38.1818V45H28.6364M30 39.3055L35.7136 43.6364L45 31.3636" fill="white"/>
<path d="M24.5455 28.6364C26.3537 28.6364 28.088 27.918 29.3666 26.6394C30.6453 25.3607 31.3636 23.6265 31.3636 21.8182C31.3636 20.0099 30.6453 18.2757 29.3666 16.997C28.088 15.7183 26.3537 15 24.5455 15C22.7372 15 21.0029 15.7183 19.7243 16.997C18.4456 18.2757 17.7273 20.0099 17.7273 21.8182C17.7273 23.6265 18.4456 25.3607 19.7243 26.6394C21.0029 27.918 22.7372 28.6364 24.5455 28.6364ZM24.5455 28.6364C27.2905 28.6364 29.6891 29.6727 31.395 31.395C32.4066 32.4203 33.1633 33.6688 33.6041 35.04M24.5455 28.6364C19.0909 28.6364 15 32.7273 15 38.1818V45H28.6364M30 39.3055L35.7136 43.6364L45 31.3636" stroke="#415A77" stroke-width="3"/>
</g>
</g>
</svg>
