<svg width="40" height="41" viewBox="0 0 40 41" fill="none" xmlns="http://www.w3.org/2000/svg">
<path fill-rule="evenodd" clip-rule="evenodd" d="M32.5 0.735352H7.5C3.35789 0.735352 0 4.09325 0 8.23535V33.2354C0 37.3775 3.35789 40.7354 7.5 40.7354H32.5C36.6421 40.7354 40 37.3775 40 33.2354V8.23535C40 4.09325 36.6421 0.735352 32.5 0.735352ZM31.4842 22.2775H27.7421V36.1301H21.4895V22.2775H19.0632V17.609H21.4895V14.6354C21.4895 10.7406 23.1105 8.42483 27.7 8.42483H32.3526V13.0722H29.6474C27.8579 13.0722 27.7421 13.7406 27.7421 14.9827L27.7368 17.6038H31.9895L31.4789 22.2722L31.4842 22.2775Z" fill="#E0E1DD"/>
</svg>
