<svg width="326" height="271" viewBox="0 0 326 271" fill="none" xmlns="http://www.w3.org/2000/svg">
<path d="M240.208 8.37028C240.958 8.65786 241.64 9.10328 242.207 9.67668C242.774 10.2501 243.213 10.9382 243.495 11.6948L324.834 235.173C325.348 236.584 325.285 238.141 324.658 239.499C324.032 240.857 322.893 241.907 321.494 242.416C320.094 242.926 318.547 242.854 317.194 242.216C315.841 241.578 314.792 240.426 314.279 239.014L291.936 177.629C241.318 159.297 213.599 188.525 184.276 219.422C166.462 238.217 148.29 257.385 124.804 265.933C107.466 272.243 87.2255 272.753 62.1004 263.046C61.3519 262.756 60.6727 262.309 60.1081 261.735C59.5435 261.161 59.1065 260.473 58.8265 259.717L0.70628 100.033C0.341449 99.0126 0.274271 97.9102 0.512749 96.8563C0.751227 95.8024 1.28536 94.841 2.05178 94.0862C2.8182 93.3314 3.78479 92.8148 4.83694 92.5977C5.88909 92.3806 6.98267 92.4721 7.98803 92.8613C60.1643 113.052 88.2075 83.36 118.031 51.9498C149.027 19.2843 181.075 -14.4725 240.208 8.37028ZM68.4764 253.386C119.099 271.731 146.818 242.504 176.137 211.594C205.097 181.055 234.97 149.492 287.049 164.203L233.84 18.0119C183.217 -0.333323 155.498 28.8944 126.18 59.8042C97.2191 90.3426 67.3466 121.906 15.2673 107.196L68.4764 253.386Z" fill="#415A77" fill-opacity="0.2"/>
</svg>
