<svg width="61" height="60" viewBox="0 0 61 60" fill="none" xmlns="http://www.w3.org/2000/svg">
<g id="Icon">
<rect id="Rectangle 87" x="0.0703125" width="60" height="60" rx="10" fill="white"/>
<path id="Handshake" d="M28.6841 43.9672C28.6151 44.2622 28.4556 44.524 28.2311 44.7111C28.0066 44.8983 27.73 44.9999 27.4452 45C27.3376 45.0005 27.2303 44.9868 27.1259 44.9591L22.0168 43.5957C21.8746 43.5575 21.7395 43.4935 21.6177 43.4065L17.7859 40.6797C17.5041 40.479 17.3085 40.167 17.2422 39.8124C17.1758 39.4578 17.2442 39.0896 17.4322 38.7888C17.6202 38.488 17.9125 38.2792 18.2447 38.2084C18.5769 38.1376 18.9218 38.2106 19.2036 38.4113L22.8502 41.0069L27.7453 42.3141C27.9089 42.3564 28.063 42.4328 28.1988 42.5389C28.3346 42.645 28.4494 42.7787 28.5367 42.9323C28.6239 43.0859 28.6818 43.2565 28.7071 43.4341C28.7325 43.6116 28.7246 43.7928 28.6841 43.9672ZM49.8692 27.5278C49.7644 27.8676 49.5976 28.1819 49.3783 28.4525C49.1591 28.723 48.8918 28.9446 48.5919 29.1043L44.8112 31.1221L36.0172 40.5109C35.8612 40.6774 35.6674 40.7978 35.4547 40.8605C35.2421 40.9233 35.0178 40.9261 34.8038 40.8688L24.5857 38.142C24.4303 38.1004 24.2836 38.0281 24.153 37.929L15.2888 31.1732L11.4123 29.1043C10.8065 28.781 10.3457 28.2141 10.1313 27.5282C9.91695 26.8424 9.96652 26.0937 10.2691 25.4469L14.2367 16.9784C14.5395 16.3317 15.0706 15.8398 15.7131 15.611C16.3556 15.3822 17.057 15.4351 17.6629 15.7581L21.185 17.6328L29.6469 15.0526C29.8764 14.9825 30.1198 14.9825 30.3494 15.0526L38.8113 17.6328L42.3333 15.7581C42.9393 15.4351 43.6406 15.3822 44.2831 15.611C44.9256 15.8398 45.4567 16.3317 45.7596 16.9784L49.7271 25.4469C49.8784 25.7665 49.9689 26.115 49.9933 26.4722C50.0177 26.8294 49.9755 27.1881 49.8692 27.5278ZM42.4962 29.7331L38.1519 20.4585H33.0715L26.1679 27.6164C28.1892 28.9952 31.3584 29.3752 34.2019 26.3161C34.424 26.0771 34.721 25.9343 35.0358 25.9151C35.3506 25.8959 35.661 26.0017 35.9071 26.2121L41.4009 30.9108L42.4962 29.7331ZM12.5539 26.6655L15.3782 28.1737L19.3457 19.7052L16.5214 18.1969L12.5539 26.6655ZM39.5792 32.8417L35.1551 29.06C32.0354 31.7868 28.0742 32.1464 24.7917 29.9121C24.4688 29.6928 24.1961 29.3989 23.9939 29.0521C23.7917 28.7053 23.6651 28.3144 23.6234 27.9084C23.5817 27.5023 23.626 27.0914 23.7531 26.7061C23.8801 26.3207 24.0866 25.9708 24.3574 25.6821C24.3612 25.6771 24.3655 25.6726 24.3702 25.6685L31.5324 18.2532L29.9997 17.7862L21.9497 20.2421L17.5799 29.5695L25.4351 35.56L34.7176 38.0363L39.5792 32.8417ZM47.4408 26.6655L43.4781 18.1969L40.6537 19.7052L44.6212 28.1737L47.4408 26.6655Z" fill="#415A77"/>
</g>
</svg>
