<svg width="50" height="50" viewBox="0 0 50 50" fill="none" xmlns="http://www.w3.org/2000/svg">
<g id="ic:twotone-handshake">
<path id="Vector" opacity="0.3" d="M25.4584 41.3542C25.0834 41.7292 24.4167 41.7917 23.9792 41.3542C23.784 41.1575 23.6745 40.8917 23.6745 40.6146C23.6745 40.3375 23.784 40.0717 23.9792 39.875L31.0417 32.8125L28.1042 29.875L21.0417 36.9375C20.6459 37.3542 19.9792 37.3333 19.5625 36.9375C19.3674 36.7408 19.2579 36.475 19.2579 36.1979C19.2579 35.9209 19.3674 35.655 19.5625 35.4583L26.625 28.3958L23.6875 25.4583L16.625 32.5208C16.25 32.8958 15.5834 32.9583 15.1459 32.5208C14.9551 32.3219 14.8486 32.0569 14.8486 31.7813C14.8486 31.5056 14.9551 31.2406 15.1459 31.0417L22.2084 23.9792L19.25 21.0417L12.1875 28.1042C11.8125 28.4792 11.1459 28.5417 10.7084 28.1042C10.5176 27.9052 10.4111 27.6402 10.4111 27.3646C10.4111 27.089 10.5176 26.824 10.7084 26.625L19.8334 17.5L23.7292 21.375C25.7084 23.3542 29.125 23.3333 31.1042 21.375C33.1459 19.3333 33.1459 16.0417 31.1042 14L27.2292 10.125L27.8125 9.54167C29.4375 7.91667 32.0834 7.91667 33.7084 9.54167L42.5417 18.375C44.1667 20 44.1667 22.6458 42.5417 24.2708L25.4584 41.3542Z" fill="#415A77"/>
<path id="Vector_2" d="M25.4584 41.3542C25.0834 41.7292 24.4168 41.7917 23.9793 41.3542C23.7841 41.1575 23.6746 40.8916 23.6746 40.6146C23.6746 40.3375 23.7841 40.0717 23.9793 39.875L31.0418 32.8125L28.1043 29.875L21.0418 36.9375C20.6459 37.3542 19.9793 37.3333 19.5626 36.9375C19.3674 36.7408 19.2579 36.475 19.2579 36.1979C19.2579 35.9208 19.3674 35.655 19.5626 35.4583L26.6251 28.3958L23.6876 25.4583L16.6251 32.5208C16.2501 32.8958 15.5834 32.9583 15.1459 32.5208C14.9552 32.3218 14.8487 32.0569 14.8487 31.7812C14.8487 31.5056 14.9552 31.2406 15.1459 31.0417L22.2084 23.9792L19.2501 21.0417L12.1876 28.1042C11.8126 28.4792 11.1459 28.5417 10.7084 28.1042C10.5177 27.9052 10.4112 27.6402 10.4112 27.3646C10.4112 27.0889 10.5177 26.824 10.7084 26.625L19.8334 17.5L23.7293 21.375C25.7084 23.3542 29.1251 23.3333 31.1043 21.375C33.1459 19.3333 33.1459 16.0417 31.1043 14L27.2293 10.125L27.8126 9.54165C29.4376 7.91665 32.0834 7.91665 33.7084 9.54165L42.5418 18.375C44.1668 20 44.1668 22.6458 42.5418 24.2708L25.4584 41.3542ZM45.4793 27.2292C47.04 25.6639 47.9164 23.5437 47.9164 21.3333C47.9164 19.1229 47.04 17.0027 45.4793 15.4375L36.6459 6.60415C35.0807 5.04342 32.9605 4.16699 30.7501 4.16699C28.5397 4.16699 26.4195 5.04342 24.8543 6.60415L24.2709 7.18749L23.6876 6.60415C22.1224 5.04342 20.0022 4.16699 17.7918 4.16699C15.5814 4.16699 13.4612 5.04342 11.8959 6.60415L4.52093 13.9792C3.11155 15.3837 2.25245 17.247 2.09955 19.2309C1.94665 21.2148 2.51009 23.1877 3.6876 24.7917L6.70843 21.7708C6.3057 20.9845 6.16334 20.0905 6.3019 19.218C6.44045 18.3455 6.85276 17.5395 7.47926 16.9167L14.8543 9.54165C16.4793 7.91665 19.1251 7.91665 20.7501 9.54165L28.1668 16.9583C28.5418 17.3333 28.6043 18 28.1668 18.4375C27.7293 18.875 27.0626 18.8125 26.6876 18.4375L19.8334 11.6042L7.7501 23.6667C5.70843 25.6875 5.70843 29 7.7501 31.0417C8.5626 31.8542 9.60426 32.3542 10.7084 32.5C10.8543 33.6203 11.3666 34.6608 12.1654 35.4597C12.9642 36.2585 14.0048 36.7708 15.1251 36.9167C15.271 38.0369 15.7832 39.0775 16.5821 39.8763C17.3809 40.6752 18.4215 41.1874 19.5418 41.3333C19.6876 42.4583 20.1876 43.4792 21.0001 44.2917C21.9793 45.2708 23.2918 45.8125 24.6876 45.8125C26.0834 45.8125 27.3959 45.2708 28.3751 44.2917L45.4793 27.2292Z" fill="#0D1B2A"/>
</g>
</svg>
