<svg width="262" height="342" viewBox="0 0 262 342" fill="none" xmlns="http://www.w3.org/2000/svg">
<path d="M128.077 337.718C127.519 339.251 126.375 340.499 124.896 341.189C123.417 341.878 121.726 341.952 120.192 341.394L4.58548 299.317C3.05243 298.759 1.80383 297.614 1.11436 296.136C0.424885 294.657 0.351027 292.965 0.909001 291.432C1.46699 289.899 2.61111 288.651 4.0897 287.961C5.56828 287.272 7.26019 287.198 8.79323 287.756L124.4 329.833C125.933 330.391 127.182 331.535 127.871 333.014C128.561 334.493 128.635 336.185 128.077 337.718ZM253.204 173.785C246.554 192.196 235.786 208.845 221.723 222.462C207.66 236.08 190.673 246.305 172.057 252.359C167.537 253.788 163.403 256.233 159.974 259.506C156.544 262.78 153.909 266.795 152.271 271.244L149.115 279.914C147.442 284.513 144.009 288.259 139.573 290.327C135.138 292.396 130.062 292.617 125.463 290.944L32.9772 257.282C28.378 255.608 24.6323 252.175 22.5638 247.739C20.4954 243.304 20.2738 238.228 21.9478 233.629L25.1036 224.958C26.7076 220.546 27.2804 215.826 26.778 211.158C26.2757 206.49 24.7114 202 22.2053 198.03C11.8404 181.508 5.3714 162.844 3.28835 143.452C1.20531 124.06 3.56282 104.448 10.1823 86.1016C33.7368 20.262 106.812 -15.1814 173.108 7.16452C189.431 12.669 204.488 21.3825 217.393 32.7924C230.298 44.2022 240.791 58.0779 248.254 73.6031C255.717 89.1282 260 105.989 260.85 123.194C261.7 140.399 259.1 157.6 253.204 173.785ZM241.644 169.577C246.979 154.931 249.331 139.365 248.561 123.796C247.79 108.228 243.914 92.97 237.158 78.9219C230.403 64.8738 220.906 52.3189 209.225 41.9963C197.545 31.6736 183.918 23.7918 169.146 18.8146C109.126 -1.39441 43.0805 30.6508 21.764 90.2515C15.7846 106.845 13.6581 124.582 15.5457 142.119C17.4332 159.656 23.2853 176.534 32.6589 191.476C36.1576 197.036 38.3375 203.324 39.0317 209.856C39.726 216.389 38.9161 222.994 36.6643 229.166L33.5085 237.837C32.9505 239.37 33.0243 241.062 33.7138 242.54C34.4033 244.019 35.6519 245.163 37.1849 245.721L129.671 279.383C131.204 279.941 132.895 279.867 134.374 279.177C135.853 278.488 136.997 277.239 137.555 275.706L140.711 267.036C142.982 260.843 146.64 255.251 151.404 250.688C156.168 246.126 161.911 242.712 168.196 240.709C185.049 235.232 200.427 225.976 213.157 213.648C225.886 201.32 235.63 186.246 241.644 169.577ZM171.65 59.1009C170.24 58.3941 168.612 58.2562 167.102 58.7159C165.593 59.1755 164.318 60.1974 163.541 61.5704C162.764 62.9434 162.544 64.5625 162.927 66.093C163.31 67.6235 164.266 68.9484 165.598 69.7939C190.275 83.7832 204.504 114.247 199.343 142.185C199.082 143.614 199.334 145.088 200.056 146.348C200.777 147.608 201.921 148.572 203.285 149.07C203.61 149.187 203.944 149.276 204.285 149.336C205.888 149.627 207.541 149.27 208.882 148.344C210.223 147.417 211.141 145.997 211.435 144.394C214.32 127.814 212.053 110.749 204.94 95.4982C197.826 80.2472 186.207 67.544 171.65 59.1009Z" fill="#415A77" fill-opacity="0.2"/>
</svg>
