<svg width="417" height="388" viewBox="0 0 417 388" fill="none" xmlns="http://www.w3.org/2000/svg">
<path d="M208.012 387.559C322.894 387.559 416.024 381.387 416.024 373.774C416.024 366.161 322.894 359.99 208.012 359.99C93.1302 359.99 0 366.161 0 373.774C0 381.387 93.1302 387.559 208.012 387.559Z" fill="#F5F5F5"/>
<path d="M137.838 373.774L104.033 373.774C102.758 373.774 101.536 373.199 100.635 372.176C99.7332 371.153 99.2269 369.766 99.2269 368.319V301.455H142.645V368.331C142.642 369.776 142.134 371.16 141.233 372.181C140.332 373.201 139.111 373.774 137.838 373.774Z" fill="#407BFF"/>
<path opacity="0.2" d="M142.645 301.455H99.238V330.473L142.645 319.793V301.455Z" fill="black"/>
<path d="M161.323 213.732C161.323 195.323 167.765 177.669 179.233 164.652C190.702 151.635 206.256 144.323 222.474 144.323C238.693 144.323 254.247 151.635 265.715 164.652C277.183 177.669 283.626 195.323 283.626 213.732V301.406H161.323V213.732Z" fill="#407BFF"/>
<path opacity="0.3" d="M161.323 213.732C161.323 195.323 167.765 177.669 179.233 164.652C190.702 151.635 206.256 144.323 222.474 144.323C238.693 144.323 254.247 151.635 265.715 164.652C277.183 177.669 283.626 195.323 283.626 213.732V301.406H161.323V213.732Z" fill="black"/>
<path d="M17.3591 213.719V292.809C17.3591 293.946 17.5565 295.071 17.94 296.121C18.3234 297.17 18.8855 298.124 19.5939 298.927C20.3024 299.73 21.1434 300.366 22.0687 300.8C22.9941 301.234 23.9858 301.456 24.987 301.455H161.323V213.719C161.323 195.311 167.766 177.657 179.234 164.64C190.702 151.623 206.256 144.311 222.475 144.311H78.5108C62.2924 144.311 46.7382 151.623 35.27 164.64C23.8019 177.657 17.3591 195.311 17.3591 213.719Z" fill="#407BFF"/>
<path opacity="0.2" d="M17.3694 275.567H161.333V251.213L17.3694 251.213V275.567Z" fill="black"/>
<path opacity="0.2" d="M17.3694 243.651L161.333 243.651V219.297L17.3694 219.297V243.651Z" fill="black"/>
<path d="M170.346 140.049H152.826V141.266H170.346V140.049Z" fill="#407BFF"/>
<path d="M143.642 140.049H134.223V141.266H143.642V140.049Z" fill="#407BFF"/>
<path d="M87.7696 236.539V137.905C87.7697 137.512 87.6943 137.124 87.5486 136.767C87.4028 136.41 87.1903 136.094 86.9257 135.84C86.6611 135.586 86.351 135.401 86.0168 135.297C85.6827 135.193 85.3326 135.173 84.9909 135.239L54.6619 140.901V155.185H77.8459V236.32C75.5047 237.541 73.5976 239.627 72.4363 242.237C71.2751 244.848 70.9284 247.828 71.453 250.691C71.9776 253.554 73.3423 256.13 75.3242 257.999C77.306 259.867 79.7878 260.917 82.3636 260.977C84.9394 261.038 87.457 260.104 89.5048 258.329C91.5526 256.555 93.0094 254.044 93.6371 251.208C94.2648 248.372 94.0263 245.378 92.9605 242.716C91.8947 240.053 90.0646 237.88 87.7696 236.551V236.539Z" fill="#263238"/>
<path d="M170.023 311.379H326.915C328.06 311.382 329.16 310.873 329.975 309.961C330.791 309.048 331.256 307.808 331.27 306.508C331.27 305.197 330.812 303.94 329.995 303.013C329.178 302.085 328.07 301.564 326.915 301.564H161.323C161.337 304.173 162.26 306.669 163.89 308.508C165.52 310.347 167.725 311.379 170.023 311.379Z" fill="#407BFF"/>
<path opacity="0.2" d="M170.023 311.379H234.136C235.281 311.382 236.381 310.873 237.196 309.961C238.012 309.048 238.477 307.808 238.492 306.508C238.492 305.197 238.033 303.94 237.216 303.013C236.399 302.085 235.291 301.564 234.136 301.564H161.323C161.337 304.173 162.26 306.669 163.89 308.508C165.52 310.347 167.725 311.379 170.023 311.379Z" fill="black"/>
<path d="M320.103 362.985L311.026 363.071L308.548 339.216L317.635 339.131L320.103 362.985Z" fill="#FF8B7B"/>
<path opacity="0.2" d="M308.548 339.228L309.825 351.527L318.912 351.429L317.635 339.143L308.548 339.228Z" fill="black"/>
<path d="M393.871 337.694L386.061 342.954L373.347 323.751L381.158 318.491L393.871 337.694Z" fill="#FF8B7B"/>
<path opacity="0.2" d="M373.358 323.751L379.902 333.651L387.723 328.39L381.168 318.491L373.358 323.751Z" fill="black"/>
<path d="M311.005 361.877L320.929 361.78C321.112 361.781 321.29 361.85 321.437 361.975C321.584 362.099 321.691 362.274 321.744 362.474L324.147 371.619C324.209 371.831 324.225 372.057 324.194 372.277C324.163 372.498 324.086 372.707 323.969 372.887C323.853 373.067 323.7 373.212 323.524 373.312C323.348 373.411 323.153 373.461 322.956 373.458C319.373 373.458 314.191 373.238 309.685 373.287C304.428 373.287 302.09 373.713 295.921 373.774C292.187 373.774 290.878 369.537 292.413 369.135C299.397 367.308 303.012 367.065 308.87 362.705C309.497 362.202 310.238 361.914 311.005 361.877Z" fill="#263238"/>
<path d="M307.261 363.74C308.239 363.719 309.213 363.585 310.168 363.339C310.212 363.33 310.251 363.305 310.281 363.267C310.31 363.23 310.327 363.182 310.329 363.131C310.333 363.082 310.325 363.032 310.304 362.989C310.282 362.945 310.25 362.91 310.211 362.888C309.782 362.644 305.92 360.574 304.922 361.305C304.825 361.375 304.747 361.473 304.694 361.588C304.642 361.704 304.616 361.833 304.621 361.962C304.61 362.195 304.648 362.426 304.732 362.638C304.816 362.85 304.944 363.036 305.104 363.18C305.751 363.627 306.507 363.823 307.261 363.74ZM309.406 363.01C307.443 363.399 305.952 363.314 305.351 362.766C305.246 362.67 305.162 362.547 305.106 362.407C305.051 362.268 305.024 362.116 305.029 361.962C305.025 361.916 305.032 361.869 305.049 361.826C305.066 361.783 305.092 361.746 305.126 361.719C305.716 361.305 307.872 362.182 309.428 362.985L309.406 363.01Z" fill="#407BFF"/>
<path d="M310.126 363.326C310.168 363.337 310.212 363.337 310.255 363.326C310.286 363.301 310.31 363.265 310.324 363.224C310.337 363.182 310.339 363.138 310.33 363.095C310.33 362.9 309.622 358.468 307.455 358.748C306.886 358.821 306.725 359.137 306.693 359.405C306.543 360.623 308.838 362.79 310.04 363.351L310.126 363.326ZM307.637 359.174C308.935 359.174 309.589 361.609 309.783 362.632C308.592 361.865 306.993 360.112 307.079 359.43C307.079 359.43 307.079 359.223 307.465 359.174H307.637Z" fill="#407BFF"/>
<path d="M324.18 78.3476C322.989 86.1774 321.476 93.6907 319.642 101.277C318.726 105.06 317.714 108.831 316.606 112.589C316.026 114.477 315.479 116.352 314.825 118.227C314.513 119.165 314.202 120.103 313.848 121.04L313.344 122.453L313.087 123.147L312.947 123.524L312.754 123.999C311.873 126.152 310.795 128.193 309.536 130.088C308.463 131.805 307.293 133.388 306.145 134.959C303.85 138.027 301.457 140.877 299.032 143.677C294.19 149.198 289.098 154.429 283.777 159.349L278.938 153.882C283.069 147.927 287.231 141.912 291.254 135.957C293.261 132.986 295.213 129.966 297.037 126.983C297.949 125.497 298.818 123.999 299.58 122.538C300.269 121.294 300.858 119.982 301.339 118.617C301.403 118.471 301.554 117.886 301.672 117.497L302.036 116.206C302.294 115.366 302.519 114.489 302.744 113.612C303.206 111.871 303.635 110.093 304.075 108.327C304.912 104.76 305.695 101.155 306.457 97.5264C307.937 90.2202 309.364 82.8409 310.651 75.6078L324.18 78.3476Z" fill="#FF8B7B"/>
<path d="M327.387 79.7723C326.84 91.5353 321.819 108.047 321.819 108.047L307.722 101.959L301.918 99.5234C302.683 91.7355 304.312 84.0885 306.767 76.7646C311.059 64.2223 321.004 61.1658 326.078 70.396C327.259 72.4783 327.57 75.8635 327.387 79.7723Z" fill="#407BFF"/>
<path opacity="0.2" d="M327.388 79.7723C326.841 91.5353 321.82 108.047 321.82 108.047L307.723 101.959C308.562 97.8088 309.659 93.7315 311.006 89.7575C314.524 79.3096 322.034 75.4495 327.388 79.7723Z" fill="black"/>
<path d="M281.223 152.725L271.653 154.503L271.578 165.158C271.578 165.158 280.761 163.696 284.355 158.704L281.223 152.725Z" fill="#FF8B7B"/>
<path d="M262.792 160.676L262.996 167.678L271.578 165.158L271.643 154.503L262.792 160.676Z" fill="#FF8B7B"/>
<path d="M317.313 154.503C317.313 154.503 303.677 210.846 300.062 242.384C296.307 275.189 305.168 345.536 305.168 345.536L321.572 345.134C321.572 345.134 322.806 273.423 328.17 241.166C334.049 206.011 345.249 153.821 345.249 153.821L317.313 154.503Z" fill="#263238"/>
<path d="M323.59 345.974L304.3 346.412L302.884 339.143L323.343 339.082L323.59 345.974Z" fill="#407BFF"/>
<path opacity="0.4" d="M323.59 345.974L304.3 346.412L302.884 339.143L323.343 339.082L323.59 345.974Z" fill="white"/>
<path d="M385.514 341.931L394.043 336.184C394.208 336.063 394.405 336.011 394.6 336.035C394.796 336.06 394.978 336.159 395.116 336.318L401.242 342.845C401.39 342.993 401.506 343.179 401.578 343.388C401.649 343.597 401.676 343.823 401.655 344.046C401.634 344.27 401.566 344.484 401.457 344.671C401.347 344.858 401.2 345.013 401.027 345.122C397.916 347.143 393.356 349.992 389.483 352.537C384.967 355.594 383.046 357.25 377.8 360.818C374.582 362.985 371.567 360.051 372.715 358.821C377.94 353.244 380.954 350.967 384.087 343.867C384.389 343.08 384.884 342.408 385.514 341.931Z" fill="#263238"/>
<path d="M383.089 345.657C383.922 345.076 384.705 344.408 385.428 343.66C385.459 343.624 385.481 343.579 385.49 343.529C385.5 343.48 385.497 343.428 385.481 343.38C385.465 343.332 385.435 343.292 385.396 343.266C385.357 343.239 385.312 343.228 385.267 343.234C384.784 343.234 380.568 343.648 379.999 344.89C379.938 345.002 379.906 345.131 379.906 345.262C379.906 345.393 379.938 345.522 379.999 345.633C380.093 345.831 380.227 346 380.389 346.129C380.551 346.258 380.737 346.343 380.933 346.376C381.701 346.41 382.459 346.158 383.089 345.657ZM384.645 343.782C383.121 345.243 381.791 346.023 381.029 345.889C380.897 345.866 380.771 345.81 380.661 345.723C380.551 345.637 380.461 345.522 380.396 345.39C380.373 345.347 380.361 345.299 380.361 345.25C380.361 345.2 380.373 345.152 380.396 345.11C380.739 344.452 382.939 343.977 384.645 343.782Z" fill="#407BFF"/>
<path d="M385.396 343.685C385.432 343.653 385.462 343.611 385.481 343.563C385.503 343.527 385.514 343.485 385.514 343.441C385.514 343.398 385.503 343.356 385.481 343.319C385.374 343.173 382.81 339.666 381.072 341.201C380.611 341.59 380.611 341.968 380.697 342.211C381.083 343.295 384.087 343.892 385.342 343.721L385.396 343.685ZM381.405 341.517C382.531 340.774 384.162 342.479 384.827 343.259C383.443 343.259 381.297 342.674 381.061 342.041C381.061 342.041 380.997 341.858 381.287 341.615L381.405 341.517Z" fill="#407BFF"/>
<path d="M334.275 154.089C334.275 154.089 334.275 209.445 335.552 241.215C336.861 274.264 373.23 331.13 373.23 331.13L387.23 321.389C387.23 321.389 362.662 267.274 363.038 234.457C363.446 198.669 365.892 153.285 365.892 153.285L334.275 154.089Z" fill="#263238"/>
<path d="M389.033 321.376L373.531 332.117L369.658 327.745L386.716 314.837L389.033 321.376Z" fill="#407BFF"/>
<path opacity="0.4" d="M389.033 321.376L373.531 332.117L369.658 327.745L386.716 314.837L389.033 321.376Z" fill="white"/>
<path d="M316.187 65.4034C316.187 65.4034 306.049 96.7958 317.313 154.515L365.891 153.297C366.063 144.834 360.602 103.664 367.05 63.6134C361.642 62.5863 356.18 61.9639 350.7 61.7503C343.817 61.4566 336.925 61.6233 330.059 62.2496C325.369 62.8892 320.731 63.9437 316.187 65.4034Z" fill="#407BFF"/>
<path d="M348.2 35.3628C347.042 42.9247 346.001 56.7821 350.743 61.7016C350.743 61.7016 349.069 69.434 336.732 69.6898C326.872 69.8968 330.102 62.2009 330.102 62.2009C337.472 60.009 337.161 53.7744 335.755 47.9538L348.2 35.3628Z" fill="#FF8B7B"/>
<path opacity="0.2" d="M343.126 40.4893L335.766 47.9416C336.109 49.2953 336.346 50.6807 336.474 52.0818C339.296 51.5582 343.126 47.9294 343.362 44.5564C343.502 43.1957 343.422 41.8173 343.126 40.4893Z" fill="black"/>
<path opacity="0.2" d="M356.215 83.5837L364.315 90.208C363.96 97.2585 363.853 104.114 363.907 110.544C358.94 104.869 356.161 94.4334 356.215 83.5837Z" fill="black"/>
<path d="M348.973 57.9389C348.973 57.9389 346.645 64.2953 335.777 69.7019C337.525 70.4989 339.107 71.7012 340.422 73.2319C341.738 74.7625 342.757 76.5878 343.415 78.5912C343.415 78.5912 351.322 70.0672 353.436 61.5433L348.973 57.9389Z" fill="white"/>
<path d="M327.655 76.2897C327.655 76.2897 330.981 70.81 335.777 69.7019C334.092 67.364 332.354 62.1765 333.964 59.7168C332.55 60.1399 331.18 60.7318 329.876 61.4825C329.876 61.4825 323.353 65.9271 327.655 76.2897Z" fill="white"/>
<path d="M326.7 13.712C322.27 15.8674 320.07 29.4082 325.842 32.355C331.614 35.3019 335.09 9.64491 326.7 13.712Z" fill="#263238"/>
<path d="M348.78 24.0016C348.415 34.2303 348.662 40.2336 344.22 45.5793C337.536 53.6283 326.347 49.2324 324.008 39.0889C321.862 29.9562 322.849 14.7349 331.571 10.4973C333.492 9.5432 335.595 9.16228 337.682 9.39075C339.769 9.61922 341.769 10.4495 343.493 11.8027C345.218 13.1558 346.609 14.987 347.534 17.1221C348.459 19.2572 348.888 21.6254 348.78 24.0016Z" fill="#FF8B7B"/>
<path d="M335.186 27.1798C335.186 28.0078 334.832 28.6898 334.349 28.7019C333.866 28.7141 333.469 28.0444 333.459 27.2163C333.448 26.3883 333.813 25.7064 334.296 25.6942C334.778 25.682 335.175 26.3396 335.186 27.1798Z" fill="#263238"/>
<path d="M326.904 27.3746C326.904 28.2027 326.55 28.8846 326.067 28.8968C325.584 28.9089 325.187 28.2514 325.177 27.4112C325.166 26.5709 325.531 25.9012 326.014 25.889C326.496 25.8769 326.893 26.5466 326.904 27.3746Z" fill="#263238"/>
<path d="M329.554 27.7278C328.727 30.2902 327.593 32.7117 326.186 34.9244C326.693 35.3174 327.27 35.5799 327.876 35.6934C328.482 35.807 329.102 35.769 329.694 35.5819L329.554 27.7278Z" fill="#FF5652"/>
<path d="M331.872 37.8225C332.857 37.8318 333.83 37.5709 334.708 37.0621C335.586 36.5534 336.343 35.8117 336.914 34.9C336.929 34.8732 336.939 34.8431 336.944 34.8116C336.948 34.7801 336.947 34.7479 336.94 34.717C336.933 34.6861 336.92 34.6573 336.903 34.6322C336.885 34.6071 336.864 34.5863 336.839 34.5712C336.792 34.5387 336.735 34.5282 336.681 34.5418C336.627 34.5554 336.58 34.5921 336.549 34.6443C336.009 35.479 335.303 36.1576 334.488 36.6251C333.674 37.0927 332.774 37.336 331.861 37.3354C331.833 37.337 331.805 37.3448 331.78 37.3586C331.754 37.3723 331.731 37.3915 331.712 37.4153C331.693 37.439 331.679 37.4668 331.669 37.497C331.66 37.5272 331.656 37.5592 331.657 37.5912C331.66 37.6536 331.684 37.7125 331.724 37.7555C331.763 37.7986 331.817 37.8226 331.872 37.8225Z" fill="#263238"/>
<path d="M337.622 24.0868C337.72 24.0834 337.813 24.045 337.89 23.9772C337.978 23.8962 338.034 23.779 338.046 23.6513C338.058 23.5236 338.025 23.3957 337.955 23.2953C337.543 22.6759 337.007 22.177 336.391 21.8402C335.776 21.5035 335.098 21.3385 334.414 21.3592C334.301 21.3705 334.195 21.4326 334.122 21.532C334.049 21.6313 334.013 21.7597 334.023 21.8889C334.033 22.0181 334.088 22.1375 334.175 22.2208C334.263 22.3042 334.376 22.3446 334.49 22.3333C335.03 22.3276 335.563 22.4657 336.047 22.7364C336.532 23.007 336.954 23.4029 337.279 23.892C337.318 23.9532 337.37 24.0028 337.43 24.0367C337.49 24.0706 337.555 24.0878 337.622 24.0868Z" fill="#263238"/>
<path d="M323.214 24.233C323.297 24.2319 323.377 24.2053 323.447 24.1559C323.517 24.1065 323.574 24.0363 323.611 23.9529C323.823 23.3823 324.153 22.8783 324.573 22.4839C324.993 22.0895 325.491 21.8164 326.025 21.688C326.138 21.6669 326.239 21.5966 326.308 21.492C326.376 21.3874 326.405 21.2567 326.39 21.1278C326.369 21.0008 326.306 20.8875 326.215 20.8107C326.123 20.7339 326.009 20.6993 325.896 20.7138C325.229 20.8766 324.605 21.2178 324.077 21.7092C323.549 22.2005 323.132 22.8278 322.86 23.5389C322.835 23.5962 322.82 23.6587 322.817 23.7226C322.814 23.7866 322.822 23.8506 322.841 23.9109C322.86 23.9712 322.889 24.0265 322.928 24.0735C322.966 24.1204 323.012 24.1581 323.064 24.1842C323.111 24.2113 323.162 24.2279 323.214 24.233Z" fill="#263238"/>
<path d="M368.606 70.8831C370.634 74.1953 372.415 77.4343 374.249 80.7708C376.084 84.1073 377.779 87.4682 379.463 90.8778C382.878 97.7832 385.917 104.92 388.561 112.248C388.904 113.162 389.205 114.136 389.516 115.086L389.988 116.523L390.224 117.253L390.503 118.252C391.187 120.876 391.434 123.622 391.232 126.349C390.808 131.115 389.408 135.702 387.145 139.744C385.175 143.353 382.83 146.681 380.161 149.656C378.884 151.117 377.532 152.469 376.159 153.772C374.768 155.075 373.318 156.295 371.814 157.425L367.447 151.483C368.402 150.265 369.486 148.755 370.451 147.355C371.417 145.954 372.361 144.457 373.252 142.995C374.988 140.187 376.479 137.194 377.704 134.057C378.771 131.447 379.331 128.606 379.345 125.728C379.307 124.63 379.104 123.547 378.744 122.526L377.886 120.358C377.554 119.555 377.253 118.739 376.888 117.923C374.121 111.408 370.923 104.93 367.566 98.5249C364.208 92.1198 360.689 85.6904 357.202 79.541L368.606 70.8831Z" fill="#FF8B7B"/>
<path d="M367.05 63.6378C375.536 65.7201 387.745 95.432 387.745 95.432L365.011 108.023C360.968 101.004 357.608 93.5081 354.991 85.666C351.032 73.1115 357.963 61.3972 367.05 63.6378Z" fill="#407BFF"/>
<path d="M358.971 140.049L381.812 216.63C382.699 219.635 382.503 222.917 381.267 225.759C380.031 228.602 377.855 230.774 375.214 231.802L221.68 290.885C219.029 291.895 216.134 291.671 213.629 290.263C211.124 288.854 209.212 286.377 208.313 283.372L185.483 206.815C185.043 205.364 184.86 203.829 184.946 202.297C185.069 199.918 185.814 197.635 187.084 195.737C188.355 193.84 190.094 192.414 192.081 191.643L345.646 132.56C347.635 131.8 349.778 131.731 351.801 132.359C353.825 132.988 355.637 134.288 357.008 136.091C357.886 137.25 358.553 138.595 358.971 140.049Z" fill="#407BFF"/>
<path opacity="0.8" d="M358.971 140.049L381.812 216.63C382.699 219.635 382.503 222.917 381.267 225.759C380.031 228.602 377.855 230.774 375.214 231.802L221.68 290.885C219.029 291.895 216.134 291.671 213.629 290.263C211.124 288.854 209.212 286.377 208.313 283.372L185.483 206.815C185.043 205.364 184.86 203.829 184.946 202.297C185.069 199.918 185.814 197.635 187.084 195.737C188.355 193.84 190.094 192.414 192.081 191.643L345.646 132.56C347.635 131.8 349.778 131.731 351.801 132.359C353.825 132.988 355.637 134.288 357.008 136.091C357.886 137.25 358.553 138.595 358.971 140.049Z" fill="white"/>
<path opacity="0.6" d="M356.966 136.091L293.443 200.568C290.25 203.806 286.513 206.279 282.457 207.838C278.402 209.397 274.11 210.01 269.841 209.64L184.894 202.334C185.017 199.955 185.761 197.671 187.032 195.774C188.302 193.876 190.041 192.451 192.028 191.679L345.594 132.596C347.581 131.83 349.724 131.753 351.749 132.376C353.775 132.998 355.591 134.292 356.966 136.091Z" fill="#407BFF"/>
<path d="M369.743 150.058L359.98 150.131L365.999 161.322C365.999 161.322 372.951 159.41 373.595 155.44L369.743 150.058Z" fill="#FF8B7B"/>
<path d="M353.876 156.695L359.23 165.693L365.999 161.322L359.981 150.131L353.876 156.695Z" fill="#FF8B7B"/>
<path d="M354.927 15.8065C357.072 22.4795 350.582 37.9321 346.805 37.6398C343.029 37.3476 341.999 21.2861 344.145 17.2921C342.106 18.3636 322.688 18.4002 322.785 16.0744C323.278 7.6235 336.485 4.55489 350.968 8.76814C354.734 8.56113 356.139 9.73012 354.927 15.8065Z" fill="#263238"/>
<path d="M353.05 35.1436C352.476 36.2389 351.715 37.1938 350.812 37.9526C349.91 38.7114 348.884 39.2591 347.793 39.5638C344.875 40.3675 343.502 37.3841 344.424 34.3155C345.229 31.5513 347.718 27.813 350.615 28.3731C353.511 28.9333 354.466 32.4281 353.05 35.1436Z" fill="#FF8B7B"/>
<path d="M311.208 11.8246L355.774 17.6696C355.998 17.697 356.223 17.6229 356.4 17.4634C356.577 17.3038 356.691 17.0716 356.718 16.8172C356.742 16.5642 356.678 16.3104 356.54 16.1102C356.402 15.9099 356.2 15.7791 355.978 15.7456L311.401 9.9128C311.178 9.88514 310.955 9.95756 310.778 10.1146C310.602 10.2716 310.487 10.5008 310.457 10.753C310.433 11.0078 310.498 11.2632 310.639 11.4638C310.779 11.6644 310.984 11.794 311.208 11.8246Z" fill="#407BFF"/>
<path d="M356.718 16.7684L357.491 9.2187C357.482 8.39319 357.203 7.60097 356.707 6.99728C356.21 6.3936 355.534 6.02198 354.809 5.95526L327.441 0.0859431C325.413 -0.352429 323.546 0.93833 323.557 2.76488V12.4334L356.718 16.7684Z" fill="#407BFF"/>
<path d="M326.111 10.205L337.697 11.7272L338.094 7.89141L326.122 6.33275L326.111 10.205Z" fill="white"/>
</svg>
