<svg width="22" height="28" viewBox="0 0 22 28" fill="none" xmlns="http://www.w3.org/2000/svg">
<path fill-rule="evenodd" clip-rule="evenodd" d="M11.4916 15.5C12.6851 15.5 13.8296 15.0259 14.6736 14.182C15.5175 13.3381 15.9916 12.1935 15.9916 11C15.9916 9.80653 15.5175 8.66193 14.6736 7.81802C13.8296 6.97411 12.6851 6.5 11.4916 6.5C10.2981 6.5 9.15351 6.97411 8.3096 7.81802C7.46568 8.66193 6.99158 9.80653 6.99158 11C6.99158 12.1935 7.46568 13.3381 8.3096 14.182C9.15351 15.0259 10.2981 15.5 11.4916 15.5ZM11.4916 8C12.2872 8 13.0503 8.31607 13.6129 8.87868C14.1755 9.44129 14.4916 10.2044 14.4916 11C14.4916 11.7956 14.1755 12.5587 13.6129 13.1213C13.0503 13.6839 12.2872 14 11.4916 14C10.6959 14 9.93287 13.6839 9.37026 13.1213C8.80765 12.5587 8.49158 11.7956 8.49158 11C8.49158 10.2044 8.80765 9.44129 9.37026 8.87868C9.93287 8.31607 10.6959 8 11.4916 8Z" fill="#E0E1DD"/>
<path fill-rule="evenodd" clip-rule="evenodd" d="M0.991577 11.1845C0.991577 17.1875 7.32608 27.5 11.4916 27.5C15.6571 27.5 21.9916 17.1875 21.9916 11.1845C21.9916 5.2865 17.2936 0.5 11.4916 0.5C5.68958 0.5 0.991577 5.2865 0.991577 11.1845ZM20.4916 11.1845C20.4916 16.4645 14.6356 26 11.4916 26C8.34758 26 2.49158 16.4645 2.49158 11.1845C2.49158 6.11 6.52358 2 11.4916 2C16.4596 2 20.4916 6.11 20.4916 11.1845Z" fill="#E0E1DD"/>
</svg>
