<svg width="61" height="60" viewBox="0 0 61 60" fill="none" xmlns="http://www.w3.org/2000/svg">
<g id="Icon">
<rect id="Rectangle 87" x="0.0703125" width="60" height="60" rx="10" fill="white"/>
<g id="Timely Clock">
<path id="Subtract" fill-rule="evenodd" clip-rule="evenodd" d="M18.1677 31.9986C18.112 31.9995 18.0561 32 18.0002 32C16.9847 32 16.0045 31.8486 15.0811 31.5672C15.8646 39.1151 22.2449 45 30.0002 45C38.2847 45 45.0002 38.2845 45.0002 30C45.0002 21.7155 38.2847 15 30.0002 15C28.5072 15 27.0652 15.2181 25.7043 15.6241C26.3667 16.4236 26.907 17.3279 27.2967 18.3085C28.1763 18.105 29.0828 18 30.0002 18C33.1828 18 36.235 19.2643 38.4855 21.5147C40.7359 23.7652 42.0002 26.8174 42.0002 30C42.0002 33.1826 40.7359 36.2348 38.4855 38.4853C36.235 40.7357 33.1828 42 30.0002 42C26.8176 42 23.7653 40.7357 21.5149 38.4853C19.7412 36.7116 18.5801 34.4398 18.1677 31.9986ZM30.9967 21.3791C30.7222 21.1349 30.3676 21 30.0002 21C29.6023 21 29.2208 21.158 28.9395 21.4393C28.6582 21.7206 28.5002 22.1022 28.5002 22.5V30L28.5137 30.1965C28.5568 30.5235 28.7065 30.8272 28.9397 31.0605L33.4397 35.5605L33.5807 35.685C33.8822 35.9181 34.2611 36.0277 34.6405 35.9916C35.0198 35.9555 35.3712 35.7763 35.6233 35.4904C35.8753 35.2046 36.0091 34.8335 35.9975 34.4526C35.9859 34.0717 35.8297 33.7094 35.5607 33.4395L31.5002 29.379V22.5L31.4897 22.3245C31.4467 21.9596 31.2713 21.6232 30.9967 21.3791Z" fill="#415A77"/>
<path id="Subtract_2" fill-rule="evenodd" clip-rule="evenodd" d="M18.5 31C23.1944 31 27 27.1944 27 22.5C27 17.8056 23.1944 14 18.5 14C13.8056 14 10 17.8056 10 22.5C10 27.1944 13.8056 31 18.5 31ZM13.8881 22.302L16.4958 25.1007L23.1183 18L24 18.9463L16.4958 27L13 23.2483L13.8881 22.302Z" fill="#415A77"/>
</g>
</g>
</svg>
