<svg width="31" height="30" viewBox="0 0 31 30" fill="none" xmlns="http://www.w3.org/2000/svg">
<path d="M10.8041 24.375V28.125M5.17908 1.875H16.4291C16.9264 1.875 17.4033 2.07254 17.7549 2.42417C18.1065 2.77581 18.3041 3.25272 18.3041 3.75V27.8906C18.3041 27.9528 18.2794 28.0124 18.2354 28.0564C18.1915 28.1003 18.1319 28.125 18.0697 28.125H3.30408V3.75C3.30408 3.25272 3.50162 2.77581 3.85325 2.42417C4.20488 2.07254 4.6818 1.875 5.17908 1.875ZM19.2416 11.25H25.8041C26.3014 11.25 26.7783 11.4475 27.1299 11.7992C27.4815 12.1508 27.6791 12.6277 27.6791 13.125V28.125H18.3041V12.1875C18.3041 11.9389 18.4028 11.7004 18.5787 11.5246C18.7545 11.3488 18.9929 11.25 19.2416 11.25Z" stroke="#E0E1DD" stroke-width="1.875" stroke-linecap="round" stroke-linejoin="round"/>
<path d="M6.23846 25.3048C6.0443 25.3302 5.84706 25.2942 5.67442 25.2018C5.50178 25.1093 5.36242 24.9652 5.27589 24.7895C5.18936 24.6139 5.16 24.4155 5.19194 24.2223C5.22388 24.0291 5.31551 23.8508 5.45397 23.7123C5.59243 23.5739 5.77078 23.4822 5.96397 23.4503C6.15717 23.4184 6.35551 23.4477 6.53117 23.5343C6.70683 23.6208 6.85098 23.7601 6.9434 23.9328C7.03582 24.1054 7.07186 24.3027 7.04647 24.4968C7.01967 24.7017 6.92592 24.892 6.7798 25.0382C6.63367 25.1843 6.44336 25.278 6.23846 25.3048ZM6.23846 20.6173C6.0443 20.6427 5.84706 20.6067 5.67442 20.5143C5.50178 20.4218 5.36242 20.2777 5.27589 20.102C5.18936 19.9264 5.16 19.728 5.19194 19.5348C5.22388 19.3416 5.31551 19.1633 5.45397 19.0248C5.59243 18.8864 5.77078 18.7947 5.96397 18.7628C6.15717 18.7309 6.35551 18.7602 6.53117 18.8468C6.70683 18.9333 6.85098 19.0726 6.9434 19.2453C7.03582 19.4179 7.07186 19.6152 7.04647 19.8093C7.01967 20.0142 6.92592 20.2045 6.7798 20.3507C6.63367 20.4968 6.44336 20.5905 6.23846 20.6173ZM6.23846 15.9298C6.0443 15.9552 5.84706 15.9192 5.67442 15.8268C5.50178 15.7343 5.36242 15.5902 5.27589 15.4145C5.18936 15.2389 5.16 15.0405 5.19194 14.8473C5.22388 14.6541 5.31551 14.4758 5.45397 14.3373C5.59243 14.1989 5.77078 14.1072 5.96397 14.0753C6.15717 14.0434 6.35551 14.0727 6.53117 14.1593C6.70683 14.2458 6.85098 14.3851 6.9434 14.5578C7.03582 14.7304 7.07186 14.9277 7.04647 15.1218C7.01967 15.3267 6.92592 15.517 6.7798 15.6632C6.63367 15.8093 6.44336 15.903 6.23846 15.9298ZM6.23846 11.2423C6.0443 11.2677 5.84706 11.2317 5.67442 11.1393C5.50178 11.0468 5.36242 10.9027 5.27589 10.727C5.18936 10.5514 5.16 10.353 5.19194 10.1598C5.22388 9.96664 5.31551 9.7883 5.45397 9.64983C5.59243 9.51137 5.77078 9.41974 5.96397 9.3878C6.15717 9.35586 6.35551 9.38522 6.53117 9.47175C6.70683 9.55828 6.85098 9.69765 6.9434 9.87028C7.03582 10.0429 7.07186 10.2402 7.04647 10.4343C7.01967 10.6392 6.92592 10.8295 6.7798 10.9757C6.63367 11.1218 6.44336 11.2155 6.23846 11.2423ZM6.23846 6.55483C6.0443 6.58022 5.84706 6.54418 5.67442 6.45176C5.50178 6.35935 5.36242 6.21519 5.27589 6.03953C5.18936 5.86387 5.16 5.66553 5.19194 5.47233C5.22388 5.27914 5.31551 5.1008 5.45397 4.96233C5.59243 4.82387 5.77078 4.73224 5.96397 4.7003C6.15717 4.66836 6.35551 4.69772 6.53117 4.78425C6.70683 4.87078 6.85098 5.01015 6.9434 5.18278C7.03582 5.35542 7.07186 5.55266 7.04647 5.74682C7.01967 5.95173 6.92592 6.14203 6.7798 6.28816C6.63367 6.43428 6.44336 6.52803 6.23846 6.55483ZM10.926 20.6173C10.7318 20.6427 10.5346 20.6067 10.3619 20.5143C10.1893 20.4218 10.0499 20.2777 9.96339 20.102C9.87686 19.9264 9.8475 19.728 9.87944 19.5348C9.91138 19.3416 10.003 19.1633 10.1415 19.0248C10.2799 18.8864 10.4583 18.7947 10.6515 18.7628C10.8447 18.7309 11.043 18.7602 11.2187 18.8468C11.3943 18.9333 11.5385 19.0726 11.6309 19.2453C11.7233 19.4179 11.7594 19.6152 11.734 19.8093C11.7072 20.0142 11.6134 20.2045 11.4673 20.3507C11.3212 20.4968 11.1309 20.5905 10.926 20.6173ZM10.926 15.9298C10.7318 15.9552 10.5346 15.9192 10.3619 15.8268C10.1893 15.7343 10.0499 15.5902 9.96339 15.4145C9.87686 15.2389 9.8475 15.0405 9.87944 14.8473C9.91138 14.6541 10.003 14.4758 10.1415 14.3373C10.2799 14.1989 10.4583 14.1072 10.6515 14.0753C10.8447 14.0434 11.043 14.0727 11.2187 14.1593C11.3943 14.2458 11.5385 14.3851 11.6309 14.5578C11.7233 14.7304 11.7594 14.9277 11.734 15.1218C11.7072 15.3267 11.6134 15.517 11.4673 15.6632C11.3212 15.8093 11.1309 15.903 10.926 15.9298ZM10.926 11.2423C10.7318 11.2677 10.5346 11.2317 10.3619 11.1393C10.1893 11.0468 10.0499 10.9027 9.96339 10.727C9.87686 10.5514 9.8475 10.353 9.87944 10.1598C9.91138 9.96664 10.003 9.7883 10.1415 9.64983C10.2799 9.51137 10.4583 9.41974 10.6515 9.3878C10.8447 9.35586 11.043 9.38522 11.2187 9.47175C11.3943 9.55828 11.5385 9.69765 11.6309 9.87028C11.7233 10.0429 11.7594 10.2402 11.734 10.4343C11.7072 10.6392 11.6134 10.8295 11.4673 10.9757C11.3212 11.1218 11.1309 11.2155 10.926 11.2423ZM10.926 6.55483C10.7318 6.58022 10.5346 6.54418 10.3619 6.45176C10.1893 6.35935 10.0499 6.21519 9.96339 6.03953C9.87686 5.86387 9.8475 5.66553 9.87944 5.47233C9.91138 5.27914 10.003 5.1008 10.1415 4.96233C10.2799 4.82387 10.4583 4.73224 10.6515 4.7003C10.8447 4.66836 11.043 4.69772 11.2187 4.78425C11.3943 4.87078 11.5385 5.01015 11.6309 5.18278C11.7233 5.35542 11.7594 5.55266 11.734 5.74682C11.7072 5.95173 11.6134 6.14203 11.4673 6.28816C11.3212 6.43428 11.1309 6.52803 10.926 6.55483ZM15.6135 25.3048C15.4193 25.3302 15.2221 25.2942 15.0494 25.2018C14.8768 25.1093 14.7374 24.9652 14.6509 24.7895C14.5644 24.6139 14.535 24.4155 14.5669 24.2223C14.5989 24.0291 14.6905 23.8508 14.829 23.7123C14.9674 23.5739 15.1458 23.4822 15.339 23.4503C15.5322 23.4184 15.7305 23.4477 15.9062 23.5343C16.0818 23.6208 16.226 23.7601 16.3184 23.9328C16.4108 24.1054 16.4469 24.3027 16.4215 24.4968C16.3947 24.7017 16.3009 24.892 16.1548 25.0382C16.0087 25.1843 15.8184 25.278 15.6135 25.3048ZM15.6135 20.6173C15.4193 20.6427 15.2221 20.6067 15.0494 20.5143C14.8768 20.4218 14.7374 20.2777 14.6509 20.102C14.5644 19.9264 14.535 19.728 14.5669 19.5348C14.5989 19.3416 14.6905 19.1633 14.829 19.0248C14.9674 18.8864 15.1458 18.7947 15.339 18.7628C15.5322 18.7309 15.7305 18.7602 15.9062 18.8468C16.0818 18.9333 16.226 19.0726 16.3184 19.2453C16.4108 19.4179 16.4469 19.6152 16.4215 19.8093C16.3947 20.0142 16.3009 20.2045 16.1548 20.3507C16.0087 20.4968 15.8184 20.5905 15.6135 20.6173ZM15.6135 15.9298C15.4193 15.9552 15.2221 15.9192 15.0494 15.8268C14.8768 15.7343 14.7374 15.5902 14.6509 15.4145C14.5644 15.2389 14.535 15.0405 14.5669 14.8473C14.5989 14.6541 14.6905 14.4758 14.829 14.3373C14.9674 14.1989 15.1458 14.1072 15.339 14.0753C15.5322 14.0434 15.7305 14.0727 15.9062 14.1593C16.0818 14.2458 16.226 14.3851 16.3184 14.5578C16.4108 14.7304 16.4469 14.9277 16.4215 15.1218C16.3947 15.3267 16.3009 15.517 16.1548 15.6632C16.0087 15.8093 15.8184 15.903 15.6135 15.9298Z" fill="#E0E1DD"/>
<path d="M16.1557 10.9761C16.5207 10.6111 16.5192 10.0179 16.1524 9.65107C15.7856 9.28426 15.1924 9.28278 14.8274 9.64775C14.4624 10.0127 14.4639 10.6059 14.8307 10.9727C15.1975 11.3396 15.7908 11.341 16.1557 10.9761Z" fill="#E0E1DD"/>
<path d="M15.6135 6.55483C15.4193 6.58022 15.2221 6.54418 15.0494 6.45176C14.8768 6.35935 14.7374 6.21519 14.6509 6.03953C14.5644 5.86387 14.535 5.66553 14.5669 5.47233C14.5989 5.27914 14.6905 5.1008 14.829 4.96233C14.9674 4.82387 15.1458 4.73224 15.339 4.7003C15.5322 4.66836 15.7305 4.69772 15.9062 4.78425C16.0818 4.87078 16.226 5.01015 16.3184 5.18278C16.4108 5.35542 16.4469 5.55266 16.4215 5.74682C16.3947 5.95173 16.3009 6.14203 16.1548 6.28816C16.0087 6.43428 15.8184 6.52803 15.6135 6.55483ZM23.9291 23.4374C23.7437 23.4374 23.5624 23.4924 23.4082 23.5954C23.2541 23.6985 23.1339 23.8449 23.0629 24.0162C22.992 24.1875 22.9734 24.376 23.0096 24.5578C23.0458 24.7397 23.1351 24.9067 23.2662 25.0379C23.3973 25.169 23.5643 25.2583 23.7462 25.2944C23.928 25.3306 24.1165 25.312 24.2878 25.2411C24.4592 25.1701 24.6056 25.05 24.7086 24.8958C24.8116 24.7416 24.8666 24.5604 24.8666 24.3749C24.8666 24.1263 24.7678 23.8878 24.592 23.712C24.4162 23.5362 24.1777 23.4374 23.9291 23.4374ZM23.9291 18.7499C23.7437 18.7499 23.5624 18.8049 23.4082 18.9079C23.2541 19.011 23.1339 19.1574 23.0629 19.3287C22.992 19.5 22.9734 19.6885 23.0096 19.8703C23.0458 20.0522 23.1351 20.2192 23.2662 20.3504C23.3973 20.4815 23.5643 20.5708 23.7462 20.6069C23.928 20.6431 24.1165 20.6245 24.2878 20.5536C24.4592 20.4826 24.6056 20.3625 24.7086 20.2083C24.8116 20.0541 24.8666 19.8729 24.8666 19.6874C24.8666 19.4388 24.7678 19.2003 24.592 19.0245C24.4162 18.8487 24.1777 18.7499 23.9291 18.7499ZM23.9291 14.0624C23.7437 14.0624 23.5624 14.1174 23.4082 14.2204C23.2541 14.3235 23.1339 14.4699 23.0629 14.6412C22.992 14.8125 22.9734 15.001 23.0096 15.1828C23.0458 15.3647 23.1351 15.5317 23.2662 15.6629C23.3973 15.794 23.5643 15.8833 23.7462 15.9194C23.928 15.9556 24.1165 15.937 24.2878 15.8661C24.4592 15.7951 24.6056 15.675 24.7086 15.5208C24.8116 15.3666 24.8666 15.1854 24.8666 14.9999C24.8666 14.7513 24.7678 14.5128 24.592 14.337C24.4162 14.1612 24.1777 14.0624 23.9291 14.0624ZM20.1791 23.4374C19.9937 23.4374 19.8124 23.4924 19.6582 23.5954C19.5041 23.6985 19.3839 23.8449 19.3129 24.0162C19.242 24.1875 19.2234 24.376 19.2596 24.5578C19.2958 24.7397 19.3851 24.9067 19.5162 25.0379C19.6473 25.169 19.8143 25.2583 19.9962 25.2944C20.178 25.3306 20.3665 25.312 20.5378 25.2411C20.7092 25.1701 20.8556 25.05 20.9586 24.8958C21.0616 24.7416 21.1166 24.5604 21.1166 24.3749C21.1166 24.1263 21.0178 23.8878 20.842 23.712C20.6662 23.5362 20.4277 23.4374 20.1791 23.4374ZM20.1791 18.7499C19.9937 18.7499 19.8124 18.8049 19.6582 18.9079C19.5041 19.011 19.3839 19.1574 19.3129 19.3287C19.242 19.5 19.2234 19.6885 19.2596 19.8703C19.2958 20.0522 19.3851 20.2192 19.5162 20.3504C19.6473 20.4815 19.8143 20.5708 19.9962 20.6069C20.178 20.6431 20.3665 20.6245 20.5378 20.5536C20.7092 20.4826 20.8556 20.3625 20.9586 20.2083C21.0616 20.0541 21.1166 19.8729 21.1166 19.6874C21.1166 19.4388 21.0178 19.2003 20.842 19.0245C20.6662 18.8487 20.4277 18.7499 20.1791 18.7499ZM20.1791 14.0624C19.9937 14.0624 19.8124 14.1174 19.6582 14.2204C19.5041 14.3235 19.3839 14.4699 19.3129 14.6412C19.242 14.8125 19.2234 15.001 19.2596 15.1828C19.2958 15.3647 19.3851 15.5317 19.5162 15.6629C19.6473 15.794 19.8143 15.8833 19.9962 15.9194C20.178 15.9556 20.3665 15.937 20.5378 15.8661C20.7092 15.7951 20.8556 15.675 20.9586 15.5208C21.0616 15.3666 21.1166 15.1854 21.1166 14.9999C21.1166 14.7513 21.0178 14.5128 20.842 14.337C20.6662 14.1612 20.4277 14.0624 20.1791 14.0624Z" fill="#E0E1DD"/>
</svg>
