<svg width="30" height="35" viewBox="0 0 30 35" fill="none" xmlns="http://www.w3.org/2000/svg">
<path d="M26.6667 3.5H19.7C19 1.47 17.1667 0 15 0C12.8333 0 11 1.47 10.3 3.5H3.33333C2.44928 3.5 1.60143 3.86875 0.976311 4.52513C0.351189 5.1815 0 6.07174 0 7V31.5C0 32.4283 0.351189 33.3185 0.976311 33.9749C1.60143 34.6312 2.44928 35 3.33333 35H26.6667C27.5507 35 28.3986 34.6312 29.0237 33.9749C29.6488 33.3185 30 32.4283 30 31.5V7C30 6.07174 29.6488 5.1815 29.0237 4.52513C28.3986 3.86875 27.5507 3.5 26.6667 3.5ZM15 3.5C15.442 3.5 15.8659 3.68437 16.1785 4.01256C16.4911 4.34075 16.6667 4.78587 16.6667 5.25C16.6667 5.71413 16.4911 6.15925 16.1785 6.48744C15.8659 6.81563 15.442 7 15 7C14.558 7 14.134 6.81563 13.8215 6.48744C13.5089 6.15925 13.3333 5.71413 13.3333 5.25C13.3333 4.78587 13.5089 4.34075 13.8215 4.01256C14.134 3.68437 14.558 3.5 15 3.5ZM6.66667 10.5H23.3333V7H26.6667V31.5H3.33333V7H6.66667V10.5ZM7.5 21.875L10 19.25L13.3333 22.75L20.8333 14.875L23.3333 17.5L13.3333 28L7.5 21.875Z" fill="#415A77"/>
</svg>
