<svg width="34" height="34" viewBox="0 0 34 34" fill="none" xmlns="http://www.w3.org/2000/svg">
<path d="M11.5455 15.6364C13.3537 15.6364 15.088 14.918 16.3666 13.6394C17.6453 12.3607 18.3636 10.6265 18.3636 8.81818C18.3636 7.00989 17.6453 5.27566 16.3666 3.997C15.088 2.71834 13.3537 2 11.5455 2C9.73716 2 8.00293 2.71834 6.72427 3.997C5.44561 5.27566 4.72727 7.00989 4.72727 8.81818C4.72727 10.6265 5.44561 12.3607 6.72427 13.6394C8.00293 14.918 9.73716 15.6364 11.5455 15.6364ZM20.6041 22.04C20.1633 20.6688 19.4066 19.4203 18.395 18.395C16.6891 16.6727 14.2905 15.6364 11.5455 15.6364C6.09091 15.6364 2 19.7273 2 25.1818V32H15.6364M17 26.3055L22.7136 30.6364L32 18.3636" fill="white"/>
<path d="M11.5455 15.6364C13.3537 15.6364 15.088 14.918 16.3666 13.6394C17.6453 12.3607 18.3636 10.6265 18.3636 8.81818C18.3636 7.00989 17.6453 5.27566 16.3666 3.997C15.088 2.71834 13.3537 2 11.5455 2C9.73716 2 8.00293 2.71834 6.72427 3.997C5.44561 5.27566 4.72727 7.00989 4.72727 8.81818C4.72727 10.6265 5.44561 12.3607 6.72427 13.6394C8.00293 14.918 9.73716 15.6364 11.5455 15.6364ZM11.5455 15.6364C14.2905 15.6364 16.6891 16.6727 18.395 18.395C19.4066 19.4203 20.1633 20.6688 20.6041 22.04M11.5455 15.6364C6.09091 15.6364 2 19.7273 2 25.1818V32H15.6364M17 26.3055L22.7136 30.6364L32 18.3636" stroke="#415A77" stroke-width="3"/>
</svg>
