<svg width="40" height="30" viewBox="0 0 40 30" fill="none" xmlns="http://www.w3.org/2000/svg">
<path d="M18.6841 28.9672C18.6151 29.2622 18.4556 29.524 18.2311 29.7111C18.0066 29.8983 17.73 29.9999 17.4452 30C17.3376 30.0005 17.2303 29.9868 17.1259 29.9591L12.0168 28.5957C11.8746 28.5575 11.7395 28.4935 11.6177 28.4065L7.78586 25.6797C7.50406 25.479 7.30849 25.167 7.24217 24.8124C7.17584 24.4578 7.24421 24.0896 7.43221 23.7888C7.62022 23.488 7.91247 23.2792 8.24468 23.2084C8.57688 23.1376 8.92182 23.2106 9.20362 23.4113L12.8502 26.0069L17.7453 27.3141C17.9089 27.3564 18.063 27.4328 18.1988 27.5389C18.3346 27.645 18.4494 27.7787 18.5367 27.9323C18.6239 28.0859 18.6818 28.2565 18.7071 28.434C18.7325 28.6116 18.7246 28.7928 18.6841 28.9672ZM39.8692 12.5278C39.7644 12.8676 39.5976 13.1819 39.3783 13.4525C39.1591 13.723 38.8918 13.9446 38.5919 14.1043L34.8112 16.1221L26.0172 25.5109C25.8612 25.6774 25.6674 25.7978 25.4547 25.8605C25.2421 25.9233 25.0178 25.9261 24.8038 25.8688L14.5857 23.142C14.4303 23.1004 14.2836 23.0281 14.153 22.929L5.2888 16.1733L1.4123 14.1043C0.806453 13.781 0.345688 13.2141 0.131318 12.5282C-0.0830515 11.8424 -0.0334752 11.0937 0.269146 10.4469L4.23665 1.97839C4.53952 1.33168 5.07059 0.83984 5.7131 0.611011C6.35561 0.382182 7.05695 0.435102 7.66292 0.758135L11.185 2.63283L19.6469 0.0525675C19.8764 -0.0175225 20.1198 -0.0175225 20.3494 0.0525675L28.8113 2.63283L32.3333 0.758135C32.9393 0.435102 33.6406 0.382182 34.2831 0.611011C34.9256 0.83984 35.4567 1.33168 35.7596 1.97839L39.7271 10.4469C39.8784 10.7665 39.9689 11.115 39.9933 11.4722C40.0177 11.8294 39.9755 12.1881 39.8692 12.5278ZM32.4962 14.7331L28.1519 5.45851H23.0715L16.1679 12.6164C18.1892 13.9952 21.3584 14.3752 24.2019 11.3161C24.424 11.0771 24.721 10.9343 25.0358 10.9151C25.3506 10.8959 25.661 11.0017 25.9071 11.2121L31.4009 15.9108L32.4962 14.7331ZM2.55386 11.6655L5.37821 13.1737L9.34572 4.70522L6.52136 3.19695L2.55386 11.6655ZM29.5792 17.8417L25.1551 14.06C22.0354 16.7868 18.0742 17.1464 14.7917 14.9121C14.4688 14.6928 14.1961 14.3989 13.9939 14.0521C13.7917 13.7053 13.6651 13.3144 13.6234 12.9084C13.5817 12.5023 13.626 12.0914 13.7531 11.7061C13.8801 11.3207 14.0866 10.9708 14.3574 10.6821C14.3612 10.6771 14.3655 10.6726 14.3702 10.6685L21.5324 3.25319L19.9997 2.78622L11.9497 5.24207L7.5799 14.5695L15.4351 20.56L24.7176 23.0363L29.5792 17.8417ZM37.4408 11.6655L33.4781 3.19695L30.6537 4.70522L34.6212 13.1737L37.4408 11.6655Z" fill="#415A77"/>
</svg>
