<svg width="40" height="41" viewBox="0 0 40 41" fill="none" xmlns="http://www.w3.org/2000/svg">
<path d="M37.1429 0.735352H2.84821C1.27679 0.735352 0 2.02999 0 3.61928V37.8514C0 39.4407 1.27679 40.7354 2.84821 40.7354H37.1429C38.7143 40.7354 40 39.4407 40 37.8514V3.61928C40 2.02999 38.7143 0.735352 37.1429 0.735352ZM12.0893 35.0211H6.16071V15.9318H12.0982V35.0211H12.0893ZM9.125 13.3246C7.22321 13.3246 5.6875 11.78 5.6875 9.88714C5.6875 7.99428 7.22321 6.44964 9.125 6.44964C11.0179 6.44964 12.5625 7.99428 12.5625 9.88714C12.5625 11.7889 11.0268 13.3246 9.125 13.3246ZM34.3125 35.0211H28.3839V25.7354C28.3839 23.5211 28.3393 20.6729 25.3036 20.6729C22.2143 20.6729 21.7411 23.0836 21.7411 25.5746V35.0211H15.8125V15.9318H21.5V18.5389H21.5804C22.375 17.0389 24.3125 15.4586 27.1964 15.4586C33.1964 15.4586 34.3125 19.4139 34.3125 24.5568V35.0211Z" fill="#E0E1DD"/>
</svg>
