<svg width="369" height="596" viewBox="0 0 369 596" fill="none" xmlns="http://www.w3.org/2000/svg">
<path d="M368.607 300.072H337.938V300.303H368.607V300.072Z" fill="#EBEBEB"/>
<path d="M258.71 302.59H250.663V302.822H258.71V302.59Z" fill="#EBEBEB"/>
<path d="M337.012 291.478H319.242V291.71H337.012V291.478Z" fill="#EBEBEB"/>
<path d="M40.5716 293.034H0.577637V293.266H40.5716V293.034Z" fill="#EBEBEB"/>
<path d="M54.6841 293.034H48.8225V293.266H54.6841V293.034Z" fill="#EBEBEB"/>
<path d="M160.489 296.942H73.7413V297.173H160.489V296.942Z" fill="#EBEBEB"/>
<path d="M151.433 0.834764L152.211 2.41823C152.256 2.51088 152.324 2.59072 152.408 2.65055C152.492 2.71037 152.59 2.74829 152.692 2.76085L154.442 3.02012C154.558 3.03797 154.667 3.08777 154.756 3.16391C154.845 3.24004 154.911 3.3395 154.946 3.45111C154.982 3.56271 154.986 3.68203 154.957 3.79565C154.929 3.90927 154.869 4.0127 154.785 4.09429L153.526 5.33512C153.451 5.40533 153.396 5.49277 153.363 5.5897C153.331 5.68662 153.323 5.79003 153.34 5.89073L153.637 7.63161C153.659 7.74932 153.647 7.87094 153.603 7.9822C153.558 8.09346 153.483 8.18973 153.386 8.25973C153.289 8.32973 153.174 8.37055 153.054 8.37738C152.934 8.38422 152.815 8.35679 152.711 8.29833L151.146 7.47419C151.055 7.4286 150.955 7.40485 150.854 7.40485C150.753 7.40485 150.653 7.4286 150.562 7.47419L148.988 8.29833C148.884 8.35679 148.765 8.38422 148.645 8.37738C148.525 8.37055 148.41 8.32973 148.313 8.25973C148.216 8.18973 148.141 8.09346 148.096 7.9822C148.052 7.87094 148.04 7.74932 148.062 7.63161L148.368 5.89073C148.383 5.79008 148.374 5.68734 148.342 5.59082C148.309 5.4943 148.255 5.4067 148.183 5.33512L146.914 4.09429C146.83 4.01209 146.77 3.90793 146.742 3.79363C146.714 3.67933 146.719 3.55946 146.755 3.44762C146.792 3.33578 146.859 3.23644 146.95 3.16088C147.04 3.08532 147.149 3.03656 147.266 3.02012L149.016 2.76085C149.118 2.74673 149.215 2.70821 149.299 2.64856C149.383 2.58891 149.451 2.50989 149.498 2.41823L150.275 0.834764C150.327 0.724715 150.409 0.631624 150.511 0.566407C150.614 0.50119 150.733 0.466553 150.854 0.466553C150.976 0.466553 151.095 0.50119 151.197 0.566407C151.3 0.631624 151.381 0.724715 151.433 0.834764Z" fill="#F5F5F5"/>
<path d="M36.1365 131.262L36.9236 132.855C36.9688 132.946 37.0354 133.024 37.1176 133.084C37.1999 133.144 37.2953 133.182 37.3958 133.197L39.146 133.457C39.2625 133.473 39.3721 133.522 39.4623 133.597C39.5526 133.673 39.6198 133.772 39.6565 133.884C39.6931 133.996 39.6977 134.116 39.6696 134.23C39.6416 134.344 39.5821 134.448 39.4979 134.531L38.2292 135.762C38.1566 135.835 38.1026 135.925 38.0719 136.023C38.0413 136.121 38.0349 136.226 38.0533 136.327L38.3496 138.068C38.3719 138.186 38.3601 138.307 38.3157 138.419C38.2713 138.53 38.1961 138.626 38.0989 138.696C38.0016 138.766 37.8865 138.807 37.7669 138.814C37.6473 138.821 37.5282 138.793 37.4236 138.735L35.8587 137.911C35.7666 137.865 35.6652 137.841 35.5624 137.841C35.4595 137.841 35.3581 137.865 35.266 137.911L33.7011 138.735C33.5965 138.793 33.4775 138.821 33.3579 138.814C33.2383 138.807 33.1231 138.766 33.0259 138.696C32.9286 138.626 32.8534 138.53 32.809 138.419C32.7646 138.307 32.7528 138.186 32.7751 138.068L33.0714 136.327C33.0898 136.226 33.0834 136.121 33.0528 136.023C33.0221 135.925 32.9682 135.835 32.8955 135.762L31.6361 134.531C31.5519 134.448 31.4924 134.344 31.4644 134.23C31.4363 134.116 31.4409 133.996 31.4775 133.884C31.5142 133.772 31.5814 133.673 31.6716 133.597C31.7619 133.522 31.8715 133.473 31.988 133.457L33.7381 133.197C33.8387 133.182 33.9341 133.144 34.0163 133.084C34.0986 133.024 34.1652 132.946 34.2104 132.855L34.9975 131.262C35.0484 131.154 35.129 131.063 35.2299 130.999C35.3307 130.935 35.4476 130.901 35.567 130.901C35.6864 130.901 35.8033 130.935 35.9041 130.999C36.005 131.063 36.0855 131.154 36.1365 131.262Z" fill="#F0F0F0"/>
<path d="M21.598 43.7549L22.3759 45.3384C22.4206 45.4306 22.4869 45.5107 22.5691 45.572C22.6513 45.6332 22.747 45.6738 22.8481 45.6903L24.5983 45.9403C24.7148 45.9586 24.8239 46.0089 24.9136 46.0854C25.0033 46.162 25.0701 46.2619 25.1065 46.3741C25.143 46.4862 25.1476 46.6063 25.12 46.721C25.0924 46.8356 25.0336 46.9404 24.9502 47.0237L23.6815 48.2553C23.6098 48.3273 23.5558 48.4149 23.5237 48.5113C23.4915 48.6077 23.4822 48.7103 23.4963 48.8109L23.8019 50.561C23.8242 50.6787 23.8124 50.8004 23.768 50.9116C23.7236 51.0229 23.6484 51.1192 23.5512 51.1892C23.4539 51.2592 23.3388 51.3 23.2192 51.3068C23.0996 51.3136 22.9805 51.2862 22.8759 51.2277L21.311 50.4036C21.2203 50.3533 21.1183 50.327 21.0147 50.327C20.911 50.327 20.809 50.3533 20.7183 50.4036L19.1534 51.2277C19.0488 51.2862 18.9298 51.3136 18.8102 51.3068C18.6906 51.3 18.5754 51.2592 18.4782 51.1892C18.381 51.1192 18.3057 51.0229 18.2613 50.9116C18.2169 50.8004 18.2051 50.6787 18.2274 50.561L18.5237 48.8109C18.5427 48.7102 18.5357 48.6063 18.5033 48.509C18.4708 48.4118 18.4141 48.3245 18.3385 48.2553L17.0792 47.0237C16.9924 46.9425 16.9303 46.8384 16.9002 46.7234C16.8701 46.6085 16.8731 46.4873 16.9089 46.374C16.9448 46.2607 17.012 46.1598 17.1027 46.0831C17.1935 46.0063 17.3041 45.9568 17.4218 45.9403L19.1719 45.6903C19.2742 45.6737 19.3712 45.6332 19.4549 45.5721C19.5386 45.5109 19.6066 45.4308 19.6534 45.3384L20.4313 43.7549C20.4816 43.6423 20.5635 43.5466 20.667 43.4795C20.7705 43.4123 20.8913 43.3766 21.0147 43.3766C21.1381 43.3766 21.2588 43.4123 21.3623 43.4795C21.4658 43.5466 21.5477 43.6423 21.598 43.7549Z" fill="#F0F0F0"/>
<path d="M91.761 83.5544L92.224 84.4804C92.2524 84.5346 92.2933 84.5812 92.3432 84.6166C92.393 84.652 92.4506 84.6752 92.5111 84.6842L93.5574 84.8323C93.6271 84.8434 93.6923 84.8738 93.7457 84.9199C93.7991 84.966 93.8386 85.0261 93.8598 85.0934C93.881 85.1607 93.8829 85.2326 93.8655 85.301C93.8481 85.3694 93.8119 85.4315 93.7611 85.4805L93.0111 86.2213C92.9664 86.2633 92.9329 86.3158 92.9135 86.374C92.8941 86.4322 92.8894 86.4943 92.9 86.5547L93.0759 87.5918C93.0907 87.6617 93.085 87.7344 93.0594 87.8011C93.0338 87.8678 92.9894 87.9257 92.9317 87.9678C92.8739 88.0099 92.8053 88.0344 92.7339 88.0383C92.6626 88.0423 92.5916 88.0255 92.5296 87.99L91.6036 87.4992C91.549 87.4715 91.4888 87.4571 91.4276 87.4571C91.3665 87.4571 91.3062 87.4715 91.2517 87.4992L90.3257 87.99C90.2637 88.0255 90.1927 88.0423 90.1214 88.0383C90.05 88.0344 89.9813 88.0099 89.9236 87.9678C89.8658 87.9257 89.8215 87.8678 89.7959 87.8011C89.7703 87.7344 89.7645 87.6617 89.7793 87.5918L89.9553 86.5547C89.9658 86.4943 89.9612 86.4322 89.9418 86.374C89.9224 86.3158 89.8888 86.2633 89.8442 86.2213L89.0848 85.4805C89.0339 85.4309 88.9979 85.368 88.9809 85.299C88.964 85.2299 88.9667 85.1575 88.9889 85.0899C89.0111 85.0224 89.0519 84.9624 89.1065 84.9169C89.1611 84.8713 89.2274 84.842 89.2978 84.8323L90.3442 84.6842C90.4047 84.6752 90.4622 84.652 90.5121 84.6166C90.562 84.5812 90.6028 84.5346 90.6313 84.4804L91.0943 83.5544C91.1288 83.4969 91.1777 83.4493 91.2361 83.4163C91.2945 83.3832 91.3605 83.3658 91.4276 83.3658C91.4948 83.3658 91.5607 83.3832 91.6191 83.4163C91.6776 83.4493 91.7264 83.4969 91.761 83.5544Z" fill="#F0F0F0"/>
<path d="M63.3791 204.888L63.8421 205.814C63.87 205.87 63.9105 205.918 63.9603 205.955C64.0102 205.992 64.068 206.017 64.1291 206.027L65.1755 206.175C65.2459 206.185 65.3122 206.214 65.3669 206.26C65.4215 206.305 65.4622 206.365 65.4844 206.433C65.5066 206.501 65.5094 206.573 65.4924 206.642C65.4755 206.711 65.4394 206.774 65.3885 206.824L64.6292 207.555C64.5844 207.599 64.5509 207.653 64.5315 207.713C64.5122 207.772 64.5076 207.836 64.518 207.898L64.7032 208.935C64.7154 209.005 64.7075 209.077 64.6805 209.143C64.6534 209.209 64.6083 209.267 64.5503 209.308C64.4923 209.35 64.4238 209.374 64.3525 209.378C64.2813 209.383 64.2103 209.367 64.1476 209.333L63.2216 208.842C63.1671 208.815 63.1068 208.8 63.0457 208.8C62.9846 208.8 62.9243 208.815 62.8698 208.842L61.9438 209.333C61.8814 209.365 61.8115 209.378 61.7418 209.373C61.6721 209.367 61.6053 209.342 61.5488 209.301C61.4923 209.26 61.4482 209.204 61.4215 209.139C61.3948 209.075 61.3865 209.004 61.3974 208.935L61.5734 207.898C61.585 207.837 61.5818 207.774 61.5641 207.714C61.5464 207.654 61.5146 207.6 61.4715 207.555L60.7122 206.824C60.6614 206.775 60.6253 206.712 60.6078 206.644C60.5904 206.576 60.5924 206.504 60.6135 206.436C60.6347 206.369 60.6742 206.309 60.7276 206.263C60.781 206.217 60.8462 206.186 60.9159 206.175L61.9623 206.027C62.0239 206.018 62.0824 205.994 62.1324 205.957C62.1825 205.919 62.2227 205.871 62.2493 205.814L62.7216 204.888C62.7549 204.831 62.8029 204.783 62.8606 204.749C62.9183 204.716 62.9837 204.698 63.0503 204.698C63.117 204.698 63.1824 204.716 63.2401 204.749C63.2978 204.783 63.3457 204.831 63.3791 204.888Z" fill="#F5F5F5"/>
<path d="M354.255 2.27927L354.718 3.20527C354.744 3.2609 354.784 3.30881 354.835 3.34447C354.885 3.38013 354.943 3.40234 355.005 3.40899L356.051 3.56641C356.121 3.57611 356.188 3.60541 356.242 3.65095C356.297 3.69649 356.338 3.75645 356.36 3.82401C356.382 3.89157 356.385 3.96399 356.368 4.03305C356.351 4.10211 356.315 4.16502 356.264 4.21461L355.505 4.94615C355.461 4.98865 355.428 5.04116 355.408 5.0992C355.389 5.15725 355.384 5.2191 355.394 5.27951L355.579 6.32589C355.591 6.3962 355.583 6.46851 355.556 6.53454C355.529 6.60057 355.484 6.65764 355.426 6.6992C355.368 6.74077 355.299 6.76514 355.228 6.76954C355.157 6.77394 355.086 6.75818 355.023 6.72407L354.097 6.23329C354.043 6.20563 353.982 6.19122 353.921 6.19122C353.86 6.19122 353.8 6.20563 353.745 6.23329L352.819 6.72407C352.757 6.75563 352.687 6.76934 352.617 6.7637C352.548 6.75806 352.481 6.73328 352.424 6.6921C352.368 6.65092 352.324 6.59493 352.297 6.53031C352.27 6.46569 352.262 6.39495 352.273 6.32589L352.449 5.27951C352.46 5.21985 352.456 5.15845 352.438 5.10045C352.421 5.04245 352.389 4.98954 352.347 4.94615L351.569 4.22387C351.518 4.17489 351.482 4.11272 351.465 4.04434C351.447 3.97596 351.449 3.90407 351.47 3.83676C351.492 3.76944 351.531 3.70935 351.585 3.66323C351.638 3.61711 351.703 3.58679 351.773 3.57567L352.819 3.41825C352.881 3.41249 352.94 3.39063 352.99 3.35486C353.04 3.3191 353.081 3.27071 353.106 3.21454L353.579 2.28854C353.607 2.22293 353.654 2.16691 353.713 2.12725C353.772 2.08758 353.842 2.06595 353.914 2.06498C353.985 2.064 354.055 2.0837 354.116 2.12173C354.176 2.15975 354.224 2.21447 354.255 2.27927Z" fill="#F5F5F5"/>
<path d="M346.207 177.043L347.013 178.682C347.059 178.778 347.128 178.86 347.213 178.921C347.299 178.983 347.399 179.021 347.504 179.034L349.356 179.303C349.477 179.319 349.591 179.369 349.684 179.447C349.778 179.526 349.848 179.629 349.886 179.745C349.923 179.861 349.928 179.985 349.898 180.104C349.868 180.222 349.805 180.33 349.717 180.414L348.328 181.692C348.253 181.768 348.198 181.86 348.166 181.961C348.133 182.063 348.126 182.17 348.143 182.275L348.458 184.127C348.473 184.244 348.457 184.363 348.412 184.471C348.366 184.579 348.292 184.674 348.197 184.744C348.102 184.814 347.991 184.857 347.874 184.869C347.757 184.881 347.639 184.862 347.532 184.813L345.911 183.961C345.817 183.91 345.712 183.884 345.605 183.884C345.499 183.884 345.394 183.91 345.3 183.961L343.698 184.794C343.591 184.847 343.472 184.869 343.354 184.858C343.235 184.847 343.122 184.804 343.026 184.733C342.931 184.663 342.856 184.567 342.811 184.457C342.767 184.347 342.753 184.226 342.772 184.109L343.077 182.257C343.097 182.152 343.09 182.044 343.058 181.942C343.026 181.84 342.969 181.748 342.892 181.673L341.577 180.396C341.492 180.309 341.433 180.201 341.406 180.083C341.378 179.965 341.384 179.841 341.422 179.726C341.461 179.612 341.53 179.509 341.623 179.431C341.715 179.353 341.828 179.302 341.948 179.284L343.753 179.016C343.858 179.003 343.958 178.964 344.044 178.903C344.13 178.841 344.198 178.759 344.244 178.664L345.059 177.025C345.118 176.924 345.202 176.84 345.304 176.782C345.406 176.724 345.522 176.695 345.639 176.697C345.756 176.699 345.87 176.732 345.97 176.793C346.07 176.854 346.152 176.94 346.207 177.043Z" fill="#F0F0F0"/>
<path d="M247.014 23.5681C247.014 23.8117 246.942 24.0498 246.807 24.2524C246.672 24.4549 246.479 24.6127 246.254 24.706C246.029 24.7992 245.781 24.8236 245.543 24.776C245.304 24.7285 245.084 24.6112 244.912 24.439C244.74 24.2667 244.622 24.0473 244.575 23.8084C244.527 23.5695 244.552 23.3219 244.645 23.0968C244.738 22.8718 244.896 22.6794 245.099 22.5441C245.301 22.4088 245.539 22.3365 245.783 22.3365C246.109 22.3365 246.423 22.4663 246.654 22.6973C246.885 22.9282 247.014 23.2415 247.014 23.5681Z" fill="#F0F0F0"/>
<path d="M282.359 262.272C282.359 262.516 282.287 262.754 282.152 262.957C282.017 263.159 281.824 263.317 281.599 263.41C281.374 263.503 281.126 263.528 280.888 263.48C280.649 263.433 280.429 263.315 280.257 263.143C280.085 262.971 279.967 262.752 279.92 262.513C279.872 262.274 279.897 262.026 279.99 261.801C280.083 261.576 280.241 261.384 280.444 261.248C280.646 261.113 280.884 261.041 281.128 261.041C281.29 261.04 281.451 261.071 281.601 261.132C281.751 261.194 281.887 261.284 282.001 261.399C282.116 261.513 282.207 261.65 282.268 261.8C282.33 261.95 282.361 262.11 282.359 262.272Z" fill="#F5F5F5"/>
<path d="M74.9269 8.21498C74.9269 9.25708 74.6179 10.2758 74.0389 11.1422C73.46 12.0087 72.6371 12.6841 71.6743 13.0828C70.7115 13.4816 69.6521 13.586 68.6301 13.3827C67.608 13.1794 66.6691 12.6776 65.9323 11.9407C65.1954 11.2038 64.6936 10.265 64.4903 9.2429C64.287 8.22083 64.3913 7.16142 64.7901 6.19865C65.1889 5.23587 65.8642 4.41298 66.7307 3.83402C67.5972 3.25506 68.6159 2.94604 69.658 2.94604C71.0554 2.94604 72.3956 3.50116 73.3837 4.48928C74.3718 5.4774 74.9269 6.81757 74.9269 8.21498Z" fill="#F0F0F0"/>
<path d="M124.782 43.0326C127.962 43.5913 131.185 43.8671 134.413 43.8568C133.149 45.3337 131.525 46.458 129.697 47.1202C127.87 47.7824 125.902 47.9599 123.985 47.6354C122.069 47.3109 120.269 46.4954 118.762 45.2684C117.254 44.0415 116.09 42.4449 115.384 40.6343C118.441 41.7058 121.586 42.5083 124.782 43.0326Z" fill="#F5F5F5"/>
<path d="M126.421 33.3097C122.756 32.6533 119.03 32.3925 115.309 32.5319C116.237 30.0953 117.981 28.0561 120.244 26.7623C122.508 25.4685 125.15 25.0001 127.72 25.4372C130.291 25.8744 132.63 27.1898 134.338 29.1592C136.046 31.1285 137.019 33.6297 137.089 36.2359C133.647 34.8826 130.071 33.9016 126.421 33.3097Z" fill="#F5F5F5"/>
<path d="M143.342 39.472C143.7 37.3541 136.17 34.3159 126.524 32.686C116.877 31.0561 108.767 31.4518 108.409 33.5697C108.051 35.6876 115.581 38.7258 125.228 40.3557C134.874 41.9856 142.985 41.5899 143.342 39.472Z" fill="#F5F5F5"/>
<path d="M353.551 118.863C349.24 127.493 343.272 135.19 335.986 141.513C328.7 147.836 320.24 152.662 311.088 155.715C301.937 158.767 292.274 159.987 282.651 159.305C273.028 158.622 263.634 156.05 255.006 151.736C253.506 150.995 252.052 150.208 250.663 149.375C263.619 144.57 275.307 136.869 284.834 126.861C294.362 116.853 301.479 104.801 305.641 91.6243C309.804 78.4477 310.902 64.4946 308.852 50.8291C306.803 37.1636 301.659 24.1467 293.814 12.771C305.79 13.7543 317.342 17.6587 327.458 24.1424C337.575 30.626 345.947 39.4911 351.842 49.9612C357.738 60.4314 360.976 72.1873 361.274 84.1993C361.572 96.2114 358.92 108.113 353.551 118.863Z" fill="#F5F5F5"/>
<path d="M319.956 32.328C321.932 33.7876 323.561 35.666 324.726 37.8287C325.892 39.9915 326.565 42.3851 326.697 44.8383C324.133 41.2946 321.034 38.1707 317.511 35.5783C314.003 32.9739 310.119 30.9193 305.992 29.4852C308.385 28.8974 310.878 28.8475 313.293 29.3391C315.707 29.8306 317.983 30.8514 319.956 32.328Z" fill="#F0F0F0"/>
<path d="M301.408 143.67C299.356 145.024 297.03 145.907 294.596 146.256C292.163 146.605 289.683 146.411 287.333 145.689C291.53 144.498 295.516 142.661 299.149 140.244C302.805 137.85 306.074 134.912 308.844 131.531C308.578 133.978 307.773 136.335 306.487 138.434C305.201 140.533 303.467 142.321 301.408 143.67Z" fill="#F0F0F0"/>
<path d="M326.715 73.7573C327.767 75.9788 328.313 78.4062 328.313 80.8643C328.313 83.3224 327.767 85.7499 326.715 87.9714C326.14 83.6456 324.89 79.4367 323.011 75.4982C321.162 71.5426 318.72 67.8924 315.77 64.6732C318.151 65.2862 320.368 66.4185 322.26 67.9891C324.152 69.5596 325.674 71.5294 326.715 73.7573Z" fill="#F0F0F0"/>
<path d="M338.651 124.178C337.11 126.094 335.165 127.646 332.954 128.722C330.743 129.798 328.322 130.371 325.863 130.401C329.497 127.987 332.731 125.019 335.447 121.604C338.197 118.209 340.414 114.415 342.022 110.353C342.515 112.763 342.469 115.253 341.886 117.643C341.303 120.034 340.198 122.265 338.651 124.178Z" fill="#F0F0F0"/>
<path d="M183.5 595.991C282.659 595.991 363.043 591.297 363.043 585.508C363.043 579.719 282.659 575.026 183.5 575.026C84.3419 575.026 3.95819 579.719 3.95819 585.508C3.95819 591.297 84.3419 595.991 183.5 595.991Z" fill="#F5F5F5"/>
<path d="M187.528 323.071L186.88 322.561C189.797 318.857 192.862 315.375 195.992 312.116L196.575 312.69C193.464 315.922 190.417 319.422 187.528 323.071Z" fill="#407BFF"/>
<path d="M184.069 326.112L181.083 329.877L181.721 330.384L184.708 326.618L184.069 326.112Z" fill="#407BFF"/>
<path d="M248.32 366.028C268.442 333.682 271.183 301.81 256.533 291.494C241.884 281.178 212.798 294.494 189.121 324.339L121.458 409.689L190.834 458.544L248.32 366.028Z" fill="#4769B5"/>
<path opacity="0.1" d="M240.402 360.453L181.509 452.007L174.305 438.237L232.8 354.712C249.338 331.09 258.608 309.505 258.645 297.485C258.643 297.253 258.723 297.027 258.872 296.849C259.021 296.67 259.228 296.55 259.457 296.51C259.686 296.47 259.922 296.513 260.122 296.63C260.323 296.748 260.475 296.932 260.552 297.152C264.719 309.143 257.496 333.886 240.402 360.453Z" fill="white"/>
<path d="M190.792 458.523C200.158 445.221 192.219 423.501 173.059 410.011C153.899 396.52 130.774 396.366 121.408 409.668C112.042 422.969 119.982 444.689 139.142 458.18C158.302 471.671 181.426 471.824 190.792 458.523Z" fill="#407BFF"/>
<path opacity="0.5" d="M190.792 458.523C200.158 445.221 192.219 423.501 173.059 410.011C153.899 396.52 130.774 396.366 121.408 409.668C112.042 422.969 119.982 444.689 139.142 458.18C158.302 471.671 181.426 471.824 190.792 458.523Z" fill="#212C44"/>
<path opacity="0.1" d="M183.592 394.938C168.369 384.214 151.099 381.149 140.07 386.159L122.893 407.809C133.079 396.438 154.849 397.216 173.054 410.031C191.26 422.847 199.344 443.117 192.047 456.517L206.464 433.367C207.705 421.208 198.982 405.772 183.592 394.938Z" fill="black"/>
<path opacity="0.2" d="M207.974 325.136C203.751 331.821 200.566 344.332 213.113 353.156C225.66 361.981 236.365 354.786 241.226 348.526L207.974 325.136Z" fill="black"/>
<path d="M244.19 340.822C242.755 352.767 228.948 361.481 214.456 351.277C199.964 341.072 203.511 325.136 214.271 319.793C220.901 316.477 229.346 317.941 235.124 321.959C240.903 325.978 245.079 333.414 244.19 340.822Z" fill="white"/>
<path d="M216.429 348.452C210.789 344.489 207.9 339.303 208.308 333.877C208.493 331.535 209.281 329.281 210.595 327.334C211.909 325.386 213.705 323.812 215.808 322.765C220.846 320.246 227.976 321.033 233.152 324.673C238.329 328.312 241.486 334.775 240.792 340.368C240.516 342.695 239.644 344.91 238.26 346.8C236.876 348.691 235.028 350.191 232.893 351.156C227.948 353.397 222.068 352.425 216.429 348.452Z" fill="#407BFF"/>
<path opacity="0.3" d="M216.429 348.452C210.789 344.489 207.9 339.303 208.308 333.877C208.493 331.535 209.281 329.281 210.595 327.334C211.909 325.386 213.705 323.812 215.808 322.765C220.846 320.246 227.976 321.033 233.152 324.673C238.329 328.312 241.486 334.775 240.792 340.368C240.516 342.695 239.644 344.91 238.26 346.8C236.876 348.691 235.028 350.191 232.893 351.156C227.948 353.397 222.068 352.425 216.429 348.452Z" fill="black"/>
<path d="M216.428 348.452C210.789 344.489 207.798 339.452 208.02 334.284C208.116 332.088 208.818 329.96 210.046 328.137C211.275 326.313 212.984 324.864 214.984 323.95C219.827 321.709 226.818 322.691 231.994 326.339C237.171 329.988 240.449 336.238 239.967 341.554C239.78 343.748 238.989 345.847 237.682 347.619C236.374 349.391 234.601 350.766 232.559 351.591C227.809 353.545 222.068 352.425 216.428 348.452Z" fill="#407BFF"/>
<path opacity="0.2" d="M216.428 348.452C210.789 344.489 207.798 339.452 208.02 334.284C208.116 332.088 208.818 329.96 210.046 328.137C211.275 326.313 212.984 324.864 214.984 323.95C219.827 321.709 226.818 322.691 231.994 326.339C237.171 329.988 240.449 336.238 239.967 341.554C239.78 343.748 238.989 345.847 237.682 347.619C236.374 349.391 234.601 350.766 232.559 351.591C227.809 353.545 222.068 352.425 216.428 348.452Z" fill="white"/>
<path opacity="0.3" d="M235.92 329.997L209.854 341.498C208.561 339.319 207.918 336.816 208.002 334.284C208.051 333.092 208.285 331.914 208.696 330.793L225.522 323.385C229.605 324.42 233.246 326.746 235.902 330.016L235.92 329.997Z" fill="white"/>
<path opacity="0.3" d="M239.662 337.414L215.743 347.952C214.305 346.897 212.994 345.679 211.836 344.322L237.856 332.84C238.669 334.273 239.277 335.812 239.662 337.414Z" fill="white"/>
<path opacity="0.1" d="M265.738 316.792C264.941 310.403 260.034 303.013 252.274 297.55C244.514 292.087 235.911 289.957 229.624 291.355C240.319 286.994 249.903 286.827 256.533 291.494C263.163 296.161 266.238 305.254 265.738 316.792Z" fill="black"/>
<path opacity="0.5" d="M173.044 432.476C175.962 428.332 173.599 421.643 167.765 417.536C161.932 413.429 154.838 413.458 151.92 417.602C149.002 421.746 151.366 428.435 157.199 432.542C163.032 436.65 170.126 436.62 173.044 432.476Z" fill="#407BFF"/>
<path opacity="0.5" d="M145.534 428.588C142.617 432.728 135.523 432.765 129.69 428.653C123.856 424.542 121.485 417.856 124.402 413.717C127.319 409.578 134.422 409.54 140.255 413.652C146.089 417.763 148.413 424.449 145.534 428.588Z" fill="#407BFF"/>
<path opacity="0.5" d="M186.01 457.118C183.093 461.267 176 461.295 170.166 457.183C164.332 453.072 161.971 446.386 164.888 442.247C167.804 438.108 174.898 438.071 180.731 442.182C186.565 446.294 188.926 452.979 186.01 457.118Z" fill="#407BFF"/>
<path opacity="0.5" d="M158.498 453.22C155.581 457.359 148.488 457.387 142.654 453.285C136.82 449.183 134.459 442.488 137.376 438.339C140.292 434.191 147.386 434.172 153.219 438.274C159.053 442.376 161.377 449.071 158.498 453.22Z" fill="#407BFF"/>
<path opacity="0.5" d="M173.055 432.496C172.746 432.933 172.385 433.331 171.98 433.681C173.601 429.551 171.156 423.819 165.943 420.152C160.73 416.485 154.516 416.115 151.173 419.023C151.37 418.53 151.621 418.061 151.923 417.624C154.84 413.485 161.943 413.448 167.776 417.56C173.61 421.671 175.962 428.348 173.055 432.496Z" fill="#407BFF"/>
<path opacity="0.5" d="M145.533 428.588C145.226 429.024 144.869 429.421 144.469 429.773C146.089 425.634 143.654 419.912 138.431 416.235C133.208 412.559 127.004 412.198 123.661 415.115C123.856 414.621 124.108 414.152 124.411 413.717C127.328 409.568 134.421 409.54 140.255 413.652C146.089 417.763 148.413 424.44 145.533 428.588Z" fill="#407BFF"/>
<path opacity="0.5" d="M186.01 457.128C185.702 457.56 185.345 457.955 184.945 458.304C186.565 454.164 184.121 448.442 178.907 444.775C173.694 441.108 167.48 440.728 164.138 443.654C164.33 443.157 164.582 442.684 164.888 442.247C167.805 438.098 174.898 438.07 180.731 442.182C186.565 446.293 188.936 452.979 186.01 457.128Z" fill="#407BFF"/>
<path opacity="0.5" d="M158.498 453.22C158.195 453.657 157.837 454.052 157.433 454.396C159.053 450.266 156.609 444.534 151.395 440.867C146.182 437.2 139.969 436.83 136.626 439.747C136.816 439.248 137.068 438.775 137.376 438.339C140.293 434.191 147.386 434.172 153.22 438.274C159.053 442.376 161.378 449.071 158.498 453.22Z" fill="#407BFF"/>
<path d="M167.369 355.851C167.369 355.851 154.868 372.075 143.978 386.039C142.432 387.985 140.406 389.497 138.099 390.424C135.792 391.351 133.283 391.662 130.82 391.326C121.31 390.15 105.818 396.882 105.818 396.882C105.818 396.882 135.126 348.739 167.369 355.851Z" fill="#407BFF"/>
<path opacity="0.3" d="M167.369 355.851C167.369 355.851 154.868 372.075 143.978 386.039C142.432 387.985 140.406 389.497 138.099 390.424C135.792 391.351 133.283 391.662 130.82 391.326C121.31 390.15 105.818 396.882 105.818 396.882C105.818 396.882 135.126 348.739 167.369 355.851Z" fill="#213259"/>
<path d="M225.994 397.141C225.994 397.141 214.984 414.374 205.455 429.329C204.144 431.441 203.405 433.858 203.311 436.342C203.217 438.826 203.771 441.292 204.918 443.497C209.233 452.062 208.104 468.953 208.104 468.953C208.104 468.953 243.56 425.088 225.994 397.141Z" fill="#407BFF"/>
<path opacity="0.3" d="M225.994 397.141C225.994 397.141 214.984 414.374 205.455 429.329C204.144 431.441 203.405 433.858 203.311 436.342C203.217 438.826 203.771 441.292 204.918 443.497C209.233 452.062 208.104 468.953 208.104 468.953C208.104 468.953 243.56 425.088 225.994 397.141Z" fill="black"/>
<path d="M266.386 521.031C277.952 492.732 227.948 484.713 208.159 491.816C188.371 498.918 168.193 504.196 167.415 485.26C166.638 466.323 181.88 454.581 174.61 450.21C170.582 447.784 169.434 452.062 167.443 458.304C161.35 477.426 126.838 481.981 142.719 509.66C158.6 537.338 150.127 531.328 123.412 542.431C96.6968 553.534 110.448 585.508 136.293 585.508H291.935C363.274 585.508 295.731 448.96 266.386 521.031Z" fill="#407BFF"/>
<path opacity="0.6" d="M266.386 521.031C277.952 492.732 227.948 484.713 208.159 491.816C188.371 498.918 168.193 504.196 167.415 485.26C166.638 466.323 181.88 454.581 174.61 450.21C170.582 447.784 169.434 452.062 167.443 458.304C161.35 477.426 126.838 481.981 142.719 509.66C158.6 537.338 150.127 531.328 123.412 542.431C96.6968 553.534 110.448 585.508 136.293 585.508H291.935C363.274 585.508 295.731 448.96 266.386 521.031Z" fill="white"/>
<path d="M134.931 422.393C132.857 415.189 121.634 424.245 110.577 435.218C99.521 446.192 94.0669 471.24 83.3716 484.296C72.6763 497.353 42.0535 509.15 54.0267 528.8C71.6855 557.756 31.0989 585.536 79.1676 585.536H177.759C195.788 585.536 215.336 563.488 187.26 548.496C159.183 533.504 117.124 568.461 105.772 535.115C100.141 518.568 120.588 526.161 111.115 499.066C101.642 471.971 102.271 464.591 107.096 452.516C118.837 423.088 138.126 433.339 134.931 422.393Z" fill="#407BFF"/>
<path opacity="0.6" d="M134.931 422.393C132.857 415.189 121.634 424.245 110.577 435.218C99.521 446.192 94.0669 471.24 83.3716 484.296C72.6763 497.353 42.0535 509.15 54.0267 528.8C71.6855 557.756 31.0989 585.536 79.1676 585.536H177.759C195.788 585.536 215.336 563.488 187.26 548.496C159.183 533.504 117.124 568.461 105.772 535.115C100.141 518.568 120.588 526.161 111.115 499.066C101.642 471.971 102.271 464.591 107.096 452.516C118.837 423.088 138.126 433.339 134.931 422.393Z" fill="white"/>
<path d="M155.368 425.718C157.813 421.254 166.202 423.93 166.017 429.773C165.832 435.617 144.108 443.275 148.145 463.452C152.183 483.63 190.964 485.074 200.066 505.289C209.169 525.503 173.907 528.337 184.426 540.977C194.945 553.617 227.411 524.587 250.542 532.05C273.674 539.514 296.787 585.508 254.358 585.508H123.616C95.1874 585.508 74.4265 526.809 101.743 502.659C129.06 478.509 107.022 486.352 117.217 470.879C127.412 455.405 145.988 442.83 155.368 425.718Z" fill="#407BFF"/>
<path opacity="0.8" d="M155.368 425.718C157.813 421.254 166.202 423.93 166.017 429.773C165.832 435.617 144.108 443.275 148.145 463.452C152.183 483.63 190.964 485.074 200.066 505.289C209.169 525.503 173.907 528.337 184.426 540.977C194.945 553.617 227.411 524.587 250.542 532.05C273.674 539.514 296.787 585.508 254.358 585.508H123.616C95.1874 585.508 74.4265 526.809 101.743 502.659C129.06 478.509 107.022 486.352 117.217 470.879C127.412 455.405 145.988 442.83 155.368 425.718Z" fill="white"/>
</svg>
