<svg width="33" height="32" viewBox="0 0 33 32" fill="none" xmlns="http://www.w3.org/2000/svg">
<path d="M31.2666 0.566659C31.0252 0.399602 30.7439 0.299291 30.4512 0.275877C30.1586 0.252464 29.8649 0.306779 29.6 0.433326L1.26665 13.7667C0.977868 13.9041 0.734743 14.1218 0.566293 14.3937C0.397842 14.6656 0.31118 14.9802 0.31665 15.3C0.321948 15.6196 0.419035 15.9309 0.596337 16.1969C0.77364 16.4628 1.02368 16.6722 1.31665 16.8L10.3333 20.75V31.95L20.0667 25L28 28.4667C28.2083 28.5656 28.436 28.6169 28.6667 28.6167C28.973 28.6146 29.2729 28.5281 29.5333 28.3667C29.7628 28.2278 29.9553 28.0355 30.0946 27.8063C30.2339 27.5771 30.3158 27.3176 30.3333 27.05L32 2.04999C32.0175 1.7603 31.959 1.47106 31.8304 1.21089C31.7018 0.950725 31.5075 0.728656 31.2666 0.566659ZM27.1667 24.4667L18.3833 20.6167L23.6666 10.2833L10.9166 17.3667L6.03332 15.2167L28.4833 4.64999L27.1667 24.4667Z" fill="white"/>
</svg>
