<svg width="31" height="30" viewBox="0 0 31 30" fill="none" xmlns="http://www.w3.org/2000/svg">
<path d="M7.99155 11.25C8.98611 11.25 9.93994 10.8549 10.6432 10.1517C11.3465 9.44839 11.7415 8.49456 11.7415 7.5M7.99155 11.25C6.99698 11.25 6.04316 10.8549 5.3399 10.1517C4.63663 9.44839 4.24155 8.49456 4.24155 7.5M7.99155 11.25V15M11.7415 7.5C11.7415 6.50544 11.3465 5.55161 10.6432 4.84835C9.93994 4.14509 8.98611 3.75 7.99155 3.75M11.7415 7.5H15.4915M7.99155 3.75C6.99698 3.75 6.04316 4.14509 5.3399 4.84835C4.63663 5.55161 4.24155 6.50544 4.24155 7.5M7.99155 3.75V0M4.24155 7.5H0.491547M2.99155 2.5L5.49155 5M10.4915 10L12.9915 12.5M12.9915 2.5L10.4915 5M5.49155 10L2.99155 12.5M22.9915 15C23.9861 15 24.9399 14.6049 25.6432 13.9017C26.3465 13.1984 26.7415 12.2446 26.7415 11.25M22.9915 15C21.997 15 21.0432 14.6049 20.3399 13.9017C19.6366 13.1984 19.2415 12.2446 19.2415 11.25M22.9915 15V18.75M26.7415 11.25C26.7415 10.2554 26.3465 9.30161 25.6432 8.59835C24.9399 7.89509 23.9861 7.5 22.9915 7.5M26.7415 11.25H30.4915M22.9915 7.5C21.997 7.5 21.0432 7.89509 20.3399 8.59835C19.6366 9.30161 19.2415 10.2554 19.2415 11.25M22.9915 7.5V3.75M19.2415 11.25H15.4915M17.9915 6.25L20.4915 8.75M25.4915 13.75L27.9915 16.25M27.9915 6.25L25.4915 8.75M20.4915 13.75L17.9915 16.25M11.7415 26.25C12.7361 26.25 13.6899 25.8549 14.3932 25.1517C15.0965 24.4484 15.4915 23.4946 15.4915 22.5M11.7415 26.25C10.747 26.25 9.79316 25.8549 9.0899 25.1517C8.38663 24.4484 7.99155 23.4946 7.99155 22.5M11.7415 26.25V30M15.4915 22.5C15.4915 21.5054 15.0965 20.5516 14.3932 19.8483C13.6899 19.1451 12.7361 18.75 11.7415 18.75M15.4915 22.5H19.2415M11.7415 18.75C10.747 18.75 9.79316 19.1451 9.0899 19.8483C8.38663 20.5516 7.99155 21.5054 7.99155 22.5M11.7415 18.75V15M7.99155 22.5H4.24155M6.74155 17.5L9.24155 20M14.2415 25L16.7415 27.5M16.7415 17.5L14.2415 20M9.24155 25L6.74155 27.5" stroke="#E0E1DD" stroke-width="2.5"/>
</svg>
