<svg width="26" height="24" viewBox="0 0 26 24" fill="none" xmlns="http://www.w3.org/2000/svg">
<path d="M21.8915 15.4501C22.329 14.3876 22.5665 13.2501 22.5665 12.0001C22.5665 11.1001 22.429 10.2376 22.1915 9.43762C21.379 9.62512 20.529 9.72512 19.6415 9.72512C17.824 9.72707 16.0326 9.29202 14.4185 8.45664C12.8043 7.62127 11.4146 6.41006 10.3665 4.92512C9.24542 7.63783 7.13045 9.81987 4.45405 11.0251C4.40405 11.3376 4.40405 11.6751 4.40405 12.0001C4.40405 13.1935 4.6391 14.3752 5.09579 15.4778C5.55248 16.5803 6.22186 17.5821 7.06571 18.426C8.76995 20.1302 11.0814 21.0876 13.4915 21.0876C14.804 21.0876 16.0665 20.8001 17.204 20.2876C17.9165 21.6501 18.2415 22.3251 18.2165 22.3251C16.1665 23.0126 14.579 23.3501 13.4915 23.3501C10.4665 23.3501 7.57905 22.1626 5.45405 20.0251C4.16154 18.7366 3.20076 17.1539 2.65405 15.4126H0.991547V9.72512H2.35405C2.76685 7.71576 3.71591 5.85563 5.10053 4.34211C6.48515 2.82858 8.25368 1.71813 10.2185 1.12856C12.1832 0.539003 14.271 0.492331 16.2601 0.9935C18.2493 1.49467 20.0657 2.52498 21.5165 3.97512C23.0918 5.54418 24.1663 7.54524 24.604 9.72512H25.9915V15.4126H25.9165L21.4665 19.5001L14.8415 18.7501V16.6626H20.879L21.8915 15.4501ZM10.079 11.7126C10.454 11.7126 10.8165 11.8626 11.079 12.1376C11.3429 12.4036 11.4909 12.763 11.4909 13.1376C11.4909 13.5122 11.3429 13.8717 11.079 14.1376C10.8165 14.4001 10.454 14.5501 10.079 14.5501C9.29155 14.5501 8.65405 13.9251 8.65405 13.1376C8.65405 12.3501 9.29155 11.7126 10.079 11.7126ZM16.8915 11.7126C17.679 11.7126 18.304 12.3501 18.304 13.1376C18.304 13.9251 17.679 14.5501 16.8915 14.5501C16.104 14.5501 15.4665 13.9251 15.4665 13.1376C15.4665 12.7597 15.6167 12.3972 15.8839 12.13C16.1512 11.8627 16.5136 11.7126 16.8915 11.7126Z" fill="#E0E1DD"/>
</svg>
