<svg width="35" height="31" viewBox="0 0 35 31" fill="none" xmlns="http://www.w3.org/2000/svg">
<path fill-rule="evenodd" clip-rule="evenodd" d="M8.16773 17.9986C8.11199 17.9995 8.05613 18 8.00017 18C6.98467 18 6.00452 17.8486 5.08105 17.5672C5.86462 25.1151 12.2449 31 20.0002 31C28.2847 31 35.0002 24.2845 35.0002 16C35.0002 7.7155 28.2847 1 20.0002 1C18.5072 1 17.0652 1.21809 15.7043 1.62415C16.3667 2.42364 16.907 3.32793 17.2967 4.30845C18.1763 4.10504 19.0828 4 20.0002 4C23.1828 4 26.235 5.26428 28.4855 7.51472C30.7359 9.76516 32.0002 12.8174 32.0002 16C32.0002 19.1826 30.7359 22.2348 28.4855 24.4853C26.235 26.7357 23.1828 28 20.0002 28C16.8176 28 13.7653 26.7357 11.5149 24.4853C9.74117 22.7116 8.58007 20.4398 8.16773 17.9986ZM20.9967 7.37907C20.7222 7.13493 20.3676 7.00005 20.0002 7C19.6023 7 19.2208 7.15804 18.9395 7.43934C18.6582 7.72064 18.5002 8.10218 18.5002 8.5V16L18.5137 16.1965C18.5568 16.5235 18.7065 16.8272 18.9397 17.0605L23.4397 21.5605L23.5807 21.685C23.8822 21.9181 24.2611 22.0277 24.6405 21.9916C25.0198 21.9555 25.3712 21.7763 25.6233 21.4904C25.8753 21.2046 26.0091 20.8335 25.9975 20.4526C25.9859 20.0717 25.8297 19.7094 25.5607 19.4395L21.5002 15.379V8.5L21.4897 8.3245C21.4467 7.95962 21.2713 7.62321 20.9967 7.37907Z" fill="#415A77"/>
<path fill-rule="evenodd" clip-rule="evenodd" d="M8.5 17C13.1944 17 17 13.1944 17 8.5C17 3.80558 13.1944 0 8.5 0C3.80558 0 0 3.80558 0 8.5C0 13.1944 3.80558 17 8.5 17ZM3.88805 8.30201L6.49578 11.1007L13.1183 3.99999L14 4.9463L6.49578 13L3.00005 9.24832L3.88805 8.30201Z" fill="#415A77"/>
</svg>
