<svg width="50" height="42" viewBox="0 0 50 42" fill="none" xmlns="http://www.w3.org/2000/svg">
<path d="M48.8125 16.4401C47.1502 16.6744 45.48 16.6357 43.8432 16.2792C45.8665 15.6994 47.7816 14.2988 49.1819 12.3155C47.2894 12.8391 45.3553 13.0168 43.4411 12.7818C42.7268 10.4136 41.1519 8.51931 38.9453 7.69473C34.6928 6.10563 29.6696 9.06156 27.7207 14.277C27.4451 15.0145 27.2387 15.7629 27.1171 16.5129C20.8699 13.7282 16.611 7.84402 14.955 0.711147C13.7692 1.85902 12.789 3.33886 12.1393 5.07734C10.9139 8.35673 11.1915 11.7625 12.6133 14.23C11.369 13.705 10.3482 12.8433 9.57491 11.7438C9.56015 11.7833 9.54538 11.8228 9.53062 11.8623C7.81793 16.4456 9.04718 21.2576 12.2358 23.4398C11.5143 23.4103 10.7845 23.2727 10.0882 23.0125C9.5955 22.8284 9.13809 22.5824 8.70615 22.3009C8.27828 26.4187 10.1039 30.2229 13.4378 31.5587C9.85291 33.1159 5.98195 33.3805 2.37213 32.0315C1.75085 31.7994 1.15505 31.5317 0.589652 31.2154C2.99197 35.175 6.4446 38.2513 10.7935 39.8764C24.9436 45.1641 38.0616 33.6458 42.7321 21.1473C42.8847 20.739 43.0265 20.3267 43.1684 19.9144C45.1486 19.1235 47.0755 17.9523 48.8125 16.4401Z" fill="#E0E1DD"/>
</svg>
